{"glyphs":{"0":{"ha":846,"x_min":58,"x_max":788,"o":"m 418 -19 q 153 85 247 -19 q 58 375 58 189 q 167 684 58 579 q 431 789 275 789 q 563 768 501 789 q 676 703 624 747 q 758 581 728 660 q 788 399 788 503 q 756 207 788 290 q 672 76 725 124 q 554 4 618 28 q 418 -19 490 -19 m 421 56 q 644 389 644 56 q 426 711 644 711 q 262 631 322 711 q 201 383 201 551 q 259 138 201 219 q 421 56 317 56 z "},"1":{"ha":556,"x_min":56,"x_max":508,"o":"m 71 0 l 71 64 l 188 79 q 222 93 214 82 q 229 135 229 104 l 229 610 q 218 669 229 654 q 169 683 207 683 l 56 683 l 64 754 l 335 789 l 358 775 l 358 133 q 366 93 358 104 q 401 79 374 82 l 508 65 l 508 0 l 71 0 z "},"2":{"ha":764,"x_min":69,"x_max":694,"o":"m 75 0 l 75 74 q 288 226 153 122 q 486 546 486 381 q 447 676 486 639 q 338 714 407 714 q 190 651 240 714 q 235 565 235 590 q 210 519 235 540 q 151 499 185 499 q 69 582 69 499 q 154 726 69 664 q 356 789 239 789 q 554 729 481 789 q 628 557 628 669 q 603 430 628 489 q 529 321 578 371 q 434 235 481 271 q 318 157 388 200 l 240 108 l 240 101 l 429 101 q 556 127 521 101 q 624 247 590 153 l 694 247 l 675 0 l 75 0 z "},"3":{"ha":728,"x_min":51,"x_max":661,"o":"m 108 -243 l 97 -169 q 404 -72 296 -149 q 513 124 513 4 q 367 304 513 268 q 250 267 314 283 l 238 346 q 481 574 481 408 q 441 672 481 636 q 331 708 401 708 q 176 647 217 708 q 215 568 215 581 q 194 521 215 542 q 142 500 174 500 q 51 586 51 500 q 138 728 51 667 q 346 789 224 789 q 542 733 468 789 q 617 574 617 678 q 460 349 617 439 l 450 343 q 604 269 547 318 q 661 121 661 219 q 511 -136 661 -37 q 108 -243 361 -235 z "},"4":{"ha":853,"x_min":21,"x_max":797,"o":"m 483 -228 l 483 0 l 33 0 l 21 69 l 483 768 l 596 789 l 611 776 l 611 94 l 664 94 q 707 102 696 94 q 722 133 718 110 l 735 203 l 797 203 l 797 -82 l 733 -82 l 722 -39 q 706 -7 717 -14 q 664 0 696 0 l 611 0 l 611 -228 l 483 -228 m 138 94 l 483 94 l 483 615 l 138 94 z "},"5":{"ha":726,"x_min":93,"x_max":658,"o":"m 104 -244 l 93 -172 q 510 150 510 -111 q 463 276 510 231 q 326 321 415 321 q 151 281 246 321 l 115 333 l 153 769 l 404 769 q 511 785 485 769 q 554 869 538 801 l 626 869 l 601 646 l 231 646 l 206 378 q 396 429 290 429 q 588 358 518 429 q 658 163 658 286 q 507 -126 658 -22 q 104 -244 356 -231 z "},"6":{"ha":788,"x_min":69,"x_max":726,"o":"m 396 -19 q 148 92 226 -19 q 69 382 69 204 q 113 649 69 532 q 232 841 156 767 q 408 956 308 915 q 628 1007 507 997 l 644 935 q 207 515 271 879 l 213 511 q 304 595 243 561 q 446 629 365 629 q 647 549 568 629 q 726 329 726 469 q 634 72 726 163 q 396 -19 542 -19 m 401 65 q 538 128 488 65 q 588 314 588 190 q 400 535 588 535 q 269 480 326 535 q 211 322 211 425 q 401 65 211 65 z "},"7":{"ha":775,"x_min":56,"x_max":721,"o":"m 190 -228 l 178 -206 q 603 646 506 315 l 294 646 q 182 624 207 646 q 125 507 157 603 l 56 507 l 81 769 l 710 769 l 721 681 q 343 -228 490 69 l 190 -228 z "},"8":{"ha":788,"x_min":49,"x_max":729,"o":"m 382 -19 q 142 46 235 -19 q 49 238 49 111 q 100 397 49 324 q 272 510 151 471 q 128 615 168 561 q 89 747 89 668 q 168 917 89 843 q 390 992 247 992 q 608 933 529 992 q 686 781 686 874 q 518 542 686 626 q 729 269 729 449 q 626 58 729 135 q 382 -19 524 -19 m 444 571 q 558 761 558 647 q 508 874 558 833 q 385 915 457 915 q 265 878 313 915 q 217 774 217 842 q 265 668 217 713 q 444 571 314 624 m 394 61 q 535 109 483 61 q 586 243 586 157 q 526 378 586 326 q 339 472 467 431 q 186 250 186 394 q 242 112 186 163 q 394 61 299 61 z "},"9":{"ha":788,"x_min":61,"x_max":718,"o":"m 160 -243 l 149 -168 q 434 -42 318 -147 q 574 251 550 63 l 575 261 q 354 143 497 143 q 142 223 222 143 q 61 456 61 303 q 153 701 61 614 q 392 789 246 789 q 582 732 507 789 q 688 584 657 675 q 718 368 718 493 q 672 98 718 215 q 547 -90 626 -19 q 369 -199 467 -161 q 160 -243 272 -237 m 390 243 q 520 295 464 243 q 576 453 576 347 q 383 704 576 704 q 250 646 300 704 q 200 472 200 588 q 249 296 200 349 q 390 243 297 243 z "}," ":{"ha":278,"x_min":0,"x_max":0,"o":""},"!":{"ha":458,"x_min":138,"x_max":333,"o":"m 196 268 l 196 368 q 170 674 196 490 q 144 901 144 857 q 172 969 144 946 q 242 992 200 992 q 306 969 282 992 q 331 903 331 946 q 302 685 331 868 q 274 367 274 503 l 274 268 l 196 268 m 306 8 q 293 -6 306 8 q 236 -19 279 -19 q 165 8 193 -19 q 138 76 138 35 q 165 147 138 119 q 236 175 193 175 q 306 148 279 175 q 333 78 333 121 q 306 8 333 36 z "},"\"":{"ha":557,"x_min":118,"x_max":460,"o":"m 157 763 l 121 982 q 118 1008 118 1001 q 138 1063 118 1040 q 192 1086 158 1086 q 232 1072 214 1086 q 250 1035 250 1057 q 246 999 250 1021 l 204 763 l 157 763 m 367 763 l 331 982 q 328 1008 328 1001 q 348 1063 328 1040 q 401 1086 368 1086 q 442 1072 424 1086 q 460 1035 460 1057 q 456 999 460 1021 l 414 763 l 367 763 z "},"#":{"ha":936,"x_min":63,"x_max":874,"o":"m 204 0 l 233 194 l 63 194 l 78 265 l 246 265 l 283 510 l 110 510 l 124 582 l 294 582 l 322 764 l 397 764 l 369 582 l 625 582 l 651 764 l 728 764 l 700 582 l 874 582 l 861 510 l 690 510 l 653 265 l 833 265 l 821 194 l 642 194 l 611 0 l 536 0 l 567 194 l 310 194 l 279 0 l 204 0 m 321 265 l 578 265 l 615 510 l 357 510 l 321 265 z "},"$":{"ha":719,"x_min":69,"x_max":650,"o":"m 325 -133 l 325 -11 q 174 58 225 4 l 156 -7 l 92 -7 l 69 239 l 149 244 q 325 72 201 94 l 325 344 q 238 374 271 360 q 167 413 206 388 q 110 480 129 439 q 92 578 92 521 q 153 720 92 660 q 325 788 215 781 l 325 914 l 394 914 l 394 785 q 524 733 478 774 l 538 789 l 606 789 l 631 564 l 553 556 q 394 711 510 699 l 394 463 q 456 443 440 449 q 512 422 472 438 q 569 390 551 406 q 609 351 586 375 q 641 294 632 326 q 650 222 650 263 q 583 61 650 132 q 394 -15 517 -10 l 394 -133 l 325 -133 m 325 486 l 325 711 q 215 608 215 699 q 325 486 215 526 m 394 68 q 491 105 456 74 q 526 189 526 136 q 492 271 526 242 q 394 322 458 300 l 394 68 z "},"%":{"ha":1182,"x_min":65,"x_max":1117,"o":"m 281 381 q 123 440 181 381 q 65 596 65 500 q 129 772 65 715 q 288 829 193 829 q 440 775 379 829 q 500 618 500 721 q 438 443 500 506 q 281 381 375 381 m 283 -19 l 788 829 l 890 829 l 388 -19 l 283 -19 m 288 460 q 389 604 389 460 q 360 714 389 675 q 278 753 331 753 q 202 717 231 753 q 174 611 174 681 q 204 501 174 543 q 288 460 235 460 m 897 -19 q 740 40 797 -19 q 682 196 682 100 q 746 372 682 315 q 904 429 810 429 q 1056 375 996 429 q 1117 218 1117 321 q 1054 43 1117 106 q 897 -19 992 -19 m 904 60 q 1006 204 1006 60 q 976 314 1006 275 q 894 353 947 353 q 819 317 847 353 q 790 211 790 281 q 821 101 790 143 q 904 60 851 60 z "},"&":{"ha":1125,"x_min":75,"x_max":1076,"o":"m 401 -19 q 166 53 257 -19 q 75 251 75 126 q 292 532 75 442 q 178 756 178 646 q 249 929 178 867 q 436 992 321 992 q 587 937 529 992 q 644 796 644 882 q 464 547 644 636 l 682 321 q 796 599 726 522 q 950 676 865 676 q 1026 650 994 676 q 1057 581 1057 624 q 1038 521 1057 546 q 989 496 1019 496 q 960 500 972 496 q 938 520 949 504 q 924 544 928 536 q 908 582 921 553 q 817 497 864 572 q 742 261 769 422 q 864 156 821 183 q 942 128 907 128 q 1049 179 979 128 l 1076 132 q 990 38 1029 67 q 900 10 951 10 q 692 132 818 10 q 579 23 653 65 q 401 -19 506 -19 m 417 592 q 554 792 554 665 q 519 885 554 854 q 428 915 485 915 q 334 881 369 915 q 299 789 299 847 q 328 693 299 738 q 417 592 358 649 m 431 63 q 633 185 574 63 l 336 485 q 217 275 217 419 q 275 118 217 174 q 431 63 333 63 z "},"'":{"ha":347,"x_min":118,"x_max":250,"o":"m 157 763 l 121 982 q 118 1008 118 1001 q 138 1063 118 1040 q 192 1086 158 1086 q 232 1072 214 1086 q 250 1035 250 1057 q 246 999 250 1021 l 204 763 l 157 763 z "},"(":{"ha":461,"x_min":103,"x_max":425,"o":"m 368 -283 q 180 22 257 -167 q 103 425 103 211 q 184 831 103 640 q 375 1135 265 1021 l 425 1107 q 286 788 339 964 q 233 440 233 611 q 419 -254 233 99 l 368 -283 z "},")":{"ha":461,"x_min":36,"x_max":358,"o":"m 86 -283 l 36 -256 q 175 64 122 -112 q 228 411 228 240 q 42 1106 228 753 l 93 1135 q 281 829 204 1018 q 358 426 358 640 q 277 21 358 211 q 86 -283 196 -169 z "},"*":{"ha":624,"x_min":57,"x_max":569,"o":"m 303 565 q 258 633 246 565 l 289 790 l 176 693 q 130 670 156 672 q 85 696 104 668 q 81 745 71 728 q 118 771 92 763 l 269 826 l 132 876 q 89 961 57 903 q 126 986 101 986 q 169 968 150 986 l 290 861 l 264 1006 q 272 1063 257 1040 q 319 1086 286 1086 q 358 1067 346 1086 q 363 1019 369 1049 l 331 860 l 444 957 q 497 978 469 978 q 540 950 525 978 q 503 879 569 903 l 350 825 l 489 772 q 532 738 519 761 q 531 685 544 715 q 494 661 515 660 q 451 682 474 663 l 331 789 l 357 646 q 349 590 363 614 q 303 565 336 565 z "},"+":{"ha":808,"x_min":107,"x_max":701,"o":"m 353 113 l 353 383 l 107 383 l 107 471 l 353 471 l 353 724 l 446 724 l 446 471 l 701 471 l 701 383 l 446 383 l 446 113 l 353 113 z "},",":{"ha":456,"x_min":119,"x_max":340,"o":"m 160 -233 l 119 -182 q 240 0 232 -96 l 207 0 q 121 76 121 0 q 149 150 121 121 q 222 179 176 179 q 310 140 281 179 q 340 43 340 101 q 293 -104 340 -25 q 160 -233 246 -183 z "},"-":{"ha":492,"x_min":61,"x_max":432,"o":"m 61 343 l 61 457 l 432 457 l 432 343 l 61 343 z "},".":{"ha":463,"x_min":125,"x_max":338,"o":"m 231 -24 q 155 6 185 -24 q 125 81 125 35 q 155 156 125 126 q 231 186 185 186 q 308 157 278 186 q 338 82 338 128 q 308 6 338 36 q 231 -24 278 -24 z "},"/":{"ha":594,"x_min":28,"x_max":567,"o":"m 28 -153 l 479 1114 l 567 1114 l 117 -153 l 28 -153 z "},":":{"ha":463,"x_min":125,"x_max":338,"o":"m 231 514 q 155 543 185 514 q 125 618 125 572 q 155 694 125 664 q 231 724 185 724 q 308 694 278 724 q 338 619 338 665 q 308 544 338 574 q 231 514 278 514 m 231 -24 q 155 6 185 -24 q 125 81 125 35 q 155 156 125 126 q 231 186 185 186 q 308 157 278 186 q 338 82 338 128 q 308 6 338 36 q 231 -24 278 -24 z "},";":{"ha":456,"x_min":115,"x_max":340,"o":"m 221 514 q 145 543 175 514 q 115 618 115 572 q 145 694 115 664 q 221 724 175 724 q 298 694 268 724 q 328 619 328 665 q 298 544 328 574 q 221 514 268 514 m 160 -233 l 119 -182 q 240 0 232 -96 l 207 0 q 121 76 121 0 q 149 150 121 121 q 222 179 176 179 q 310 140 281 179 q 340 43 340 101 q 293 -104 340 -25 q 160 -233 246 -183 z "},"<":{"ha":808,"x_min":97,"x_max":664,"o":"m 622 51 l 97 365 l 97 424 l 622 739 l 664 667 l 206 396 l 664 126 l 622 51 z "},"=":{"ha":808,"x_min":107,"x_max":701,"o":"m 107 503 l 107 590 l 701 590 l 701 503 l 107 503 m 107 253 l 107 340 l 701 340 l 701 253 l 107 253 z "},">":{"ha":808,"x_min":144,"x_max":711,"o":"m 186 51 l 144 126 l 603 396 l 144 667 l 186 739 l 711 424 l 711 365 l 186 51 z "},"?":{"ha":747,"x_min":90,"x_max":629,"o":"m 299 269 l 299 440 q 315 506 299 474 q 347 556 331 538 q 394 607 363 575 q 445 658 429 640 q 478 710 461 676 q 496 778 496 743 q 455 878 496 840 q 344 917 414 917 q 211 864 256 917 q 256 778 256 803 q 231 732 256 753 q 172 711 206 711 q 90 794 90 711 q 173 933 90 875 q 364 992 256 992 q 556 931 483 992 q 629 765 629 869 q 594 641 629 697 q 497 524 558 585 q 472 498 490 517 q 447 472 454 479 q 425 449 439 464 q 405 424 411 433 q 390 402 399 415 q 379 378 382 389 q 376 357 376 368 l 376 269 l 299 269 m 409 8 q 395 -6 409 8 q 339 -19 382 -19 q 268 8 296 -19 q 240 76 240 35 q 268 147 240 119 q 339 175 296 175 q 409 148 382 175 q 436 78 436 121 q 409 8 436 36 z "},"@":{"ha":1179,"x_min":75,"x_max":1104,"o":"m 569 -254 q 383 -224 469 -254 q 226 -135 297 -194 q 115 25 156 -75 q 75 256 75 125 q 219 638 75 488 q 611 789 364 789 q 973 674 842 789 q 1104 339 1104 560 q 1024 74 1104 164 q 825 -15 944 -15 q 738 15 757 -15 q 722 115 718 46 l 731 292 l 725 292 l 696 190 q 618 37 667 89 q 506 -15 569 -15 q 321 204 321 -15 q 398 463 321 376 q 590 549 475 549 q 735 517 678 549 l 807 547 l 826 539 l 813 140 q 813 92 811 104 q 824 70 814 79 q 860 61 835 61 q 973 133 926 61 q 1019 329 1019 204 q 917 613 1019 513 q 611 714 815 714 q 291 593 417 714 q 165 258 165 472 q 203 50 165 139 q 303 -86 240 -39 q 433 -156 365 -133 q 575 -178 501 -178 q 863 -78 739 -178 l 907 -132 q 569 -254 781 -254 m 518 72 q 604 133 569 72 q 674 310 639 194 l 718 458 q 604 482 667 482 q 475 403 518 482 q 432 213 432 324 q 518 72 432 72 z "},"A":{"ha":1021,"x_min":21,"x_max":1000,"o":"m 21 0 l 21 67 l 88 78 q 124 97 113 83 q 151 153 135 111 l 444 972 l 592 972 l 882 151 q 906 99 897 111 q 943 81 915 88 l 1000 69 l 1000 0 l 629 0 l 629 67 l 710 76 q 744 95 738 81 q 736 146 750 110 l 676 321 l 304 321 l 246 151 q 240 99 233 115 q 278 76 247 83 l 357 65 l 357 0 l 21 0 m 332 400 l 650 400 l 496 857 l 490 857 l 332 400 z "},"B":{"ha":917,"x_min":86,"x_max":856,"o":"m 86 0 l 86 67 l 167 79 q 202 99 194 83 q 210 150 210 115 l 210 828 q 201 875 210 863 q 164 893 193 888 l 86 906 l 86 972 l 440 972 q 707 919 614 972 q 800 742 800 867 q 741 599 800 658 q 599 521 682 540 l 599 514 q 788 444 721 503 q 856 276 856 385 q 751 74 856 147 q 449 0 647 0 l 86 0 m 424 540 q 591 591 531 540 q 651 736 651 642 q 596 863 651 829 q 428 897 540 897 l 347 897 l 347 543 q 424 540 365 540 m 446 76 q 640 128 572 76 q 707 281 707 179 q 451 468 707 468 q 347 463 390 468 l 347 83 q 446 76 378 76 z "},"C":{"ha":983,"x_min":82,"x_max":908,"o":"m 547 -19 q 341 22 432 -19 q 194 135 250 64 q 110 297 139 207 q 82 488 82 386 q 206 856 82 719 q 524 992 329 992 q 754 907 669 992 l 768 994 l 836 994 l 890 671 l 815 654 q 706 844 774 785 q 526 904 638 904 q 305 797 379 904 q 231 489 231 689 q 319 194 231 313 q 561 76 407 76 q 722 115 656 76 q 843 232 789 154 l 908 185 q 766 40 858 100 q 547 -19 674 -19 z "},"D":{"ha":1076,"x_min":86,"x_max":993,"o":"m 86 0 l 86 67 l 167 79 q 202 99 194 83 q 210 150 210 115 l 210 828 q 201 875 210 863 q 164 893 193 888 l 86 906 l 86 972 l 485 972 q 857 860 721 972 q 993 517 993 747 q 850 139 993 278 q 446 0 707 0 l 86 0 m 447 76 q 748 181 651 76 q 844 506 844 286 q 750 797 844 697 q 474 897 656 897 l 347 897 l 347 83 q 447 76 386 76 z "},"E":{"ha":885,"x_min":86,"x_max":811,"o":"m 86 0 l 86 67 l 167 79 q 202 99 194 83 q 210 150 210 115 l 210 828 q 201 875 210 863 q 164 893 193 888 l 86 906 l 86 972 l 729 972 l 781 746 l 708 722 q 625 865 667 832 q 482 897 583 897 l 347 897 l 347 538 l 468 538 q 502 538 489 538 q 528 540 515 538 q 548 543 542 543 q 562 551 554 543 q 572 560 569 560 q 578 576 574 561 q 585 594 583 590 q 591 621 586 599 q 597 651 596 643 l 661 660 l 661 344 l 597 333 q 567 434 585 417 q 468 451 550 451 l 347 451 l 347 75 l 526 75 q 666 109 626 75 q 735 256 706 143 l 811 256 l 778 0 l 86 0 z "},"F":{"ha":854,"x_min":86,"x_max":794,"o":"m 86 0 l 86 67 l 167 79 q 202 99 194 83 q 210 150 210 115 l 210 828 q 201 875 210 863 q 164 893 193 888 l 86 906 l 86 972 l 744 972 l 794 724 l 722 699 q 635 860 676 822 q 492 897 593 897 l 347 897 l 347 510 l 468 510 q 563 525 544 510 q 597 624 581 540 l 661 632 l 661 289 l 597 278 q 564 401 581 379 q 468 424 547 424 l 347 424 l 347 147 q 357 97 347 111 q 399 78 367 82 l 496 67 l 496 0 l 86 0 z "},"G":{"ha":1056,"x_min":82,"x_max":1010,"o":"m 528 -19 q 327 22 415 -19 q 187 135 239 64 q 108 292 135 206 q 82 472 82 378 q 206 853 82 714 q 524 992 329 992 q 758 907 674 992 l 772 994 l 840 994 l 904 671 l 828 654 q 715 844 786 783 q 532 904 644 904 q 306 794 382 904 q 231 485 231 685 q 311 191 231 310 q 538 72 392 72 q 763 167 692 72 l 763 319 q 754 367 763 354 q 717 385 746 379 l 633 397 l 633 464 l 1010 464 l 1010 397 l 936 385 q 902 365 910 381 q 894 314 894 349 l 894 -4 l 835 -4 l 799 61 q 528 -19 688 -19 z "},"H":{"ha":1167,"x_min":86,"x_max":1079,"o":"m 86 0 l 86 67 l 167 79 q 202 99 194 83 q 210 150 210 115 l 210 828 q 201 875 210 863 q 164 893 193 888 l 86 906 l 86 972 l 469 972 l 469 906 l 389 893 q 355 873 363 889 q 347 822 347 857 l 347 543 l 819 543 l 819 828 q 811 875 819 863 q 774 893 803 888 l 697 906 l 697 972 l 1079 972 l 1079 906 l 1000 893 q 965 873 972 889 q 957 822 957 857 l 957 144 q 965 97 957 110 q 1003 79 974 85 l 1079 67 l 1079 0 l 697 0 l 697 67 l 776 79 q 812 99 804 83 q 819 150 819 115 l 819 456 l 347 456 l 347 144 q 355 97 347 110 q 392 79 363 85 l 469 67 l 469 0 l 86 0 z "},"I":{"ha":557,"x_min":81,"x_max":476,"o":"m 81 0 l 81 67 l 167 79 q 202 99 194 83 q 210 150 210 115 l 210 828 q 201 875 210 863 q 164 893 193 888 l 81 906 l 81 972 l 476 972 l 476 906 l 389 893 q 355 873 363 889 q 347 822 347 857 l 347 144 q 355 97 347 110 q 392 79 363 85 l 476 67 l 476 0 l 81 0 z "},"J":{"ha":799,"x_min":81,"x_max":750,"o":"m 329 -19 q 153 26 226 -19 q 81 150 81 71 q 109 231 81 197 q 185 264 138 264 q 250 247 228 264 q 272 201 272 229 q 231 103 272 172 q 338 69 268 69 q 449 122 414 69 q 483 279 483 174 l 483 825 q 475 873 483 860 q 438 890 467 886 l 340 904 l 340 972 l 750 972 l 750 906 l 663 893 q 628 874 636 889 q 621 822 621 858 l 621 311 q 608 197 621 250 q 566 93 596 144 q 476 11 536 42 q 329 -19 415 -19 z "},"K":{"ha":1047,"x_min":86,"x_max":1021,"o":"m 878 -19 q 752 12 803 -19 q 654 118 701 43 l 436 467 l 353 382 l 353 144 q 360 97 353 110 q 397 79 368 85 l 482 67 l 482 0 l 86 0 l 86 67 l 172 79 q 208 99 200 83 q 215 150 215 115 l 215 828 q 207 875 215 863 q 169 893 199 888 l 86 906 l 86 972 l 482 972 l 482 906 l 394 893 q 360 874 368 889 q 353 822 353 858 l 353 486 l 690 824 q 707 869 714 849 q 672 893 700 889 l 606 904 l 619 972 l 949 972 l 949 903 l 896 892 q 853 874 871 886 q 801 828 835 861 l 532 557 l 775 189 q 856 96 822 118 q 944 74 889 74 q 1007 86 969 74 l 1021 36 q 878 -19 968 -19 z "},"L":{"ha":885,"x_min":86,"x_max":801,"o":"m 86 0 l 86 67 l 167 79 q 202 99 194 83 q 210 150 210 115 l 210 828 q 201 875 210 863 q 164 893 193 888 l 86 906 l 86 972 l 483 972 l 483 906 l 392 893 q 355 875 363 888 q 347 828 347 863 l 347 76 l 504 76 q 644 121 603 76 q 725 297 685 165 l 801 297 l 767 0 l 86 0 z "},"M":{"ha":1393,"x_min":88,"x_max":1306,"o":"m 88 0 l 88 67 l 167 79 q 194 92 185 82 q 206 113 204 103 q 210 150 208 124 l 251 828 q 244 875 251 863 q 207 893 236 888 l 129 906 l 129 972 l 451 972 l 689 268 l 694 282 l 943 972 l 1264 972 l 1264 906 l 1176 893 q 1142 874 1150 889 q 1135 822 1135 858 l 1176 144 q 1184 97 1176 110 q 1221 79 1192 85 l 1306 67 l 1306 0 l 910 0 l 910 67 l 996 79 q 1031 99 1024 83 q 1039 150 1039 115 l 997 853 l 997 864 l 738 157 l 599 157 l 349 865 l 349 854 l 307 144 q 315 97 307 110 q 351 79 322 85 l 429 67 l 429 0 l 88 0 z "},"N":{"ha":1144,"x_min":88,"x_max":1075,"o":"m 88 0 l 88 67 l 168 79 q 202 99 194 83 q 210 150 210 115 l 210 828 q 202 875 210 863 q 165 893 194 888 l 88 906 l 88 972 l 396 972 l 857 179 l 857 828 q 849 875 857 863 q 811 893 840 888 l 735 906 l 735 972 l 1075 972 l 1075 906 l 996 893 q 960 873 968 889 q 953 822 953 857 l 953 0 l 810 0 l 307 846 l 307 144 q 315 97 307 110 q 351 79 322 85 l 429 67 l 429 0 l 88 0 z "},"O":{"ha":1082,"x_min":82,"x_max":999,"o":"m 538 -19 q 205 117 328 -19 q 82 467 82 253 q 108 665 82 576 q 178 814 133 754 q 283 915 222 874 q 410 974 343 956 q 550 992 476 992 q 870 866 742 992 q 999 511 999 740 q 867 122 999 264 q 538 -19 736 -19 m 554 74 q 770 176 693 74 q 847 485 847 278 q 762 794 847 686 q 532 903 676 903 q 312 803 394 903 q 229 496 229 703 q 317 188 229 301 q 554 74 404 74 z "},"P":{"ha":836,"x_min":86,"x_max":801,"o":"m 86 0 l 86 67 l 167 79 q 202 99 194 83 q 210 150 210 115 l 210 828 q 201 875 210 863 q 164 893 193 888 l 86 906 l 86 972 l 428 972 q 801 697 801 972 q 769 550 801 614 q 685 452 738 486 q 576 401 633 418 q 457 385 518 385 q 347 392 378 385 l 347 147 q 357 97 347 111 q 399 78 367 82 l 496 67 l 496 0 l 86 0 m 428 460 q 653 693 653 460 q 592 852 653 807 q 418 897 532 897 l 347 897 l 347 467 q 428 460 371 460 z "},"Q":{"ha":1082,"x_min":93,"x_max":1243,"o":"m 981 -265 q 879 -244 925 -265 q 796 -183 833 -224 q 733 -102 758 -142 q 676 -3 707 -62 q 549 -19 617 -19 q 216 117 339 -19 q 93 467 93 253 q 119 665 93 576 q 189 814 144 754 q 294 915 233 874 q 421 974 354 956 q 561 992 488 992 q 881 866 753 992 q 1010 511 1010 740 q 952 233 1010 351 q 796 50 894 115 q 910 -85 858 -39 q 1019 -131 961 -131 q 1215 -62 1121 -131 l 1243 -104 q 1116 -227 1176 -189 q 981 -265 1056 -265 m 742 131 q 858 485 858 229 q 773 794 858 686 q 543 903 688 903 q 323 803 406 903 q 240 496 240 703 q 278 272 240 369 q 458 346 358 346 q 603 290 539 346 q 742 131 668 233 m 565 74 q 633 79 606 74 q 542 219 586 171 q 440 268 499 268 q 308 213 365 268 q 565 74 394 74 z "},"R":{"ha":1007,"x_min":86,"x_max":969,"o":"m 829 -19 q 706 22 749 -19 q 625 158 664 64 l 558 318 q 501 420 526 394 q 410 446 475 446 q 347 442 375 446 l 347 147 q 357 97 347 111 q 399 78 367 82 l 496 67 l 496 0 l 86 0 l 86 67 l 167 79 q 202 99 194 83 q 210 150 210 115 l 210 828 q 201 875 210 863 q 164 893 193 888 l 86 906 l 86 972 l 435 972 q 808 724 808 972 q 783 617 808 665 q 717 539 757 568 q 640 493 678 510 q 567 469 601 476 l 567 465 q 653 421 622 450 q 707 339 685 392 l 756 225 q 783 160 775 178 q 809 116 792 142 q 846 82 826 90 q 893 74 865 74 q 956 86 918 74 l 969 36 q 829 -19 911 -19 m 425 513 q 600 567 540 513 q 660 715 660 622 q 599 858 660 818 q 425 897 539 897 l 347 897 l 347 515 q 425 513 369 513 z "},"S":{"ha":851,"x_min":92,"x_max":764,"o":"m 453 -19 q 306 8 371 -19 q 203 74 242 36 l 181 -8 l 119 -8 l 92 292 l 171 299 q 449 69 256 69 q 583 112 536 69 q 629 229 629 154 q 613 310 629 276 q 561 368 597 344 q 494 405 525 392 q 411 436 464 418 q 352 456 365 451 q 297 478 339 461 q 241 507 256 496 q 198 542 226 518 q 158 589 169 565 q 137 647 147 613 q 126 724 126 682 q 203 913 126 835 q 424 992 281 992 q 629 919 544 992 l 647 992 l 713 992 l 743 711 l 665 700 q 570 867 631 819 q 428 915 510 915 q 308 874 354 915 q 261 763 261 832 q 277 689 261 721 q 328 634 293 657 q 393 599 364 611 q 476 568 422 586 q 536 547 519 553 q 592 524 553 540 q 648 494 631 507 q 692 459 665 482 q 732 412 719 436 q 754 353 744 388 q 764 278 764 318 q 684 71 764 161 q 453 -19 604 -19 z "},"T":{"ha":1025,"x_min":58,"x_max":967,"o":"m 288 0 l 288 67 l 399 83 q 435 103 426 88 q 444 153 444 118 l 444 896 l 368 896 q 222 855 265 896 q 133 676 179 814 l 58 694 l 113 972 l 915 972 l 967 694 l 890 676 q 804 855 846 814 q 660 896 763 896 l 582 896 l 582 147 q 591 101 582 114 q 629 83 600 89 l 739 67 l 739 0 l 288 0 z "},"U":{"ha":1125,"x_min":68,"x_max":1063,"o":"m 561 -19 q 276 83 360 -19 q 192 368 192 185 l 192 828 q 183 875 192 863 q 146 893 175 888 l 68 906 l 68 972 l 451 972 l 451 906 l 371 893 q 337 873 344 889 q 329 822 329 857 l 329 378 q 387 149 329 221 q 581 78 444 78 q 776 150 710 78 q 843 388 843 222 l 843 828 q 835 875 843 863 q 797 893 826 888 l 721 906 l 721 972 l 1063 972 l 1063 906 l 983 893 q 948 873 956 889 q 940 822 940 857 l 940 404 q 561 -19 940 -19 z "},"V":{"ha":1026,"x_min":31,"x_max":996,"o":"m 436 0 l 149 821 q 125 872 135 860 q 86 890 115 883 l 31 901 l 31 972 l 397 972 l 397 906 l 321 896 q 287 877 293 892 q 294 826 281 863 l 526 119 l 532 119 l 765 818 q 771 869 778 854 q 735 892 764 885 l 667 907 l 667 972 l 996 972 l 996 906 l 928 894 q 893 875 904 889 q 865 819 882 861 l 583 0 l 436 0 z "},"W":{"ha":1506,"x_min":25,"x_max":1481,"o":"m 354 0 l 143 821 q 122 872 133 858 q 81 890 111 885 l 25 901 l 25 972 l 392 972 l 392 906 l 321 896 q 287 878 293 892 q 289 826 281 864 l 451 119 l 458 119 l 682 972 l 833 972 l 1082 126 l 1089 126 l 1253 818 q 1255 870 1261 854 q 1219 892 1249 886 l 1151 907 l 1151 972 l 1481 972 l 1481 906 l 1415 894 q 1374 875 1389 890 q 1350 819 1360 860 l 1140 0 l 983 0 l 742 835 l 738 835 l 521 0 l 354 0 z "},"X":{"ha":982,"x_min":21,"x_max":961,"o":"m 21 0 l 21 69 l 74 81 q 112 96 97 86 q 160 139 126 106 l 414 472 l 156 824 q 113 869 128 857 q 69 889 97 882 l 21 900 l 35 972 l 374 972 l 374 904 l 318 894 q 310 835 267 888 l 499 576 l 676 829 q 696 860 692 849 q 693 878 700 872 q 665 890 686 885 l 613 904 l 626 972 l 925 972 l 925 903 l 872 892 q 829 874 846 886 q 786 828 813 863 l 550 506 l 813 149 q 908 81 860 89 l 961 72 l 961 0 l 588 0 l 588 69 l 650 78 q 661 139 706 85 l 467 401 l 272 138 q 256 111 260 121 q 258 94 251 101 q 283 82 264 86 l 344 68 l 344 0 l 21 0 z "},"Y":{"ha":983,"x_min":25,"x_max":958,"o":"m 290 0 l 290 67 l 376 79 q 412 99 404 83 q 419 150 419 115 l 419 407 l 160 821 q 122 872 138 857 q 76 892 106 886 l 25 901 l 25 972 l 413 972 l 413 906 l 336 896 q 298 876 306 893 q 310 826 290 858 l 513 497 l 519 497 l 711 821 q 688 892 751 878 l 624 907 l 624 972 l 958 972 l 958 906 l 890 894 q 852 875 867 890 q 811 818 838 860 l 557 406 l 557 144 q 565 97 557 110 q 601 79 572 85 l 686 67 l 686 0 l 290 0 z "},"Z":{"ha":913,"x_min":81,"x_max":829,"o":"m 81 0 l 81 67 l 653 899 l 356 899 q 242 861 274 899 q 175 714 210 824 l 93 707 l 110 972 l 817 972 l 817 903 l 247 76 l 540 76 q 670 118 628 76 q 753 276 713 160 l 829 276 l 803 0 l 81 0 z "},"[":{"ha":463,"x_min":146,"x_max":407,"o":"m 146 -294 l 146 1128 l 401 1128 l 407 1060 l 300 1051 q 268 1038 275 1050 q 261 988 261 1026 l 261 -154 q 268 -205 261 -193 q 300 -218 275 -217 l 407 -226 l 401 -294 l 146 -294 z "},"\\":{"ha":594,"x_min":28,"x_max":567,"o":"m 478 -153 l 28 1114 l 115 1114 l 567 -153 l 478 -153 z "},"]":{"ha":463,"x_min":56,"x_max":317,"o":"m 61 -294 l 56 -226 l 163 -218 q 194 -205 188 -217 q 201 -154 201 -193 l 201 988 q 194 1038 201 1026 q 163 1051 188 1050 l 56 1060 l 61 1128 l 317 1128 l 317 -294 l 61 -294 z "},"^":{"ha":808,"x_min":67,"x_max":742,"o":"m 135 478 l 67 519 l 375 989 l 433 989 l 742 519 l 674 478 l 404 882 l 135 478 z "},"_":{"ha":694,"x_min":21,"x_max":674,"o":"m 21 -143 l 21 -56 l 674 -56 l 674 -143 l 21 -143 z "},"`":{"ha":694,"x_min":189,"x_max":456,"o":"m 422 806 l 238 933 q 189 1007 189 967 q 208 1056 189 1035 q 256 1078 226 1078 q 310 1038 278 1078 l 456 840 l 422 806 z "},"a":{"ha":749,"x_min":72,"x_max":742,"o":"m 267 -19 q 131 26 189 -19 q 72 168 72 72 q 128 310 72 257 q 288 378 185 363 q 471 394 363 389 l 471 489 q 433 615 471 578 q 321 653 394 653 q 244 640 279 653 q 193 611 208 628 q 229 533 229 550 q 208 490 229 508 q 154 471 188 471 q 75 543 75 471 q 156 670 75 617 q 340 724 236 724 q 531 668 461 724 q 600 474 600 613 l 600 139 q 728 89 600 53 l 742 36 q 614 -19 683 -19 q 482 104 494 -19 q 267 -19 404 -19 m 319 76 q 422 112 374 76 q 471 224 471 147 l 471 322 q 336 310 411 322 q 237 265 267 300 q 207 183 207 229 q 239 103 207 129 q 319 76 271 76 z "},"b":{"ha":843,"x_min":24,"x_max":779,"o":"m 181 -19 l 144 -8 l 144 894 q 135 957 144 942 q 85 978 125 972 l 24 988 l 32 1057 l 258 1064 l 274 1049 l 274 593 q 326 658 301 633 q 400 703 351 683 q 511 724 449 724 q 708 632 636 724 q 779 376 779 540 q 693 83 779 185 q 456 -19 607 -19 q 246 43 332 -19 l 181 -19 m 446 68 q 590 147 542 68 q 639 357 639 226 q 467 624 639 624 q 329 576 385 624 q 274 421 274 528 l 274 133 q 446 68 342 68 z "},"c":{"ha":694,"x_min":65,"x_max":654,"o":"m 393 -19 q 150 82 235 -19 q 65 343 65 183 q 160 621 65 518 q 404 724 254 724 q 581 672 510 724 q 653 542 653 621 q 630 477 653 503 q 561 451 607 451 q 479 518 479 451 q 518 613 479 547 q 393 646 465 646 q 258 570 311 646 q 206 372 206 494 q 266 163 206 239 q 428 88 326 88 q 607 160 535 88 l 654 111 q 544 17 613 54 q 393 -19 475 -19 z "},"d":{"ha":853,"x_min":65,"x_max":818,"o":"m 350 -19 q 140 74 214 -19 q 65 331 65 167 q 156 617 65 511 q 404 724 247 724 q 575 678 504 724 l 575 894 q 565 957 575 942 q 515 978 556 972 l 454 988 l 463 1057 l 689 1064 l 704 1049 l 704 136 q 713 91 704 103 q 750 74 721 79 l 818 61 l 818 -4 l 604 -12 l 585 97 l 581 97 q 350 -19 489 -19 m 390 81 q 519 134 464 81 q 575 294 575 188 l 575 574 q 401 631 503 631 q 203 344 203 631 q 248 153 203 225 q 390 81 293 81 z "},"e":{"ha":722,"x_min":65,"x_max":669,"o":"m 397 -19 q 152 83 239 -19 q 65 343 65 185 q 160 621 65 518 q 404 724 254 724 q 588 658 515 724 q 660 478 660 592 q 640 342 660 411 l 206 342 q 268 153 210 222 q 429 83 326 83 q 621 167 540 83 l 669 118 q 555 20 626 60 q 397 -19 483 -19 m 206 419 l 525 419 q 529 483 529 446 q 389 650 529 650 q 206 419 226 650 z "},"f":{"ha":538,"x_min":57,"x_max":629,"o":"m 57 0 l 57 67 l 136 79 q 172 99 164 83 q 179 150 179 115 l 179 617 l 68 617 l 68 686 l 179 700 l 179 757 q 245 999 179 911 q 435 1086 311 1086 q 574 1051 518 1086 q 629 953 629 1015 q 607 888 629 915 q 546 861 585 861 q 469 915 469 861 q 504 997 469 939 q 429 1014 474 1014 q 338 972 367 1014 q 308 832 308 929 l 308 704 l 511 704 l 511 617 l 308 617 l 308 144 q 317 99 308 113 q 353 82 325 86 l 474 67 l 474 0 l 57 0 z "},"g":{"ha":775,"x_min":35,"x_max":774,"o":"m 353 -318 q 35 -147 35 -318 q 161 11 35 -47 l 161 17 q 101 61 121 29 q 81 124 81 93 q 101 197 81 164 q 171 282 121 229 l 171 286 q 68 476 68 339 q 147 657 68 590 q 356 724 226 724 q 536 678 461 724 q 681 808 582 808 q 746 789 718 808 q 774 735 774 769 q 749 681 774 704 q 694 657 725 657 q 639 694 658 657 l 625 724 q 585 636 600 686 q 638 483 638 574 q 560 306 638 371 q 357 242 482 242 q 244 256 290 242 q 200 172 200 206 q 224 128 200 140 q 297 115 247 115 l 475 115 q 656 78 590 115 q 721 -64 721 40 q 619 -256 721 -193 q 353 -318 518 -318 m 354 315 q 467 358 428 315 q 506 479 506 401 q 464 607 506 561 q 346 653 422 653 q 200 483 200 653 q 243 360 200 404 q 354 315 286 315 m 364 -231 q 531 -194 472 -231 q 589 -97 589 -158 q 460 -11 589 -11 l 226 -11 q 163 -126 163 -60 q 210 -207 163 -183 q 364 -231 257 -231 z "},"h":{"ha":919,"x_min":58,"x_max":876,"o":"m 76 0 l 76 65 l 140 78 q 172 97 165 82 q 179 144 179 111 l 179 894 q 169 957 179 942 q 119 978 160 972 l 58 988 l 67 1057 l 293 1064 l 308 1049 l 308 594 q 400 686 338 649 q 540 724 463 724 q 715 658 661 724 q 768 486 768 592 l 768 133 q 776 93 768 104 q 811 76 783 82 l 876 65 l 876 0 l 536 0 l 536 64 l 597 75 q 631 92 624 81 q 639 133 639 103 l 639 446 q 635 516 639 489 q 617 570 631 543 q 575 610 604 597 q 500 624 546 624 q 365 575 421 624 q 308 431 308 526 l 308 139 q 315 96 308 108 q 343 79 321 83 l 417 64 l 417 0 l 76 0 z "},"i":{"ha":463,"x_min":56,"x_max":429,"o":"m 222 861 q 156 887 182 861 q 129 953 129 913 q 156 1019 129 993 q 222 1046 182 1046 q 290 1020 264 1046 q 317 954 317 994 q 290 888 317 914 q 222 861 264 861 m 56 0 l 56 68 l 135 81 q 165 94 156 83 q 176 115 175 104 q 178 151 178 126 l 178 531 q 169 597 178 581 q 128 618 161 614 l 61 628 l 71 697 l 290 708 l 307 701 l 307 146 q 315 100 307 114 q 351 81 324 86 l 429 67 l 429 0 l 56 0 z "},"j":{"ha":429,"x_min":47,"x_max":307,"o":"m 213 861 q 146 887 172 861 q 119 953 119 913 q 146 1019 119 993 q 213 1046 172 1046 q 281 1020 254 1046 q 307 954 307 994 q 281 888 307 914 q 213 861 254 861 m 86 -318 l 47 -261 q 141 -137 114 -208 q 168 39 168 -67 l 168 531 q 160 597 168 581 q 118 618 151 614 l 51 628 l 63 697 l 281 708 l 297 701 l 297 132 q 251 -155 297 -57 q 86 -318 206 -253 z "},"k":{"ha":847,"x_min":60,"x_max":858,"o":"m 60 0 l 60 67 l 139 79 q 169 92 160 82 q 181 114 179 103 q 182 150 182 125 l 182 894 q 172 957 182 942 q 122 978 163 972 l 61 988 l 68 1057 l 296 1064 l 311 1049 l 311 144 q 318 99 311 113 q 349 79 325 85 l 399 68 l 399 0 l 60 0 m 733 -12 q 638 10 672 -12 q 556 90 604 32 l 321 369 l 321 381 l 542 579 q 560 613 561 597 q 542 631 558 628 l 479 640 l 492 704 l 803 704 l 803 642 l 763 631 q 665 578 710 615 l 458 403 l 689 140 q 790 82 742 82 q 844 93 811 82 l 858 43 q 733 -12 800 -12 z "},"l":{"ha":463,"x_min":56,"x_max":429,"o":"m 56 0 l 56 68 l 135 81 q 165 94 156 83 q 176 115 175 104 q 178 151 178 126 l 178 893 q 168 956 178 940 q 118 976 158 971 l 57 986 l 65 1057 l 292 1064 l 307 1049 l 307 146 q 315 100 307 114 q 351 81 324 86 l 429 67 l 429 0 l 56 0 z "},"m":{"ha":1347,"x_min":64,"x_max":1304,"o":"m 76 0 l 76 65 l 143 78 q 174 96 168 82 q 179 144 179 110 l 179 536 q 171 601 179 585 q 132 622 163 617 l 64 632 l 74 699 l 267 714 l 283 704 l 293 581 l 297 581 q 392 681 331 638 q 532 724 454 724 q 740 578 697 724 q 834 681 771 638 q 976 724 897 724 q 1144 658 1092 724 q 1196 486 1196 592 l 1196 133 q 1203 93 1196 104 q 1239 76 1211 82 l 1304 65 l 1304 0 l 975 0 l 975 64 l 1025 75 q 1059 92 1051 81 q 1067 133 1067 103 l 1067 446 q 1065 502 1067 479 q 1055 550 1063 525 q 1033 590 1047 575 q 995 614 1019 604 q 936 624 971 624 q 808 575 863 624 q 753 431 753 526 l 753 139 q 758 97 753 108 q 786 79 764 85 l 850 64 l 850 0 l 531 0 l 531 64 l 581 75 q 615 92 607 81 q 622 133 622 103 l 622 446 q 619 516 622 489 q 603 571 615 543 q 563 611 590 599 q 492 624 535 624 q 363 575 418 624 q 308 431 308 526 l 308 139 q 315 96 308 108 q 343 79 321 83 l 406 64 l 406 0 l 76 0 z "},"n":{"ha":919,"x_min":64,"x_max":876,"o":"m 76 0 l 76 65 l 143 78 q 174 96 168 82 q 179 144 179 110 l 179 536 q 171 601 179 585 q 132 622 163 617 l 64 632 l 74 699 l 267 714 l 283 704 l 293 581 l 297 581 q 394 681 331 639 q 540 724 457 724 q 715 658 661 724 q 768 486 768 592 l 768 133 q 776 93 768 104 q 811 76 783 82 l 876 65 l 876 0 l 536 0 l 536 64 l 597 75 q 631 92 624 81 q 639 133 639 103 l 639 446 q 635 516 639 489 q 617 570 631 543 q 575 610 604 597 q 500 624 546 624 q 365 575 421 624 q 308 431 308 526 l 308 139 q 315 96 308 108 q 343 79 321 83 l 417 64 l 417 0 l 76 0 z "},"o":{"ha":815,"x_min":65,"x_max":751,"o":"m 403 -19 q 154 79 243 -19 q 65 336 65 178 q 168 628 65 532 q 422 724 271 724 q 659 632 567 724 q 751 371 751 540 q 654 83 751 186 q 403 -19 557 -19 m 422 67 q 560 136 511 67 q 610 338 610 206 q 553 561 610 481 q 400 642 496 642 q 258 576 310 642 q 206 378 206 511 q 263 151 206 235 q 422 67 319 67 z "},"p":{"ha":858,"x_min":39,"x_max":793,"o":"m 47 -304 l 47 -237 l 114 -226 q 154 -161 154 -219 l 154 533 q 146 601 154 583 q 103 624 138 618 l 39 632 l 50 700 l 240 714 l 260 706 l 268 581 l 272 581 q 373 685 315 646 q 524 724 431 724 q 721 632 649 724 q 793 376 793 540 q 706 83 793 185 q 468 -19 619 -19 q 283 26 354 -19 l 283 -157 q 293 -206 283 -190 q 328 -225 303 -221 l 413 -239 l 413 -304 l 47 -304 m 458 72 q 603 149 554 72 q 653 357 653 226 q 479 625 653 625 q 340 576 397 625 q 283 421 283 528 l 283 132 q 363 88 314 104 q 458 72 413 72 z "},"q":{"ha":835,"x_min":65,"x_max":811,"o":"m 446 -304 l 446 -237 l 531 -224 q 565 -204 556 -219 q 575 -156 575 -189 l 575 99 q 344 -19 486 -19 q 142 74 219 -19 q 65 329 65 167 q 161 620 65 517 q 404 724 257 724 q 603 664 514 724 l 665 724 l 704 713 l 704 -160 q 744 -225 704 -218 l 811 -236 l 811 -304 l 446 -304 m 390 81 q 519 135 464 81 q 575 288 575 189 l 575 575 q 403 632 504 632 q 203 346 203 632 q 249 151 203 221 q 390 81 296 81 z "},"r":{"ha":657,"x_min":64,"x_max":647,"o":"m 76 0 l 76 67 l 143 79 q 173 98 167 83 q 179 146 179 113 l 179 535 q 171 599 179 583 q 132 621 163 615 l 64 631 l 74 699 l 261 714 l 278 704 l 293 579 l 297 579 q 504 724 381 724 q 607 690 567 724 q 647 590 647 656 q 554 481 647 481 q 493 497 514 481 q 472 542 472 514 q 499 622 472 569 q 372 586 436 654 q 308 425 308 518 l 308 143 q 314 99 308 111 q 343 83 319 88 l 463 65 l 463 0 l 76 0 z "},"s":{"ha":628,"x_min":68,"x_max":586,"o":"m 90 -19 l 68 219 l 146 225 q 340 64 203 64 q 435 94 399 64 q 471 181 471 125 q 442 248 471 221 q 371 286 414 275 q 278 313 328 297 q 185 348 228 329 q 113 410 142 367 q 85 515 85 453 q 148 665 85 607 q 324 724 211 724 q 476 676 419 724 l 488 724 l 549 724 l 567 497 l 488 504 q 428 610 474 572 q 326 649 382 649 q 235 623 268 649 q 201 547 201 597 q 241 474 201 501 q 338 431 281 446 q 451 397 394 417 q 547 332 507 378 q 586 211 586 286 q 521 49 586 117 q 338 -19 456 -19 q 164 28 232 -19 l 149 -19 l 90 -19 z "},"t":{"ha":561,"x_min":51,"x_max":554,"o":"m 346 -19 q 203 34 246 -19 q 161 188 161 88 l 161 617 l 51 617 l 51 689 q 163 755 129 694 q 206 936 197 815 l 272 944 l 290 936 l 290 704 l 507 704 l 507 617 l 290 617 l 290 197 q 389 82 290 82 q 522 126 457 82 l 554 76 q 346 -19 461 -19 z "},"u":{"ha":881,"x_min":38,"x_max":839,"o":"m 368 -19 q 146 218 146 -19 l 146 536 q 138 601 146 585 q 99 622 129 617 l 38 632 l 49 699 l 258 714 l 275 704 l 275 258 q 278 188 275 213 q 294 134 282 163 q 334 93 306 106 q 408 81 363 81 q 542 128 488 81 q 596 274 596 176 l 596 536 q 588 601 596 585 q 549 622 579 617 l 486 632 l 497 699 l 708 714 l 725 704 l 725 140 q 733 95 725 107 q 769 78 742 83 l 839 65 l 839 0 l 624 -8 l 604 104 l 600 104 q 498 13 551 46 q 368 -19 444 -19 z "},"v":{"ha":822,"x_min":17,"x_max":806,"o":"m 342 0 l 126 554 q 102 606 111 594 q 65 625 93 618 l 17 636 l 31 704 l 361 704 l 361 640 l 294 631 q 260 612 267 626 q 268 561 254 597 l 429 115 l 436 115 l 596 551 q 601 603 608 588 q 564 626 594 619 l 503 640 l 517 704 l 806 704 l 806 639 l 754 628 q 718 608 729 622 q 690 553 707 594 l 475 0 l 342 0 z "},"w":{"ha":1194,"x_min":10,"x_max":1185,"o":"m 290 0 l 119 554 q 98 605 108 592 q 58 625 88 618 l 10 636 l 24 704 l 350 704 l 350 640 l 283 631 q 251 613 256 626 q 256 561 246 599 l 378 115 l 385 115 l 546 704 l 694 704 l 850 118 l 857 118 l 978 551 q 982 603 989 588 q 946 626 975 619 l 886 640 l 899 704 l 1185 704 l 1185 639 l 1133 628 q 1094 608 1107 622 q 1069 553 1082 594 l 901 0 l 756 0 l 604 572 l 597 572 l 443 0 l 290 0 z "},"x":{"ha":788,"x_min":10,"x_max":783,"o":"m 13 0 l 13 65 l 65 76 q 103 92 89 82 q 151 135 118 101 l 319 343 l 144 560 q 101 606 117 593 q 58 625 86 618 l 10 636 l 24 704 l 357 704 l 357 640 l 301 631 q 293 571 250 624 l 410 425 l 517 565 q 536 597 532 585 q 533 615 540 608 q 506 626 526 621 l 453 640 l 467 704 l 751 704 l 751 639 l 699 628 q 656 610 672 622 q 613 564 639 599 l 456 367 l 635 144 q 731 76 682 85 l 783 68 l 783 0 l 415 0 l 415 65 l 478 74 q 489 135 533 81 l 367 285 l 250 133 q 233 107 238 117 q 235 90 229 97 q 261 78 242 82 l 322 64 l 322 0 l 13 0 z "},"y":{"ha":800,"x_min":14,"x_max":797,"o":"m 157 -318 q 49 -286 85 -318 q 14 -207 14 -254 q 40 -140 14 -165 q 104 -114 67 -114 q 178 -164 172 -114 q 172 -243 179 -179 q 247 -207 217 -244 q 324 -69 278 -169 l 358 10 l 129 554 q 120 574 126 561 q 112 592 114 588 q 105 603 110 596 q 96 613 100 611 q 85 619 92 615 q 68 625 78 622 l 19 636 l 33 704 l 364 704 l 364 640 l 297 631 q 263 612 269 626 q 271 561 257 597 l 425 172 l 432 172 l 586 551 q 592 603 599 588 q 554 626 585 619 l 493 640 l 507 704 l 797 704 l 797 639 l 746 628 q 710 609 721 622 q 681 553 700 596 l 413 -75 q 378 -151 390 -125 q 342 -214 365 -176 q 294 -270 318 -251 q 235 -303 271 -289 q 157 -318 200 -318 z "},"z":{"ha":675,"x_min":51,"x_max":638,"o":"m 51 0 l 51 61 l 467 631 l 304 631 q 194 603 224 631 q 135 479 164 575 l 56 472 l 72 704 l 618 704 l 618 640 l 204 76 l 368 76 q 445 82 418 76 q 494 110 472 88 q 528 160 515 133 q 563 251 540 188 l 638 251 l 618 0 l 51 0 z "},"{":{"ha":517,"x_min":76,"x_max":465,"o":"m 365 -315 q 230 -270 279 -315 q 181 -147 181 -225 q 194 47 181 -107 q 207 253 207 201 q 174 360 207 335 q 76 386 142 385 l 76 465 q 129 469 110 465 q 169 486 149 474 q 198 526 189 499 q 207 599 207 554 q 194 793 207 653 q 181 976 181 933 q 226 1097 181 1053 q 354 1142 272 1142 q 454 1129 407 1142 l 440 1061 q 372 1067 399 1067 q 325 1048 342 1067 q 308 975 308 1029 q 320 804 308 947 q 332 611 332 661 q 319 529 332 563 q 281 476 307 496 q 235 447 256 457 q 179 428 214 438 q 235 406 214 417 q 282 376 257 396 q 319 322 307 356 q 332 242 332 289 q 320 36 332 192 q 308 -143 308 -119 q 328 -219 308 -199 q 385 -240 349 -240 q 451 -235 413 -240 l 465 -303 q 365 -315 419 -315 z "},"|":{"ha":589,"x_min":251,"x_max":338,"o":"m 251 -153 l 251 1114 l 338 1114 l 338 -153 l 251 -153 z "},"}":{"ha":517,"x_min":51,"x_max":440,"o":"m 151 -315 q 51 -303 97 -315 l 65 -235 q 132 -240 104 -240 q 188 -219 168 -240 q 208 -143 208 -199 q 197 36 208 -119 q 185 242 185 192 q 197 322 185 289 q 235 376 210 356 q 281 406 260 396 q 338 428 303 417 q 282 447 303 438 q 235 476 261 457 q 197 529 210 496 q 185 611 185 563 q 197 804 185 661 q 208 975 208 947 q 192 1048 208 1029 q 144 1067 175 1067 q 76 1061 118 1067 l 63 1129 q 163 1142 110 1142 q 290 1097 244 1142 q 336 976 336 1053 q 323 793 336 933 q 310 599 310 653 q 342 491 310 515 q 440 465 374 467 l 440 386 q 342 360 375 385 q 310 253 310 335 q 323 47 310 201 q 336 -147 336 -107 q 287 -270 336 -225 q 151 -315 238 -315 z "},"~":{"ha":808,"x_min":90,"x_max":719,"o":"m 163 332 l 90 358 q 151 460 124 435 q 225 486 178 486 q 406 457 269 486 q 585 428 542 428 q 615 440 603 428 q 647 489 628 453 l 719 463 q 658 359 686 383 q 585 335 629 335 q 406 364 538 335 q 229 393 274 393 q 197 382 208 393 q 163 332 185 371 z "}," ":{"ha":250,"x_min":0,"x_max":0,"o":""},"¡":{"ha":458,"x_min":117,"x_max":313,"o":"m 144 696 q 157 710 144 696 q 214 724 171 724 q 285 697 257 724 q 313 628 313 669 q 285 557 313 585 q 214 529 257 529 q 144 556 171 529 q 117 626 117 583 q 144 696 117 668 m 254 436 l 254 336 q 280 31 254 214 q 306 -197 306 -153 q 278 -265 306 -242 q 208 -287 251 -287 q 144 -265 168 -287 q 119 -199 119 -242 q 148 19 119 -164 q 176 338 176 201 l 176 436 l 254 436 z "},"¢":{"ha":694,"x_min":90,"x_max":642,"o":"m 597 218 l 642 171 q 397 51 553 51 q 343 54 376 51 l 324 -40 l 254 -40 l 276 69 q 138 179 186 101 q 90 368 90 257 q 178 608 90 521 q 404 699 265 696 l 422 789 l 492 789 l 472 693 q 593 637 546 679 q 640 533 640 594 q 620 477 640 500 q 560 454 600 454 q 493 514 493 454 q 525 590 493 538 q 457 619 485 613 l 364 160 q 428 151 393 151 q 597 218 531 151 m 224 393 q 301 190 224 250 l 389 625 q 265 558 307 619 q 224 393 224 497 z "},"£":{"ha":768,"x_min":38,"x_max":708,"o":"m 65 0 l 54 64 q 190 150 150 101 q 231 293 231 199 q 189 433 231 347 l 38 433 l 47 511 l 151 511 q 104 707 104 608 q 190 916 104 839 q 419 993 275 993 q 597 942 529 993 q 665 810 665 890 q 642 745 665 771 q 574 719 619 719 q 492 786 492 719 q 531 881 492 815 q 410 915 478 915 q 244 739 244 915 q 306 511 244 639 l 588 511 l 588 433 l 342 433 q 361 344 360 385 q 334 218 363 281 q 247 113 306 156 l 250 107 l 426 107 q 560 131 525 107 q 633 247 594 156 l 708 247 l 675 0 l 65 0 z "},"¤":{"ha":749,"x_min":76,"x_max":672,"o":"m 629 132 l 510 225 q 372 189 451 189 q 233 222 289 189 l 119 133 l 78 175 l 167 289 q 131 433 131 346 q 167 578 131 521 l 76 694 l 118 736 l 232 646 q 381 688 297 688 q 518 653 458 688 l 631 740 l 672 699 l 585 588 q 619 446 619 531 q 579 290 619 353 l 671 174 l 629 132 m 372 263 q 517 440 517 263 q 378 611 517 611 q 272 567 310 611 q 233 438 233 524 q 270 308 233 354 q 372 263 307 263 z "},"¥":{"ha":826,"x_min":28,"x_max":811,"o":"m 226 0 l 226 67 l 315 76 q 345 93 339 81 q 351 135 351 106 l 351 219 l 125 219 l 133 294 l 351 294 l 351 336 l 318 383 l 125 383 l 133 458 l 265 458 l 140 638 q 109 677 124 665 q 71 694 94 689 l 28 703 l 28 769 l 357 769 l 357 704 l 303 697 q 281 642 249 693 l 436 421 l 442 421 l 599 638 q 579 694 629 683 l 525 706 l 525 769 l 811 769 l 811 706 l 754 697 q 723 681 736 694 q 688 635 710 668 l 567 458 l 707 458 l 707 383 l 517 383 l 488 340 l 488 294 l 707 294 l 707 219 l 488 219 l 488 129 q 494 91 488 101 q 525 76 500 81 l 613 67 l 613 0 l 226 0 z "},"¦":{"ha":589,"x_min":251,"x_max":336,"o":"m 251 600 l 251 1115 l 336 1115 l 336 600 l 251 600 m 251 -153 l 251 401 l 336 401 l 336 -153 l 251 -153 z "},"§":{"ha":858,"x_min":90,"x_max":768,"o":"m 386 -217 q 238 -181 294 -217 q 181 -83 181 -146 q 203 -16 181 -44 q 267 13 226 13 q 343 -42 343 13 q 308 -124 343 -64 q 397 -140 339 -140 q 497 -110 460 -140 q 535 -24 535 -79 q 520 38 535 10 q 467 98 506 67 q 408 144 429 129 q 328 196 386 158 q 240 254 274 229 q 167 317 206 279 q 109 399 128 354 q 90 494 90 443 q 122 604 90 551 q 226 690 154 657 q 213 775 213 729 q 281 931 213 871 q 453 992 349 992 q 593 956 536 992 q 650 858 650 921 q 626 792 650 821 q 564 764 603 764 q 488 818 488 764 q 522 900 488 842 q 447 917 490 917 q 356 888 388 917 q 324 807 324 860 q 338 749 324 778 q 366 702 351 721 q 417 657 381 683 q 473 619 454 631 q 539 578 492 607 q 624 521 592 544 q 694 460 656 497 q 750 380 732 424 q 768 286 768 336 q 735 173 768 229 q 631 83 701 117 q 646 1 646 44 q 574 -156 646 -96 q 386 -217 503 -217 m 596 144 q 654 257 654 188 q 613 355 654 313 q 492 449 572 397 q 444 479 486 453 q 388 515 403 506 q 344 547 374 525 q 294 589 314 569 q 260 629 275 608 q 204 522 204 588 q 249 417 204 463 q 385 313 294 371 q 596 144 547 210 z "},"¨":{"ha":694,"x_min":119,"x_max":572,"o":"m 207 861 q 144 885 169 861 q 119 947 119 910 q 144 1010 119 985 q 207 1035 169 1035 q 272 1010 246 1035 q 297 949 297 986 q 272 886 297 911 q 207 861 246 861 m 547 886 q 535 874 547 886 q 483 861 522 861 q 419 885 444 861 q 394 947 394 910 q 419 1010 394 985 q 483 1035 444 1035 q 547 1010 522 1035 q 572 949 572 986 q 547 886 572 911 z "},"©":{"ha":1104,"x_min":83,"x_max":1021,"o":"m 551 -17 q 204 108 325 -17 q 83 432 83 232 q 219 772 83 644 q 554 899 356 899 q 894 777 767 899 q 1021 451 1021 656 q 892 112 1021 240 q 551 -17 764 -17 m 554 56 q 834 162 731 56 q 938 443 938 268 q 832 724 938 622 q 554 826 726 826 q 278 719 386 826 q 169 433 169 613 q 272 158 169 260 q 554 56 375 56 m 568 147 q 369 231 439 147 q 299 435 299 314 q 372 643 299 565 q 556 721 444 721 q 682 678 632 721 l 689 722 l 732 722 l 763 539 l 707 529 q 649 626 685 597 q 557 656 614 656 q 451 597 492 656 q 411 436 411 539 q 457 281 411 344 q 576 217 503 217 q 661 237 626 217 q 733 300 696 257 l 772 263 q 568 147 685 147 z "},"ª":{"ha":583,"x_min":53,"x_max":576,"o":"m 207 503 q 97 537 142 503 q 53 640 53 571 q 221 789 53 764 q 356 801 267 796 l 356 857 q 328 944 356 918 q 247 969 301 969 q 157 947 186 969 q 183 894 183 908 q 167 859 183 874 q 121 844 151 844 q 58 903 58 844 q 118 992 58 954 q 263 1031 178 1031 q 465 849 465 1031 l 465 625 q 513 578 465 579 q 564 588 535 578 l 576 543 q 464 503 532 503 q 368 579 376 503 q 207 503 314 503 m 246 578 q 321 603 286 578 q 356 679 356 628 l 356 742 q 217 722 265 742 q 168 649 168 701 q 191 596 168 614 q 246 578 214 578 z "},"«":{"ha":671,"x_min":69,"x_max":615,"o":"m 331 76 l 100 310 q 69 369 69 340 q 108 432 69 392 l 329 658 l 372 624 l 201 369 l 372 110 l 331 76 m 574 76 l 343 310 q 313 369 313 340 q 351 432 313 392 l 572 658 l 615 624 l 444 369 l 615 110 l 574 76 z "},"¬":{"ha":808,"x_min":107,"x_max":701,"o":"m 608 214 l 608 422 l 107 422 l 107 510 l 701 510 l 701 214 l 608 214 z "},"­":{"ha":492,"x_min":61,"x_max":432,"o":"m 61 343 l 61 457 l 432 457 l 432 343 l 61 343 z "},"®":{"ha":676,"x_min":83,"x_max":593,"o":"m 338 561 q 149 628 215 561 q 83 804 83 696 q 156 989 83 919 q 339 1058 229 1058 q 524 992 456 1058 q 593 814 593 925 q 522 631 593 701 q 338 561 450 561 m 454 646 q 493 654 478 646 l 493 676 l 481 676 q 449 701 461 676 l 436 736 q 412 783 425 767 q 368 806 399 799 l 368 807 q 428 833 401 813 q 454 893 454 854 q 324 976 454 976 l 210 976 l 204 954 l 226 951 q 244 928 244 950 l 244 701 q 226 676 244 678 l 204 674 l 204 651 l 339 651 l 339 674 l 315 676 q 297 701 297 678 l 297 800 l 317 800 q 372 743 350 800 l 389 699 q 414 658 400 671 q 454 646 428 646 m 297 826 l 297 949 l 321 949 q 399 890 399 949 q 322 826 399 826 l 297 826 z "},"¯":{"ha":694,"x_min":153,"x_max":542,"o":"m 153 882 l 153 983 l 542 983 l 542 882 l 153 882 z "},"°":{"ha":457,"x_min":60,"x_max":397,"o":"m 228 760 q 102 805 144 760 q 60 924 60 850 q 105 1039 60 992 q 232 1086 150 1086 q 354 1042 311 1086 q 397 926 397 999 q 352 807 397 854 q 228 760 307 760 m 231 831 q 294 857 271 831 q 318 924 318 883 q 294 992 318 967 q 226 1017 269 1017 q 163 991 186 1017 q 140 924 140 965 q 163 856 140 882 q 231 831 186 831 z "},"±":{"ha":808,"x_min":107,"x_max":701,"o":"m 353 196 l 353 425 l 107 425 l 107 513 l 353 513 l 353 724 l 446 724 l 446 513 l 701 513 l 701 425 l 446 425 l 446 196 l 353 196 m 107 1 l 107 89 l 701 89 l 701 1 l 107 1 z "},"²":{"ha":551,"x_min":35,"x_max":503,"o":"m 56 519 l 47 583 q 308 844 250 772 q 367 983 367 917 q 334 1066 367 1033 q 246 1099 301 1099 q 144 1064 167 1099 q 172 1010 172 1021 q 156 973 172 989 q 110 957 139 957 q 53 977 72 957 q 35 1029 35 997 q 99 1127 35 1089 q 257 1165 163 1165 q 424 1119 361 1165 q 488 988 488 1072 q 424 842 488 919 q 175 614 360 764 l 310 614 q 392 628 374 614 q 440 711 411 643 l 503 711 l 485 519 l 56 519 z "},"³":{"ha":588,"x_min":35,"x_max":511,"o":"m 275 503 q 35 622 103 503 l 86 665 q 254 585 154 585 q 352 615 318 585 q 386 694 386 646 q 214 813 386 818 l 219 869 q 333 913 294 876 q 372 1001 372 950 q 342 1071 372 1042 q 260 1100 311 1100 q 163 1061 186 1100 q 189 1011 189 1025 q 173 974 189 989 q 128 958 157 958 q 73 978 92 958 q 54 1028 54 997 q 115 1124 54 1083 q 271 1165 176 1165 q 425 1121 364 1165 q 486 1004 486 1076 q 448 910 486 951 q 351 853 410 869 l 351 850 q 511 692 511 824 q 440 556 511 608 q 275 503 369 503 z "},"´":{"ha":694,"x_min":240,"x_max":511,"o":"m 274 806 l 240 840 l 390 1039 q 444 1079 422 1079 q 492 1058 474 1079 q 511 1008 511 1036 q 463 935 511 964 l 274 806 z "},"µ":{"ha":849,"x_min":103,"x_max":828,"o":"m 147 -318 l 131 -311 q 117 6 117 -164 l 103 706 l 231 717 l 247 710 q 232 125 232 458 q 290 92 253 104 q 358 81 328 81 q 499 133 447 81 q 551 274 551 186 l 546 706 l 674 717 l 690 710 q 683 635 690 708 q 671 466 676 563 q 665 265 665 369 q 680 117 665 151 q 754 82 694 82 q 814 93 776 82 l 828 36 q 697 -19 772 -19 q 638 -8 661 -19 q 600 31 614 4 q 581 75 586 57 q 568 129 575 93 l 564 129 q 480 19 535 57 q 363 -19 425 -19 q 232 32 281 -19 l 229 32 q 240 -124 229 -43 q 261 -250 250 -206 l 272 -293 l 147 -318 z "},"¶":{"ha":803,"x_min":97,"x_max":740,"o":"m 396 331 q 176 415 256 331 q 97 650 97 499 q 174 889 97 806 q 401 972 251 972 l 418 972 l 418 331 l 396 331 m 350 -200 l 350 -135 l 461 -125 q 496 -108 486 -124 q 506 -57 506 -92 l 506 972 l 740 972 l 740 907 l 671 899 q 636 880 646 896 q 626 829 626 864 l 626 -200 l 350 -200 z "},"·":{"ha":443,"x_min":115,"x_max":328,"o":"m 221 326 q 145 356 175 326 q 115 431 115 385 q 145 506 115 476 q 221 536 175 536 q 298 507 268 536 q 328 432 328 478 q 298 356 328 386 q 221 326 268 326 z "},"¸":{"ha":694,"x_min":193,"x_max":485,"o":"m 325 -318 q 246 -299 282 -318 q 193 -262 210 -281 l 226 -211 q 315 -242 267 -242 q 365 -226 344 -242 q 385 -182 385 -211 q 315 -129 385 -129 q 274 -133 293 -129 l 263 -104 l 311 18 l 375 18 l 338 -79 q 445 -99 406 -71 q 485 -185 485 -126 q 444 -282 485 -246 q 325 -318 404 -318 z "},"¹":{"ha":449,"x_min":49,"x_max":414,"o":"m 53 519 l 53 576 l 143 590 q 169 603 163 593 q 176 635 176 614 l 176 1013 q 169 1053 176 1043 q 133 1067 163 1063 l 49 1074 l 56 1129 l 282 1161 l 293 1151 l 293 632 q 300 602 293 611 q 328 590 307 593 l 414 576 l 414 519 l 53 519 z "},"º":{"ha":593,"x_min":49,"x_max":544,"o":"m 292 503 q 111 572 174 503 q 49 756 49 642 q 122 963 49 896 q 307 1031 194 1031 q 479 967 414 1031 q 544 781 544 903 q 475 576 544 649 q 292 503 406 503 m 307 569 q 401 618 368 569 q 433 757 433 667 q 395 910 433 854 q 290 967 357 967 q 158 786 158 967 q 197 626 158 683 q 307 569 235 569 z "},"»":{"ha":671,"x_min":56,"x_max":601,"o":"m 99 76 l 56 111 l 226 365 l 56 625 l 97 658 l 328 425 q 358 365 358 394 q 319 303 358 343 l 99 76 m 342 76 l 299 111 l 469 365 l 299 625 l 340 658 l 571 425 q 601 365 601 394 q 563 303 601 343 l 342 76 z "},"¼":{"ha":1331,"x_min":49,"x_max":1275,"o":"m 53 360 l 53 417 l 143 431 q 169 444 163 433 q 176 475 176 454 l 176 853 q 169 893 176 883 q 133 907 163 903 l 49 914 l 56 969 l 282 1001 l 293 992 l 293 472 q 300 442 293 451 q 328 431 307 433 l 414 417 l 414 360 l 53 360 m 286 -19 l 865 992 l 958 992 l 381 -19 l 286 -19 m 828 18 l 819 82 q 1081 343 1022 271 q 1139 482 1139 415 q 1106 565 1139 532 q 1018 597 1074 597 q 917 563 939 597 q 944 508 944 519 q 928 472 944 488 q 882 456 911 456 q 826 476 844 456 q 807 528 807 496 q 871 626 807 588 q 1029 664 935 664 q 1197 617 1133 664 q 1260 486 1260 571 q 1196 340 1260 418 q 947 113 1132 263 l 1082 113 q 1165 127 1146 113 q 1213 210 1183 142 l 1275 210 l 1257 18 l 828 18 z "},"½":{"ha":1342,"x_min":49,"x_max":1268,"o":"m 53 360 l 53 417 l 143 431 q 169 444 163 433 q 176 475 176 454 l 176 853 q 169 893 176 883 q 133 907 163 903 l 49 914 l 56 969 l 282 1001 l 293 992 l 293 472 q 300 442 293 451 q 328 431 307 433 l 414 417 l 414 360 l 53 360 m 288 -19 l 867 992 l 960 992 l 382 -19 l 288 -19 m 1047 0 l 1047 126 l 744 126 l 733 194 l 1032 633 l 1149 647 l 1160 639 l 1160 201 l 1268 201 l 1268 126 l 1160 126 l 1160 0 l 1047 0 m 821 201 l 1047 201 l 1047 538 l 821 201 z "},"¾":{"ha":1342,"x_min":35,"x_max":1322,"o":"m 275 329 q 35 449 103 329 l 86 492 q 254 411 154 411 q 352 442 318 411 q 386 521 386 472 q 214 639 386 644 l 219 696 q 333 740 294 703 q 372 828 372 776 q 342 897 372 868 q 260 926 311 926 q 163 888 186 926 q 189 838 189 851 q 173 800 189 815 q 128 785 157 785 q 73 804 92 785 q 54 854 54 824 q 115 951 54 910 q 271 992 176 992 q 425 947 364 992 q 486 831 486 903 q 448 737 486 778 q 351 679 410 696 l 351 676 q 511 518 511 650 q 440 382 511 435 q 275 329 369 329 m 346 -19 l 925 992 l 1018 992 l 440 -19 l 346 -19 m 1101 0 l 1101 126 l 799 126 l 788 194 l 1086 633 l 1203 647 l 1214 639 l 1214 201 l 1322 201 l 1322 126 l 1214 126 l 1214 0 l 1101 0 m 875 201 l 1101 201 l 1101 538 l 875 201 z "},"¿":{"ha":747,"x_min":258,"x_max":797,"o":"m 478 700 q 492 714 478 700 q 549 728 506 728 q 619 701 592 728 q 647 632 647 674 q 619 561 647 589 q 549 533 592 533 q 478 560 506 533 q 451 631 451 588 q 478 700 451 672 m 589 439 l 589 268 q 573 203 589 235 q 541 152 557 171 q 493 101 525 133 q 442 50 458 68 q 409 -1 426 32 q 392 -69 392 -35 q 433 -170 392 -132 q 543 -208 474 -208 q 676 -156 632 -208 q 632 -69 632 -94 q 657 -24 632 -44 q 715 -3 682 -3 q 797 -86 797 -3 q 715 -225 797 -167 q 524 -283 632 -283 q 331 -222 404 -283 q 258 -57 258 -161 q 294 67 258 11 q 390 185 329 124 q 415 210 397 192 q 441 237 433 229 q 463 260 449 244 q 483 284 476 275 q 497 306 489 293 q 508 330 506 319 q 511 351 511 340 l 511 439 l 589 439 z "},"À":{"ha":1021,"x_min":21,"x_max":1000,"o":"m 622 1044 l 413 1136 q 354 1214 354 1161 q 372 1260 354 1239 q 414 1281 389 1281 q 468 1249 432 1281 l 650 1083 l 622 1044 m 21 0 l 21 67 l 88 78 q 124 97 113 83 q 151 153 135 111 l 444 972 l 592 972 l 882 151 q 906 99 897 111 q 943 81 915 88 l 1000 69 l 1000 0 l 629 0 l 629 67 l 710 76 q 744 95 738 81 q 736 146 750 110 l 676 321 l 304 321 l 246 151 q 240 99 233 115 q 278 76 247 83 l 357 65 l 357 0 l 21 0 m 332 400 l 650 400 l 496 857 l 490 857 l 332 400 z "},"Á":{"ha":1021,"x_min":21,"x_max":1000,"o":"m 414 1044 l 386 1083 l 568 1249 q 622 1281 604 1281 q 665 1260 647 1281 q 682 1214 682 1239 q 624 1136 682 1161 l 414 1044 m 21 0 l 21 67 l 88 78 q 124 97 113 83 q 151 153 135 111 l 444 972 l 592 972 l 882 151 q 906 99 897 111 q 943 81 915 88 l 1000 69 l 1000 0 l 629 0 l 629 67 l 710 76 q 744 95 738 81 q 736 146 750 110 l 676 321 l 304 321 l 246 151 q 240 99 233 115 q 278 76 247 83 l 357 65 l 357 0 l 21 0 m 332 400 l 650 400 l 496 857 l 490 857 l 332 400 z "},"Â":{"ha":1021,"x_min":21,"x_max":1000,"o":"m 325 1042 l 292 1076 l 465 1267 q 519 1297 493 1297 q 576 1258 539 1297 l 744 1078 l 710 1042 l 519 1158 l 325 1042 m 21 0 l 21 67 l 88 78 q 124 97 113 83 q 151 153 135 111 l 444 972 l 592 972 l 882 151 q 906 99 897 111 q 943 81 915 88 l 1000 69 l 1000 0 l 629 0 l 629 67 l 710 76 q 744 95 738 81 q 736 146 750 110 l 676 321 l 304 321 l 246 151 q 240 99 233 115 q 278 76 247 83 l 357 65 l 357 0 l 21 0 m 332 400 l 650 400 l 496 857 l 490 857 l 332 400 z "},"Ã":{"ha":1021,"x_min":21,"x_max":1000,"o":"m 625 1079 q 497 1113 575 1079 q 396 1146 417 1146 q 364 1137 376 1146 q 331 1096 351 1128 l 288 1122 q 350 1226 324 1200 q 417 1253 376 1253 q 540 1217 453 1253 q 646 1183 621 1183 q 670 1190 660 1183 q 686 1205 681 1197 q 707 1235 692 1213 l 750 1208 q 689 1107 715 1135 q 625 1079 663 1079 m 21 0 l 21 67 l 88 78 q 124 97 113 83 q 151 153 135 111 l 444 972 l 592 972 l 882 151 q 906 99 897 111 q 943 81 915 88 l 1000 69 l 1000 0 l 629 0 l 629 67 l 710 76 q 744 95 738 81 q 736 146 750 110 l 676 321 l 304 321 l 246 151 q 240 99 233 115 q 278 76 247 83 l 357 65 l 357 0 l 21 0 m 332 400 l 650 400 l 496 857 l 490 857 l 332 400 z "},"Ä":{"ha":1021,"x_min":21,"x_max":1000,"o":"m 375 1071 q 311 1095 336 1071 q 286 1158 286 1119 q 311 1222 286 1197 q 375 1247 336 1247 q 441 1223 415 1247 q 467 1160 467 1199 q 441 1096 467 1121 q 375 1071 415 1071 m 657 1071 q 592 1095 617 1071 q 567 1158 567 1119 q 592 1222 567 1197 q 657 1247 618 1247 q 722 1223 697 1247 q 747 1160 747 1199 q 722 1096 747 1121 q 657 1071 696 1071 m 21 0 l 21 67 l 88 78 q 124 97 113 83 q 151 153 135 111 l 444 972 l 592 972 l 882 151 q 906 99 897 111 q 943 81 915 88 l 1000 69 l 1000 0 l 629 0 l 629 67 l 710 76 q 744 95 738 81 q 736 146 750 110 l 676 321 l 304 321 l 246 151 q 240 99 233 115 q 278 76 247 83 l 357 65 l 357 0 l 21 0 m 332 400 l 650 400 l 496 857 l 490 857 l 332 400 z "},"Å":{"ha":1021,"x_min":21,"x_max":1000,"o":"m 517 1031 q 401 1069 439 1031 q 364 1176 364 1108 q 404 1280 364 1239 q 519 1321 444 1321 q 631 1283 592 1321 q 669 1179 669 1244 q 629 1072 669 1113 q 517 1031 589 1031 m 518 1096 q 588 1176 588 1096 q 569 1233 588 1211 q 515 1256 551 1256 q 444 1176 444 1256 q 518 1096 444 1096 m 21 0 l 21 67 l 88 78 q 124 97 113 83 q 151 153 135 111 l 444 972 l 592 972 l 882 151 q 906 99 897 111 q 943 81 915 88 l 1000 69 l 1000 0 l 629 0 l 629 67 l 710 76 q 744 95 738 81 q 736 146 750 110 l 676 321 l 304 321 l 246 151 q 240 99 233 115 q 278 76 247 83 l 357 65 l 357 0 l 21 0 m 332 400 l 650 400 l 496 857 l 490 857 l 332 400 z "},"Æ":{"ha":1385,"x_min":21,"x_max":1311,"o":"m 21 0 l 21 67 l 88 78 q 123 97 110 82 q 157 153 136 111 l 522 893 l 433 906 l 433 972 l 1229 972 l 1281 746 l 1208 722 q 1125 865 1167 832 q 982 897 1083 897 l 847 897 l 847 517 l 968 517 q 1002 517 989 517 q 1028 519 1015 517 q 1048 522 1042 522 q 1062 531 1054 522 q 1072 540 1069 539 q 1078 555 1074 540 q 1085 574 1083 569 q 1091 600 1086 578 q 1097 631 1096 622 l 1161 639 l 1161 331 l 1097 319 q 1067 420 1085 403 q 968 438 1050 438 l 847 438 l 847 75 l 1026 75 q 1166 109 1126 75 q 1235 256 1206 143 l 1311 256 l 1278 0 l 586 0 l 586 67 l 667 79 q 702 99 694 83 q 710 150 710 115 l 710 438 l 396 438 l 258 151 q 282 76 226 85 l 361 65 l 361 0 l 21 0 m 435 517 l 710 517 l 711 897 l 618 897 l 435 517 z "},"Ç":{"ha":983,"x_min":82,"x_max":908,"o":"m 547 -19 l 542 -19 l 518 -79 q 626 -99 586 -71 q 665 -185 665 -126 q 625 -282 665 -246 q 506 -318 585 -318 q 426 -299 463 -318 q 374 -262 390 -281 l 407 -211 q 496 -242 447 -242 q 545 -226 525 -242 q 565 -182 565 -211 q 496 -129 565 -129 q 454 -133 472 -129 l 443 -104 l 478 -15 q 256 75 347 0 q 123 256 164 150 q 82 488 82 361 q 206 856 82 719 q 524 992 329 992 q 754 907 669 992 l 768 994 l 836 994 l 890 671 l 815 654 q 706 844 774 785 q 526 904 638 904 q 305 797 379 904 q 231 489 231 689 q 319 194 231 313 q 561 76 407 76 q 722 115 656 76 q 843 232 789 154 l 908 185 q 766 40 858 100 q 547 -19 674 -19 z "},"È":{"ha":885,"x_min":86,"x_max":811,"o":"m 556 1044 l 346 1136 q 288 1214 288 1161 q 305 1260 288 1239 q 347 1281 322 1281 q 401 1249 365 1281 l 583 1083 l 556 1044 m 86 0 l 86 67 l 167 79 q 202 99 194 83 q 210 150 210 115 l 210 828 q 201 875 210 863 q 164 893 193 888 l 86 906 l 86 972 l 729 972 l 781 746 l 708 722 q 625 865 667 832 q 482 897 583 897 l 347 897 l 347 538 l 468 538 q 502 538 489 538 q 528 540 515 538 q 548 543 542 543 q 562 551 554 543 q 572 560 569 560 q 578 576 574 561 q 585 594 583 590 q 591 621 586 599 q 597 651 596 643 l 661 660 l 661 344 l 597 333 q 567 434 585 417 q 468 451 550 451 l 347 451 l 347 75 l 526 75 q 666 109 626 75 q 735 256 706 143 l 811 256 l 778 0 l 86 0 z "},"É":{"ha":885,"x_min":86,"x_max":811,"o":"m 347 1044 l 319 1083 l 501 1249 q 556 1281 538 1281 q 598 1260 581 1281 q 615 1214 615 1239 q 557 1136 615 1161 l 347 1044 m 86 0 l 86 67 l 167 79 q 202 99 194 83 q 210 150 210 115 l 210 828 q 201 875 210 863 q 164 893 193 888 l 86 906 l 86 972 l 729 972 l 781 746 l 708 722 q 625 865 667 832 q 482 897 583 897 l 347 897 l 347 538 l 468 538 q 502 538 489 538 q 528 540 515 538 q 548 543 542 543 q 562 551 554 543 q 572 560 569 560 q 578 576 574 561 q 585 594 583 590 q 591 621 586 599 q 597 651 596 643 l 661 660 l 661 344 l 597 333 q 567 434 585 417 q 468 451 550 451 l 347 451 l 347 75 l 526 75 q 666 109 626 75 q 735 256 706 143 l 811 256 l 778 0 l 86 0 z "},"Ê":{"ha":885,"x_min":86,"x_max":811,"o":"m 258 1042 l 225 1076 l 399 1267 q 453 1297 426 1297 q 510 1258 472 1297 l 678 1078 l 643 1042 l 453 1158 l 258 1042 m 86 0 l 86 67 l 167 79 q 202 99 194 83 q 210 150 210 115 l 210 828 q 201 875 210 863 q 164 893 193 888 l 86 906 l 86 972 l 729 972 l 781 746 l 708 722 q 625 865 667 832 q 482 897 583 897 l 347 897 l 347 538 l 468 538 q 502 538 489 538 q 528 540 515 538 q 548 543 542 543 q 562 551 554 543 q 572 560 569 560 q 578 576 574 561 q 585 594 583 590 q 591 621 586 599 q 597 651 596 643 l 661 660 l 661 344 l 597 333 q 567 434 585 417 q 468 451 550 451 l 347 451 l 347 75 l 526 75 q 666 109 626 75 q 735 256 706 143 l 811 256 l 778 0 l 86 0 z "},"Ë":{"ha":885,"x_min":86,"x_max":811,"o":"m 308 1071 q 244 1095 269 1071 q 219 1158 219 1119 q 244 1222 219 1197 q 308 1247 269 1247 q 374 1223 349 1247 q 400 1160 400 1199 q 374 1096 400 1121 q 308 1071 349 1071 m 590 1071 q 525 1095 550 1071 q 500 1158 500 1119 q 526 1222 500 1197 q 590 1247 551 1247 q 656 1223 631 1247 q 681 1160 681 1199 q 655 1096 681 1121 q 590 1071 629 1071 m 86 0 l 86 67 l 167 79 q 202 99 194 83 q 210 150 210 115 l 210 828 q 201 875 210 863 q 164 893 193 888 l 86 906 l 86 972 l 729 972 l 781 746 l 708 722 q 625 865 667 832 q 482 897 583 897 l 347 897 l 347 538 l 468 538 q 502 538 489 538 q 528 540 515 538 q 548 543 542 543 q 562 551 554 543 q 572 560 569 560 q 578 576 574 561 q 585 594 583 590 q 591 621 586 599 q 597 651 596 643 l 661 660 l 661 344 l 597 333 q 567 434 585 417 q 468 451 550 451 l 347 451 l 347 75 l 526 75 q 666 109 626 75 q 735 256 706 143 l 811 256 l 778 0 l 86 0 z "},"Ì":{"ha":557,"x_min":81,"x_max":476,"o":"m 382 1044 l 172 1136 q 114 1214 114 1161 q 131 1260 114 1239 q 174 1281 149 1281 q 228 1249 192 1281 l 410 1083 l 382 1044 m 81 0 l 81 67 l 167 79 q 202 99 194 83 q 210 150 210 115 l 210 828 q 201 875 210 863 q 164 893 193 888 l 81 906 l 81 972 l 476 972 l 476 906 l 389 893 q 355 873 363 889 q 347 822 347 857 l 347 144 q 355 97 347 110 q 392 79 363 85 l 476 67 l 476 0 l 81 0 z "},"Í":{"ha":557,"x_min":81,"x_max":476,"o":"m 174 1044 l 146 1083 l 328 1249 q 382 1281 364 1281 q 424 1260 407 1281 q 442 1214 442 1239 q 383 1136 442 1161 l 174 1044 m 81 0 l 81 67 l 167 79 q 202 99 194 83 q 210 150 210 115 l 210 828 q 201 875 210 863 q 164 893 193 888 l 81 906 l 81 972 l 476 972 l 476 906 l 389 893 q 355 873 363 889 q 347 822 347 857 l 347 144 q 355 97 347 110 q 392 79 363 85 l 476 67 l 476 0 l 81 0 z "},"Î":{"ha":557,"x_min":51,"x_max":504,"o":"m 85 1042 l 51 1076 l 225 1267 q 279 1297 253 1297 q 336 1258 299 1297 l 504 1078 l 469 1042 l 279 1158 l 85 1042 m 81 0 l 81 67 l 167 79 q 202 99 194 83 q 210 150 210 115 l 210 828 q 201 875 210 863 q 164 893 193 888 l 81 906 l 81 972 l 476 972 l 476 906 l 389 893 q 355 873 363 889 q 347 822 347 857 l 347 144 q 355 97 347 110 q 392 79 363 85 l 476 67 l 476 0 l 81 0 z "},"Ï":{"ha":557,"x_min":46,"x_max":507,"o":"m 135 1071 q 71 1095 96 1071 q 46 1158 46 1119 q 71 1222 46 1197 q 135 1247 96 1247 q 201 1223 175 1247 q 226 1160 226 1199 q 201 1096 226 1121 q 135 1071 175 1071 m 417 1071 q 351 1095 376 1071 q 326 1158 326 1119 q 352 1222 326 1197 q 417 1247 378 1247 q 482 1223 457 1247 q 507 1160 507 1199 q 481 1096 507 1121 q 417 1071 456 1071 m 81 0 l 81 67 l 167 79 q 202 99 194 83 q 210 150 210 115 l 210 828 q 201 875 210 863 q 164 893 193 888 l 81 906 l 81 972 l 476 972 l 476 906 l 389 893 q 355 873 363 889 q 347 822 347 857 l 347 144 q 355 97 347 110 q 392 79 363 85 l 476 67 l 476 0 l 81 0 z "},"Ð":{"ha":1076,"x_min":57,"x_max":993,"o":"m 485 972 q 857 860 721 972 q 993 517 993 747 q 850 139 993 278 q 446 0 707 0 l 86 0 l 86 67 l 167 79 q 202 99 194 83 q 210 150 210 115 l 210 458 l 57 458 l 68 546 l 210 546 l 210 828 q 201 875 210 863 q 164 893 193 888 l 86 906 l 86 972 l 485 972 m 447 76 q 748 181 651 76 q 844 506 844 286 q 750 797 844 697 q 474 897 656 897 l 347 897 l 347 546 l 613 546 l 613 458 l 347 458 l 347 83 q 447 76 386 76 z "},"Ñ":{"ha":1144,"x_min":88,"x_max":1075,"o":"m 681 1079 q 553 1113 631 1079 q 451 1146 472 1146 q 419 1137 432 1146 q 386 1096 407 1128 l 343 1122 q 406 1226 379 1200 q 472 1253 432 1253 q 596 1217 508 1253 q 701 1183 676 1183 q 726 1190 715 1183 q 742 1205 736 1197 q 763 1235 747 1213 l 806 1208 q 744 1107 771 1135 q 681 1079 718 1079 m 88 0 l 88 67 l 168 79 q 202 99 194 83 q 210 150 210 115 l 210 828 q 202 875 210 863 q 165 893 194 888 l 88 906 l 88 972 l 396 972 l 857 179 l 857 828 q 849 875 857 863 q 811 893 840 888 l 735 906 l 735 972 l 1075 972 l 1075 906 l 996 893 q 960 873 968 889 q 953 822 953 857 l 953 0 l 810 0 l 307 846 l 307 144 q 315 97 307 110 q 351 79 322 85 l 429 67 l 429 0 l 88 0 z "},"Ò":{"ha":1082,"x_min":82,"x_max":999,"o":"m 647 1044 l 438 1136 q 379 1214 379 1161 q 397 1260 379 1239 q 439 1281 414 1281 q 493 1249 457 1281 l 675 1083 l 647 1044 m 538 -19 q 205 117 328 -19 q 82 467 82 253 q 108 665 82 576 q 178 814 133 754 q 283 915 222 874 q 410 974 343 956 q 550 992 476 992 q 870 866 742 992 q 999 511 999 740 q 867 122 999 264 q 538 -19 736 -19 m 554 74 q 770 176 693 74 q 847 485 847 278 q 762 794 847 686 q 532 903 676 903 q 312 803 394 903 q 229 496 229 703 q 317 188 229 301 q 554 74 404 74 z "},"Ó":{"ha":1082,"x_min":82,"x_max":999,"o":"m 439 1044 l 411 1083 l 593 1249 q 647 1281 629 1281 q 690 1260 672 1281 q 707 1214 707 1239 q 649 1136 707 1161 l 439 1044 m 538 -19 q 205 117 328 -19 q 82 467 82 253 q 108 665 82 576 q 178 814 133 754 q 283 915 222 874 q 410 974 343 956 q 550 992 476 992 q 870 866 742 992 q 999 511 999 740 q 867 122 999 264 q 538 -19 736 -19 m 554 74 q 770 176 693 74 q 847 485 847 278 q 762 794 847 686 q 532 903 676 903 q 312 803 394 903 q 229 496 229 703 q 317 188 229 301 q 554 74 404 74 z "},"Ô":{"ha":1082,"x_min":82,"x_max":999,"o":"m 350 1042 l 317 1076 l 490 1267 q 544 1297 518 1297 q 601 1258 564 1297 l 769 1078 l 735 1042 l 544 1158 l 350 1042 m 538 -19 q 205 117 328 -19 q 82 467 82 253 q 108 665 82 576 q 178 814 133 754 q 283 915 222 874 q 410 974 343 956 q 550 992 476 992 q 870 866 742 992 q 999 511 999 740 q 867 122 999 264 q 538 -19 736 -19 m 554 74 q 770 176 693 74 q 847 485 847 278 q 762 794 847 686 q 532 903 676 903 q 312 803 394 903 q 229 496 229 703 q 317 188 229 301 q 554 74 404 74 z "},"Õ":{"ha":1082,"x_min":82,"x_max":999,"o":"m 650 1079 q 522 1113 600 1079 q 421 1146 442 1146 q 389 1137 401 1146 q 356 1096 376 1128 l 313 1122 q 375 1226 349 1200 q 442 1253 401 1253 q 565 1217 478 1253 q 671 1183 646 1183 q 695 1190 685 1183 q 711 1205 706 1197 q 732 1235 717 1213 l 775 1208 q 714 1107 740 1135 q 650 1079 688 1079 m 538 -19 q 205 117 328 -19 q 82 467 82 253 q 108 665 82 576 q 178 814 133 754 q 283 915 222 874 q 410 974 343 956 q 550 992 476 992 q 870 866 742 992 q 999 511 999 740 q 867 122 999 264 q 538 -19 736 -19 m 554 74 q 770 176 693 74 q 847 485 847 278 q 762 794 847 686 q 532 903 676 903 q 312 803 394 903 q 229 496 229 703 q 317 188 229 301 q 554 74 404 74 z "},"Ö":{"ha":1082,"x_min":82,"x_max":999,"o":"m 400 1071 q 336 1095 361 1071 q 311 1158 311 1119 q 336 1222 311 1197 q 400 1247 361 1247 q 466 1223 440 1247 q 492 1160 492 1199 q 466 1096 492 1121 q 400 1071 440 1071 m 682 1071 q 617 1095 642 1071 q 592 1158 592 1119 q 617 1222 592 1197 q 682 1247 643 1247 q 747 1223 722 1247 q 772 1160 772 1199 q 747 1096 772 1121 q 682 1071 721 1071 m 538 -19 q 205 117 328 -19 q 82 467 82 253 q 108 665 82 576 q 178 814 133 754 q 283 915 222 874 q 410 974 343 956 q 550 992 476 992 q 870 866 742 992 q 999 511 999 740 q 867 122 999 264 q 538 -19 736 -19 m 554 74 q 770 176 693 74 q 847 485 847 278 q 762 794 847 686 q 532 903 676 903 q 312 803 394 903 q 229 496 229 703 q 317 188 229 301 q 554 74 404 74 z "},"×":{"ha":808,"x_min":151,"x_max":657,"o":"m 596 171 l 403 365 l 211 175 l 153 233 l 343 426 l 151 615 l 214 674 l 403 486 l 599 682 l 657 621 l 463 425 l 657 232 l 596 171 z "},"Ø":{"ha":1082,"x_min":50,"x_max":1003,"o":"m 1003 992 l 885 850 q 999 511 999 722 q 867 122 999 264 q 538 -19 736 -19 q 243 79 364 -19 l 161 -19 l 50 -19 l 183 142 q 82 467 82 274 q 108 665 82 576 q 178 814 133 754 q 283 915 222 874 q 410 974 343 956 q 550 992 476 992 q 822 908 708 992 l 892 992 l 1003 992 m 229 496 q 276 253 229 356 l 744 815 q 532 903 663 903 q 312 803 394 903 q 229 496 229 703 m 847 485 q 794 742 847 643 l 325 178 q 554 74 411 74 q 770 176 693 74 q 847 485 847 278 z "},"Ù":{"ha":1125,"x_min":68,"x_max":1063,"o":"m 682 1044 l 472 1136 q 414 1214 414 1161 q 431 1260 414 1239 q 474 1281 449 1281 q 528 1249 492 1281 l 710 1083 l 682 1044 m 561 -19 q 276 83 360 -19 q 192 368 192 185 l 192 828 q 183 875 192 863 q 146 893 175 888 l 68 906 l 68 972 l 451 972 l 451 906 l 371 893 q 337 873 344 889 q 329 822 329 857 l 329 378 q 387 149 329 221 q 581 78 444 78 q 776 150 710 78 q 843 388 843 222 l 843 828 q 835 875 843 863 q 797 893 826 888 l 721 906 l 721 972 l 1063 972 l 1063 906 l 983 893 q 948 873 956 889 q 940 822 940 857 l 940 404 q 561 -19 940 -19 z "},"Ú":{"ha":1125,"x_min":68,"x_max":1063,"o":"m 474 1044 l 446 1083 l 628 1249 q 682 1281 664 1281 q 724 1260 707 1281 q 742 1214 742 1239 q 683 1136 742 1161 l 474 1044 m 561 -19 q 276 83 360 -19 q 192 368 192 185 l 192 828 q 183 875 192 863 q 146 893 175 888 l 68 906 l 68 972 l 451 972 l 451 906 l 371 893 q 337 873 344 889 q 329 822 329 857 l 329 378 q 387 149 329 221 q 581 78 444 78 q 776 150 710 78 q 843 388 843 222 l 843 828 q 835 875 843 863 q 797 893 826 888 l 721 906 l 721 972 l 1063 972 l 1063 906 l 983 893 q 948 873 956 889 q 940 822 940 857 l 940 404 q 561 -19 940 -19 z "},"Û":{"ha":1125,"x_min":68,"x_max":1063,"o":"m 385 1042 l 351 1076 l 525 1267 q 579 1297 553 1297 q 636 1258 599 1297 l 804 1078 l 769 1042 l 579 1158 l 385 1042 m 561 -19 q 276 83 360 -19 q 192 368 192 185 l 192 828 q 183 875 192 863 q 146 893 175 888 l 68 906 l 68 972 l 451 972 l 451 906 l 371 893 q 337 873 344 889 q 329 822 329 857 l 329 378 q 387 149 329 221 q 581 78 444 78 q 776 150 710 78 q 843 388 843 222 l 843 828 q 835 875 843 863 q 797 893 826 888 l 721 906 l 721 972 l 1063 972 l 1063 906 l 983 893 q 948 873 956 889 q 940 822 940 857 l 940 404 q 561 -19 940 -19 z "},"Ü":{"ha":1125,"x_min":68,"x_max":1063,"o":"m 435 1071 q 371 1095 396 1071 q 346 1158 346 1119 q 371 1222 346 1197 q 435 1247 396 1247 q 501 1223 475 1247 q 526 1160 526 1199 q 501 1096 526 1121 q 435 1071 475 1071 m 717 1071 q 651 1095 676 1071 q 626 1158 626 1119 q 652 1222 626 1197 q 717 1247 678 1247 q 782 1223 757 1247 q 807 1160 807 1199 q 781 1096 807 1121 q 717 1071 756 1071 m 561 -19 q 276 83 360 -19 q 192 368 192 185 l 192 828 q 183 875 192 863 q 146 893 175 888 l 68 906 l 68 972 l 451 972 l 451 906 l 371 893 q 337 873 344 889 q 329 822 329 857 l 329 378 q 387 149 329 221 q 581 78 444 78 q 776 150 710 78 q 843 388 843 222 l 843 828 q 835 875 843 863 q 797 893 826 888 l 721 906 l 721 972 l 1063 972 l 1063 906 l 983 893 q 948 873 956 889 q 940 822 940 857 l 940 404 q 561 -19 940 -19 z "},"Ý":{"ha":983,"x_min":25,"x_max":958,"o":"m 411 1044 l 383 1083 l 565 1249 q 619 1281 601 1281 q 662 1260 644 1281 q 679 1214 679 1239 q 621 1136 679 1161 l 411 1044 m 290 0 l 290 67 l 376 79 q 412 99 404 83 q 419 150 419 115 l 419 407 l 160 821 q 122 872 138 857 q 76 892 106 886 l 25 901 l 25 972 l 413 972 l 413 906 l 336 896 q 298 876 306 893 q 310 826 290 858 l 513 497 l 519 497 l 711 821 q 688 892 751 878 l 624 907 l 624 972 l 958 972 l 958 906 l 890 894 q 852 875 867 890 q 811 818 838 860 l 557 406 l 557 144 q 565 97 557 110 q 601 79 572 85 l 686 67 l 686 0 l 290 0 z "},"Þ":{"ha":847,"x_min":106,"x_max":821,"o":"m 106 0 l 106 67 l 186 79 q 222 99 214 83 q 229 150 229 115 l 229 822 q 222 873 229 857 q 186 893 214 889 l 106 906 l 106 972 l 515 972 l 515 906 l 418 894 q 376 876 386 890 q 367 825 367 861 l 367 776 l 447 776 q 821 511 821 776 q 789 368 821 429 q 705 274 757 307 q 595 226 653 242 q 476 210 538 210 l 367 210 l 367 147 q 376 97 367 111 q 418 78 386 82 l 515 67 l 515 0 l 106 0 m 367 285 l 447 285 q 672 507 672 285 q 612 659 672 617 q 438 701 551 701 l 367 701 l 367 285 z "},"ß":{"ha":940,"x_min":57,"x_max":906,"o":"m 424 -19 l 401 219 l 479 225 q 664 64 536 64 q 756 94 722 64 q 790 181 790 125 q 758 262 790 229 q 678 315 725 294 q 585 358 632 335 q 506 424 539 381 q 474 532 474 468 q 499 628 474 581 q 556 707 525 675 q 612 788 586 739 q 638 889 638 838 q 489 1011 638 1011 q 358 968 408 1011 q 308 832 308 925 l 308 0 l 57 0 l 57 67 l 136 79 q 172 99 164 83 q 179 150 179 115 l 179 617 l 68 617 l 68 686 l 179 700 l 179 757 q 265 997 179 908 q 500 1086 350 1086 q 681 1043 610 1086 q 753 904 753 1000 q 729 812 753 858 q 677 733 706 765 q 625 656 649 700 q 601 572 601 613 q 633 498 601 529 q 709 445 664 467 q 799 399 754 424 q 874 326 843 374 q 906 211 906 278 q 842 48 906 115 q 661 -19 778 -19 q 497 32 571 -19 l 482 -19 l 424 -19 z "},"à":{"ha":749,"x_min":72,"x_max":742,"o":"m 419 806 l 235 933 q 186 1007 186 967 q 205 1056 186 1035 q 253 1078 224 1078 q 307 1038 275 1078 l 453 840 l 419 806 m 267 -19 q 131 26 189 -19 q 72 168 72 72 q 128 310 72 257 q 288 378 185 363 q 471 394 363 389 l 471 489 q 433 615 471 578 q 321 653 394 653 q 244 640 279 653 q 193 611 208 628 q 229 533 229 550 q 208 490 229 508 q 154 471 188 471 q 75 543 75 471 q 156 670 75 617 q 340 724 236 724 q 531 668 461 724 q 600 474 600 613 l 600 139 q 728 89 600 53 l 742 36 q 614 -19 683 -19 q 482 104 494 -19 q 267 -19 404 -19 m 319 76 q 422 112 374 76 q 471 224 471 147 l 471 322 q 336 310 411 322 q 237 265 267 300 q 207 183 207 229 q 239 103 207 129 q 319 76 271 76 z "},"á":{"ha":749,"x_min":72,"x_max":742,"o":"m 271 806 l 238 840 l 388 1039 q 442 1079 419 1079 q 490 1058 471 1079 q 508 1008 508 1036 q 460 935 508 964 l 271 806 m 267 -19 q 131 26 189 -19 q 72 168 72 72 q 128 310 72 257 q 288 378 185 363 q 471 394 363 389 l 471 489 q 433 615 471 578 q 321 653 394 653 q 244 640 279 653 q 193 611 208 628 q 229 533 229 550 q 208 490 229 508 q 154 471 188 471 q 75 543 75 471 q 156 670 75 617 q 340 724 236 724 q 531 668 461 724 q 600 474 600 613 l 600 139 q 728 89 600 53 l 742 36 q 614 -19 683 -19 q 482 104 494 -19 q 267 -19 404 -19 m 319 76 q 422 112 374 76 q 471 224 471 147 l 471 322 q 336 310 411 322 q 237 265 267 300 q 207 183 207 229 q 239 103 207 129 q 319 76 271 76 z "},"â":{"ha":749,"x_min":72,"x_max":742,"o":"m 171 806 l 135 840 l 293 1051 q 347 1082 318 1082 q 404 1043 375 1082 l 556 842 l 518 806 l 347 944 l 171 806 m 267 -19 q 131 26 189 -19 q 72 168 72 72 q 128 310 72 257 q 288 378 185 363 q 471 394 363 389 l 471 489 q 433 615 471 578 q 321 653 394 653 q 244 640 279 653 q 193 611 208 628 q 229 533 229 550 q 208 490 229 508 q 154 471 188 471 q 75 543 75 471 q 156 670 75 617 q 340 724 236 724 q 531 668 461 724 q 600 474 600 613 l 600 139 q 728 89 600 53 l 742 36 q 614 -19 683 -19 q 482 104 494 -19 q 267 -19 404 -19 m 319 76 q 422 112 374 76 q 471 224 471 147 l 471 322 q 336 310 411 322 q 237 265 267 300 q 207 183 207 229 q 239 103 207 129 q 319 76 271 76 z "},"ã":{"ha":749,"x_min":72,"x_max":742,"o":"m 447 861 q 322 894 400 861 q 225 929 239 929 q 194 919 207 929 q 160 878 181 910 l 117 904 q 179 1006 153 981 q 246 1031 206 1031 q 365 997 285 1031 q 468 964 446 964 q 492 971 482 964 q 508 985 503 978 q 529 1015 514 993 l 572 989 q 512 889 538 917 q 447 861 486 861 m 267 -19 q 131 26 189 -19 q 72 168 72 72 q 128 310 72 257 q 288 378 185 363 q 471 394 363 389 l 471 489 q 433 615 471 578 q 321 653 394 653 q 244 640 279 653 q 193 611 208 628 q 229 533 229 550 q 208 490 229 508 q 154 471 188 471 q 75 543 75 471 q 156 670 75 617 q 340 724 236 724 q 531 668 461 724 q 600 474 600 613 l 600 139 q 728 89 600 53 l 742 36 q 614 -19 683 -19 q 482 104 494 -19 q 267 -19 404 -19 m 319 76 q 422 112 374 76 q 471 224 471 147 l 471 322 q 336 310 411 322 q 237 265 267 300 q 207 183 207 229 q 239 103 207 129 q 319 76 271 76 z "},"ä":{"ha":749,"x_min":72,"x_max":742,"o":"m 204 861 q 142 885 167 861 q 117 947 117 910 q 142 1010 117 985 q 204 1035 167 1035 q 269 1010 243 1035 q 294 949 294 986 q 269 886 294 911 q 204 861 243 861 m 544 886 q 532 874 544 886 q 481 861 519 861 q 417 885 442 861 q 392 947 392 910 q 417 1010 392 985 q 481 1035 442 1035 q 544 1010 519 1035 q 569 949 569 986 q 544 886 569 911 m 267 -19 q 131 26 189 -19 q 72 168 72 72 q 128 310 72 257 q 288 378 185 363 q 471 394 363 389 l 471 489 q 433 615 471 578 q 321 653 394 653 q 244 640 279 653 q 193 611 208 628 q 229 533 229 550 q 208 490 229 508 q 154 471 188 471 q 75 543 75 471 q 156 670 75 617 q 340 724 236 724 q 531 668 461 724 q 600 474 600 613 l 600 139 q 728 89 600 53 l 742 36 q 614 -19 683 -19 q 482 104 494 -19 q 267 -19 404 -19 m 319 76 q 422 112 374 76 q 471 224 471 147 l 471 322 q 336 310 411 322 q 237 265 267 300 q 207 183 207 229 q 239 103 207 129 q 319 76 271 76 z "},"å":{"ha":749,"x_min":72,"x_max":742,"o":"m 344 808 q 232 847 269 808 q 194 951 194 885 q 234 1053 194 1013 q 347 1093 274 1093 q 456 1056 418 1093 q 494 954 494 1018 q 455 848 494 888 q 344 808 415 808 m 346 874 q 413 951 413 874 q 395 1007 413 985 q 343 1029 378 1029 q 292 1007 308 1029 q 275 951 275 985 q 292 896 275 918 q 346 874 310 874 m 267 -19 q 131 26 189 -19 q 72 168 72 72 q 128 310 72 257 q 288 378 185 363 q 471 394 363 389 l 471 489 q 433 615 471 578 q 321 653 394 653 q 244 640 279 653 q 193 611 208 628 q 229 533 229 550 q 208 490 229 508 q 154 471 188 471 q 75 543 75 471 q 156 670 75 617 q 340 724 236 724 q 531 668 461 724 q 600 474 600 613 l 600 139 q 728 89 600 53 l 742 36 q 614 -19 683 -19 q 482 104 494 -19 q 267 -19 404 -19 m 319 76 q 422 112 374 76 q 471 224 471 147 l 471 322 q 336 310 411 322 q 237 265 267 300 q 207 183 207 229 q 239 103 207 129 q 319 76 271 76 z "},"æ":{"ha":1124,"x_min":72,"x_max":1064,"o":"m 267 -19 q 131 26 189 -19 q 72 168 72 72 q 128 310 72 257 q 288 378 185 363 q 471 394 363 389 l 471 489 q 433 615 471 578 q 321 653 394 653 q 244 640 279 653 q 193 611 208 628 q 229 533 229 550 q 208 490 229 508 q 154 471 188 471 q 75 543 75 471 q 156 670 75 617 q 340 724 236 724 q 561 631 501 724 q 799 724 654 724 q 982 658 910 724 q 1054 478 1054 592 q 1035 342 1054 411 l 600 342 q 663 153 604 222 q 824 83 721 83 q 1015 167 935 83 l 1064 118 q 949 20 1021 60 q 792 -19 878 -19 q 518 122 607 -19 q 267 -19 442 -19 m 600 419 l 919 419 q 924 483 924 446 q 783 650 924 650 q 600 419 621 650 m 319 76 q 422 114 372 76 q 471 228 471 151 l 471 322 q 336 310 411 322 q 237 265 267 300 q 207 183 207 229 q 239 103 207 129 q 319 76 271 76 z "},"ç":{"ha":694,"x_min":65,"x_max":654,"o":"m 393 -19 l 390 -19 l 367 -79 q 474 -99 435 -71 q 514 -185 514 -126 q 474 -282 514 -246 q 354 -318 433 -318 q 275 -299 311 -318 q 222 -262 239 -281 l 256 -211 q 344 -242 296 -242 q 394 -226 374 -242 q 414 -182 414 -211 q 344 -129 414 -129 q 303 -133 322 -129 l 292 -104 l 328 -14 q 133 104 200 7 q 65 343 65 201 q 160 621 65 518 q 404 724 254 724 q 581 672 510 724 q 653 542 653 621 q 630 477 653 503 q 561 451 607 451 q 479 518 479 451 q 518 613 479 547 q 393 646 465 646 q 258 570 311 646 q 206 372 206 494 q 266 163 206 239 q 428 88 326 88 q 607 160 535 88 l 654 111 q 544 17 613 54 q 393 -19 475 -19 z "},"è":{"ha":722,"x_min":65,"x_max":669,"o":"m 463 806 l 278 933 q 229 1007 229 967 q 248 1056 229 1035 q 296 1078 267 1078 q 350 1038 318 1078 l 496 840 l 463 806 m 397 -19 q 152 83 239 -19 q 65 343 65 185 q 160 621 65 518 q 404 724 254 724 q 588 658 515 724 q 660 478 660 592 q 640 342 660 411 l 206 342 q 268 153 210 222 q 429 83 326 83 q 621 167 540 83 l 669 118 q 555 20 626 60 q 397 -19 483 -19 m 206 419 l 525 419 q 529 483 529 446 q 389 650 529 650 q 206 419 226 650 z "},"é":{"ha":722,"x_min":65,"x_max":669,"o":"m 314 806 l 281 840 l 431 1039 q 485 1079 463 1079 q 533 1058 514 1079 q 551 1008 551 1036 q 503 935 551 964 l 314 806 m 397 -19 q 152 83 239 -19 q 65 343 65 185 q 160 621 65 518 q 404 724 254 724 q 588 658 515 724 q 660 478 660 592 q 640 342 660 411 l 206 342 q 268 153 210 222 q 429 83 326 83 q 621 167 540 83 l 669 118 q 555 20 626 60 q 397 -19 483 -19 m 206 419 l 525 419 q 529 483 529 446 q 389 650 529 650 q 206 419 226 650 z "},"ê":{"ha":722,"x_min":65,"x_max":669,"o":"m 214 806 l 178 840 l 336 1051 q 390 1082 361 1082 q 447 1043 418 1082 l 599 842 l 561 806 l 390 944 l 214 806 m 397 -19 q 152 83 239 -19 q 65 343 65 185 q 160 621 65 518 q 404 724 254 724 q 588 658 515 724 q 660 478 660 592 q 640 342 660 411 l 206 342 q 268 153 210 222 q 429 83 326 83 q 621 167 540 83 l 669 118 q 555 20 626 60 q 397 -19 483 -19 m 206 419 l 525 419 q 529 483 529 446 q 389 650 529 650 q 206 419 226 650 z "},"ë":{"ha":722,"x_min":65,"x_max":669,"o":"m 247 861 q 185 885 210 861 q 160 947 160 910 q 185 1010 160 985 q 247 1035 210 1035 q 312 1010 286 1035 q 338 949 338 986 q 312 886 338 911 q 247 861 286 861 m 588 886 q 575 874 588 886 q 524 861 563 861 q 460 885 485 861 q 435 947 435 910 q 460 1010 435 985 q 524 1035 485 1035 q 588 1010 563 1035 q 613 949 613 986 q 588 886 613 911 m 397 -19 q 152 83 239 -19 q 65 343 65 185 q 160 621 65 518 q 404 724 254 724 q 588 658 515 724 q 660 478 660 592 q 640 342 660 411 l 206 342 q 268 153 210 222 q 429 83 326 83 q 621 167 540 83 l 669 118 q 555 20 626 60 q 397 -19 483 -19 m 206 419 l 525 419 q 529 483 529 446 q 389 650 529 650 q 206 419 226 650 z "},"ì":{"ha":463,"x_min":53,"x_max":429,"o":"m 286 806 l 101 933 q 53 1007 53 967 q 72 1056 53 1035 q 119 1078 90 1078 q 174 1038 142 1078 l 319 840 l 286 806 m 56 0 l 56 68 l 135 81 q 165 94 156 83 q 176 115 175 104 q 178 151 178 126 l 178 531 q 169 597 178 581 q 128 618 161 614 l 61 628 l 71 697 l 290 708 l 307 701 l 307 146 q 315 100 307 114 q 351 81 324 86 l 429 67 l 429 0 l 56 0 z "},"í":{"ha":463,"x_min":56,"x_max":429,"o":"m 138 806 l 104 840 l 254 1039 q 308 1079 286 1079 q 356 1058 338 1079 q 375 1008 375 1036 q 326 935 375 964 l 138 806 m 56 0 l 56 68 l 135 81 q 165 94 156 83 q 176 115 175 104 q 178 151 178 126 l 178 531 q 169 597 178 581 q 128 618 161 614 l 61 628 l 71 697 l 290 708 l 307 701 l 307 146 q 315 100 307 114 q 351 81 324 86 l 429 67 l 429 0 l 56 0 z "},"î":{"ha":463,"x_min":1,"x_max":429,"o":"m 38 806 l 1 840 l 160 1051 q 214 1082 185 1082 q 271 1043 242 1082 l 422 842 l 385 806 l 214 944 l 38 806 m 56 0 l 56 68 l 135 81 q 165 94 156 83 q 176 115 175 104 q 178 151 178 126 l 178 531 q 169 597 178 581 q 128 618 161 614 l 61 628 l 71 697 l 290 708 l 307 701 l 307 146 q 315 100 307 114 q 351 81 324 86 l 429 67 l 429 0 l 56 0 z "},"ï":{"ha":463,"x_min":-17,"x_max":436,"o":"m 71 861 q 8 885 33 861 q -17 947 -17 910 q 8 1010 -17 985 q 71 1035 33 1035 q 135 1010 110 1035 q 161 949 161 986 q 135 886 161 911 q 71 861 110 861 m 411 886 q 399 874 411 886 q 347 861 386 861 q 283 885 308 861 q 258 947 258 910 q 283 1010 258 985 q 347 1035 308 1035 q 411 1010 386 1035 q 436 949 436 986 q 411 886 436 911 m 56 0 l 56 68 l 135 81 q 165 94 156 83 q 176 115 175 104 q 178 151 178 126 l 178 531 q 169 597 178 581 q 128 618 161 614 l 61 628 l 71 697 l 290 708 l 307 701 l 307 146 q 315 100 307 114 q 351 81 324 86 l 429 67 l 429 0 l 56 0 z "},"ð":{"ha":804,"x_min":65,"x_max":739,"o":"m 385 -19 q 151 75 238 -19 q 65 335 65 169 q 159 599 65 508 q 378 689 253 689 q 507 658 447 689 q 601 572 567 626 l 599 592 q 481 885 578 775 l 347 783 l 313 846 l 424 926 q 196 1008 333 994 l 208 1071 q 504 992 393 1061 l 639 1096 l 674 1033 l 565 950 q 739 483 739 799 q 649 113 739 244 q 385 -19 558 -19 m 407 65 q 546 140 497 65 q 594 343 594 214 q 569 510 594 458 q 503 577 549 551 q 400 603 457 603 q 262 536 315 603 q 208 339 208 469 q 260 135 208 204 q 407 65 311 65 z "},"ñ":{"ha":919,"x_min":64,"x_max":876,"o":"m 574 861 q 449 894 526 861 q 351 929 365 929 q 320 919 333 929 q 286 878 307 910 l 243 904 q 306 1006 279 981 q 372 1031 332 1031 q 492 997 411 1031 q 594 964 572 964 q 619 971 608 964 q 635 985 629 978 q 656 1015 640 993 l 699 989 q 638 889 664 917 q 574 861 613 861 m 76 0 l 76 65 l 143 78 q 174 96 168 82 q 179 144 179 110 l 179 536 q 171 601 179 585 q 132 622 163 617 l 64 632 l 74 699 l 267 714 l 283 704 l 293 581 l 297 581 q 394 681 331 639 q 540 724 457 724 q 715 658 661 724 q 768 486 768 592 l 768 133 q 776 93 768 104 q 811 76 783 82 l 876 65 l 876 0 l 536 0 l 536 64 l 597 75 q 631 92 624 81 q 639 133 639 103 l 639 446 q 635 516 639 489 q 617 570 631 543 q 575 610 604 597 q 500 624 546 624 q 365 575 421 624 q 308 431 308 526 l 308 139 q 315 96 308 108 q 343 79 321 83 l 417 64 l 417 0 l 76 0 z "},"ò":{"ha":815,"x_min":65,"x_max":751,"o":"m 485 806 l 300 933 q 251 1007 251 967 q 270 1056 251 1035 q 318 1078 289 1078 q 372 1038 340 1078 l 518 840 l 485 806 m 403 -19 q 154 79 243 -19 q 65 336 65 178 q 168 628 65 532 q 422 724 271 724 q 659 632 567 724 q 751 371 751 540 q 654 83 751 186 q 403 -19 557 -19 m 422 67 q 560 136 511 67 q 610 338 610 206 q 553 561 610 481 q 400 642 496 642 q 258 576 310 642 q 206 378 206 511 q 263 151 206 235 q 422 67 319 67 z "},"ó":{"ha":815,"x_min":65,"x_max":751,"o":"m 338 806 l 304 840 l 454 1039 q 508 1079 486 1079 q 556 1058 538 1079 q 575 1008 575 1036 q 526 935 575 964 l 338 806 m 403 -19 q 154 79 243 -19 q 65 336 65 178 q 168 628 65 532 q 422 724 271 724 q 659 632 567 724 q 751 371 751 540 q 654 83 751 186 q 403 -19 557 -19 m 422 67 q 560 136 511 67 q 610 338 610 206 q 553 561 610 481 q 400 642 496 642 q 258 576 310 642 q 206 378 206 511 q 263 151 206 235 q 422 67 319 67 z "},"ô":{"ha":815,"x_min":65,"x_max":751,"o":"m 236 806 l 200 840 l 358 1051 q 413 1082 383 1082 q 469 1043 440 1082 l 621 842 l 583 806 l 413 944 l 236 806 m 403 -19 q 154 79 243 -19 q 65 336 65 178 q 168 628 65 532 q 422 724 271 724 q 659 632 567 724 q 751 371 751 540 q 654 83 751 186 q 403 -19 557 -19 m 422 67 q 560 136 511 67 q 610 338 610 206 q 553 561 610 481 q 400 642 496 642 q 258 576 310 642 q 206 378 206 511 q 263 151 206 235 q 422 67 319 67 z "},"õ":{"ha":815,"x_min":65,"x_max":751,"o":"m 513 861 q 388 894 465 861 q 290 929 304 929 q 259 919 272 929 q 225 878 246 910 l 182 904 q 244 1006 218 981 q 311 1031 271 1031 q 431 997 350 1031 q 533 964 511 964 q 558 971 547 964 q 574 985 568 978 q 594 1015 579 993 l 638 989 q 577 889 603 917 q 513 861 551 861 m 403 -19 q 154 79 243 -19 q 65 336 65 178 q 168 628 65 532 q 422 724 271 724 q 659 632 567 724 q 751 371 751 540 q 654 83 751 186 q 403 -19 557 -19 m 422 67 q 560 136 511 67 q 610 338 610 206 q 553 561 610 481 q 400 642 496 642 q 258 576 310 642 q 206 378 206 511 q 263 151 206 235 q 422 67 319 67 z "},"ö":{"ha":815,"x_min":65,"x_max":751,"o":"m 268 861 q 206 885 231 861 q 181 947 181 910 q 206 1010 181 985 q 268 1035 231 1035 q 333 1010 307 1035 q 358 949 358 986 q 333 886 358 911 q 268 861 307 861 m 608 886 q 596 874 608 886 q 544 861 583 861 q 481 885 506 861 q 456 947 456 910 q 481 1010 456 985 q 544 1035 506 1035 q 608 1010 583 1035 q 633 949 633 986 q 608 886 633 911 m 403 -19 q 154 79 243 -19 q 65 336 65 178 q 168 628 65 532 q 422 724 271 724 q 659 632 567 724 q 751 371 751 540 q 654 83 751 186 q 403 -19 557 -19 m 422 67 q 560 136 511 67 q 610 338 610 206 q 553 561 610 481 q 400 642 496 642 q 258 576 310 642 q 206 378 206 511 q 263 151 206 235 q 422 67 319 67 z "},"÷":{"ha":808,"x_min":107,"x_max":701,"o":"m 467 578 q 454 565 467 578 q 403 553 440 553 q 339 577 365 553 q 313 638 313 601 q 339 699 313 674 q 403 724 365 724 q 467 699 440 724 q 494 639 494 675 q 467 578 494 603 m 107 382 l 107 469 l 701 469 l 701 382 l 107 382 m 467 147 q 454 135 467 147 q 403 122 440 122 q 339 147 365 122 q 313 207 313 171 q 339 268 313 243 q 403 293 365 293 q 467 269 440 293 q 494 208 494 244 q 467 147 494 172 z "},"ø":{"ha":815,"x_min":7,"x_max":796,"o":"m 796 724 l 685 601 q 751 371 751 510 q 654 83 751 186 q 403 -19 557 -19 q 182 53 269 -19 l 117 -19 l 7 -19 l 128 113 q 65 336 65 203 q 168 628 65 532 q 422 724 271 724 q 628 660 543 724 l 686 724 l 796 724 m 206 378 q 228 222 206 288 l 546 571 q 400 642 490 642 q 258 576 310 642 q 206 378 206 511 m 610 338 q 586 494 610 428 l 267 144 q 422 67 322 67 q 560 136 511 67 q 610 338 610 206 z "},"ù":{"ha":881,"x_min":38,"x_max":839,"o":"m 488 806 l 303 933 q 254 1007 254 967 q 273 1056 254 1035 q 321 1078 292 1078 q 375 1038 343 1078 l 521 840 l 488 806 m 368 -19 q 146 218 146 -19 l 146 536 q 138 601 146 585 q 99 622 129 617 l 38 632 l 49 699 l 258 714 l 275 704 l 275 258 q 278 188 275 213 q 294 134 282 163 q 334 93 306 106 q 408 81 363 81 q 542 128 488 81 q 596 274 596 176 l 596 536 q 588 601 596 585 q 549 622 579 617 l 486 632 l 497 699 l 708 714 l 725 704 l 725 140 q 733 95 725 107 q 769 78 742 83 l 839 65 l 839 0 l 624 -8 l 604 104 l 600 104 q 498 13 551 46 q 368 -19 444 -19 z "},"ú":{"ha":881,"x_min":38,"x_max":839,"o":"m 356 806 l 322 840 l 472 1039 q 526 1079 504 1079 q 574 1058 556 1079 q 593 1008 593 1036 q 544 935 593 964 l 356 806 m 368 -19 q 146 218 146 -19 l 146 536 q 138 601 146 585 q 99 622 129 617 l 38 632 l 49 699 l 258 714 l 275 704 l 275 258 q 278 188 275 213 q 294 134 282 163 q 334 93 306 106 q 408 81 363 81 q 542 128 488 81 q 596 274 596 176 l 596 536 q 588 601 596 585 q 549 622 579 617 l 486 632 l 497 699 l 708 714 l 725 704 l 725 140 q 733 95 725 107 q 769 78 742 83 l 839 65 l 839 0 l 624 -8 l 604 104 l 600 104 q 498 13 551 46 q 368 -19 444 -19 z "},"û":{"ha":881,"x_min":38,"x_max":839,"o":"m 257 806 l 221 840 l 379 1051 q 433 1082 404 1082 q 490 1043 461 1082 l 642 842 l 604 806 l 433 944 l 257 806 m 368 -19 q 146 218 146 -19 l 146 536 q 138 601 146 585 q 99 622 129 617 l 38 632 l 49 699 l 258 714 l 275 704 l 275 258 q 278 188 275 213 q 294 134 282 163 q 334 93 306 106 q 408 81 363 81 q 542 128 488 81 q 596 274 596 176 l 596 536 q 588 601 596 585 q 549 622 579 617 l 486 632 l 497 699 l 708 714 l 725 704 l 725 140 q 733 95 725 107 q 769 78 742 83 l 839 65 l 839 0 l 624 -8 l 604 104 l 600 104 q 498 13 551 46 q 368 -19 444 -19 z "},"ü":{"ha":881,"x_min":38,"x_max":839,"o":"m 289 861 q 226 885 251 861 q 201 947 201 910 q 226 1010 201 985 q 289 1035 251 1035 q 353 1010 328 1035 q 379 949 379 986 q 353 886 379 911 q 289 861 328 861 m 629 886 q 617 874 629 886 q 565 861 604 861 q 501 885 526 861 q 476 947 476 910 q 501 1010 476 985 q 565 1035 526 1035 q 629 1010 604 1035 q 654 949 654 986 q 629 886 654 911 m 368 -19 q 146 218 146 -19 l 146 536 q 138 601 146 585 q 99 622 129 617 l 38 632 l 49 699 l 258 714 l 275 704 l 275 258 q 278 188 275 213 q 294 134 282 163 q 334 93 306 106 q 408 81 363 81 q 542 128 488 81 q 596 274 596 176 l 596 536 q 588 601 596 585 q 549 622 579 617 l 486 632 l 497 699 l 708 714 l 725 704 l 725 140 q 733 95 725 107 q 769 78 742 83 l 839 65 l 839 0 l 624 -8 l 604 104 l 600 104 q 498 13 551 46 q 368 -19 444 -19 z "},"ý":{"ha":800,"x_min":14,"x_max":797,"o":"m 356 806 l 322 840 l 472 1039 q 526 1079 504 1079 q 574 1058 556 1079 q 593 1008 593 1036 q 544 935 593 964 l 356 806 m 157 -318 q 49 -286 85 -318 q 14 -207 14 -254 q 40 -140 14 -165 q 104 -114 67 -114 q 178 -164 172 -114 q 172 -243 179 -179 q 247 -207 217 -244 q 324 -69 278 -169 l 358 10 l 129 554 q 120 574 126 561 q 112 592 114 588 q 105 603 110 596 q 96 613 100 611 q 85 619 92 615 q 68 625 78 622 l 19 636 l 33 704 l 364 704 l 364 640 l 297 631 q 263 612 269 626 q 271 561 257 597 l 425 172 l 432 172 l 586 551 q 592 603 599 588 q 554 626 585 619 l 493 640 l 507 704 l 797 704 l 797 639 l 746 628 q 710 609 721 622 q 681 553 700 596 l 413 -75 q 378 -151 390 -125 q 342 -214 365 -176 q 294 -270 318 -251 q 235 -303 271 -289 q 157 -318 200 -318 z "},"þ":{"ha":854,"x_min":33,"x_max":789,"o":"m 47 -304 l 47 -237 l 114 -226 q 154 -161 154 -219 l 154 894 q 144 957 154 942 q 94 978 135 972 l 33 988 l 42 1057 l 268 1064 l 283 1049 l 283 593 q 336 658 311 633 q 410 703 361 683 q 521 724 458 724 q 717 633 646 724 q 789 379 789 543 q 703 86 789 188 q 467 -15 618 -15 q 283 31 354 -15 l 283 -157 q 293 -206 283 -190 q 328 -225 303 -221 l 413 -239 l 413 -304 l 47 -304 m 458 76 q 602 153 554 76 q 650 360 650 229 q 479 625 650 625 q 340 576 397 625 q 283 421 283 528 l 283 136 q 363 92 314 108 q 458 76 413 76 z "},"ÿ":{"ha":800,"x_min":14,"x_max":797,"o":"m 289 861 q 226 885 251 861 q 201 947 201 910 q 226 1010 201 985 q 289 1035 251 1035 q 353 1010 328 1035 q 379 949 379 986 q 353 886 379 911 q 289 861 328 861 m 629 886 q 617 874 629 886 q 565 861 604 861 q 501 885 526 861 q 476 947 476 910 q 501 1010 476 985 q 565 1035 526 1035 q 629 1010 604 1035 q 654 949 654 986 q 629 886 654 911 m 157 -318 q 49 -286 85 -318 q 14 -207 14 -254 q 40 -140 14 -165 q 104 -114 67 -114 q 178 -164 172 -114 q 172 -243 179 -179 q 247 -207 217 -244 q 324 -69 278 -169 l 358 10 l 129 554 q 120 574 126 561 q 112 592 114 588 q 105 603 110 596 q 96 613 100 611 q 85 619 92 615 q 68 625 78 622 l 19 636 l 33 704 l 364 704 l 364 640 l 297 631 q 263 612 269 626 q 271 561 257 597 l 425 172 l 432 172 l 586 551 q 592 603 599 588 q 554 626 585 619 l 493 640 l 507 704 l 797 704 l 797 639 l 746 628 q 710 609 721 622 q 681 553 700 596 l 413 -75 q 378 -151 390 -125 q 342 -214 365 -176 q 294 -270 318 -251 q 235 -303 271 -289 q 157 -318 200 -318 z "},"Ā":{"ha":1021,"x_min":21,"x_max":1000,"o":"m 321 1104 l 321 1206 l 715 1206 l 715 1104 l 321 1104 m 21 0 l 21 67 l 88 78 q 124 97 113 83 q 151 153 135 111 l 444 972 l 592 972 l 882 151 q 906 99 897 111 q 943 81 915 88 l 1000 69 l 1000 0 l 629 0 l 629 67 l 710 76 q 744 95 738 81 q 736 146 750 110 l 676 321 l 304 321 l 246 151 q 240 99 233 115 q 278 76 247 83 l 357 65 l 357 0 l 21 0 m 332 400 l 650 400 l 496 857 l 490 857 l 332 400 z "},"ā":{"ha":749,"x_min":72,"x_max":742,"o":"m 150 882 l 150 983 l 539 983 l 539 882 l 150 882 m 267 -19 q 131 26 189 -19 q 72 168 72 72 q 128 310 72 257 q 288 378 185 363 q 471 394 363 389 l 471 489 q 433 615 471 578 q 321 653 394 653 q 244 640 279 653 q 193 611 208 628 q 229 533 229 550 q 208 490 229 508 q 154 471 188 471 q 75 543 75 471 q 156 670 75 617 q 340 724 236 724 q 531 668 461 724 q 600 474 600 613 l 600 139 q 728 89 600 53 l 742 36 q 614 -19 683 -19 q 482 104 494 -19 q 267 -19 404 -19 m 319 76 q 422 112 374 76 q 471 224 471 147 l 471 322 q 336 310 411 322 q 237 265 267 300 q 207 183 207 229 q 239 103 207 129 q 319 76 271 76 z "},"Ă":{"ha":1021,"x_min":21,"x_max":1000,"o":"m 514 1044 q 361 1109 415 1044 q 297 1272 307 1174 l 353 1289 q 413 1188 372 1219 q 521 1156 453 1156 q 688 1288 653 1156 l 740 1274 q 673 1113 732 1182 q 514 1044 614 1044 m 21 0 l 21 67 l 88 78 q 124 97 113 83 q 151 153 135 111 l 444 972 l 592 972 l 882 151 q 906 99 897 111 q 943 81 915 88 l 1000 69 l 1000 0 l 629 0 l 629 67 l 710 76 q 744 95 738 81 q 736 146 750 110 l 676 321 l 304 321 l 246 151 q 240 99 233 115 q 278 76 247 83 l 357 65 l 357 0 l 21 0 m 332 400 l 650 400 l 496 857 l 490 857 l 332 400 z "},"ă":{"ha":749,"x_min":72,"x_max":742,"o":"m 342 815 q 200 883 250 815 q 139 1050 150 950 l 194 1067 q 349 926 235 926 q 501 1065 465 926 l 554 1051 q 490 887 546 958 q 342 815 435 815 m 267 -19 q 131 26 189 -19 q 72 168 72 72 q 128 310 72 257 q 288 378 185 363 q 471 394 363 389 l 471 489 q 433 615 471 578 q 321 653 394 653 q 244 640 279 653 q 193 611 208 628 q 229 533 229 550 q 208 490 229 508 q 154 471 188 471 q 75 543 75 471 q 156 670 75 617 q 340 724 236 724 q 531 668 461 724 q 600 474 600 613 l 600 139 q 728 89 600 53 l 742 36 q 614 -19 683 -19 q 482 104 494 -19 q 267 -19 404 -19 m 319 76 q 422 112 374 76 q 471 224 471 147 l 471 322 q 336 310 411 322 q 237 265 267 300 q 207 183 207 229 q 239 103 207 129 q 319 76 271 76 z "},"Ą":{"ha":1021,"x_min":21,"x_max":1000,"o":"m 876 0 q 764 -171 764 -92 q 821 -228 764 -228 q 889 -215 849 -228 l 904 -264 q 772 -318 839 -318 q 679 -286 714 -318 q 644 -206 644 -254 q 797 0 644 -97 l 629 0 l 629 67 l 710 76 q 744 95 738 81 q 736 146 750 110 l 676 321 l 304 321 l 246 151 q 240 99 233 115 q 278 76 247 83 l 357 65 l 357 0 l 21 0 l 21 67 l 88 78 q 124 97 113 83 q 151 153 135 111 l 444 972 l 592 972 l 882 151 q 906 99 897 111 q 943 81 915 88 l 1000 69 l 1000 0 l 876 0 m 332 400 l 650 400 l 496 857 l 490 857 l 332 400 z "},"ą":{"ha":749,"x_min":72,"x_max":742,"o":"m 644 -228 q 713 -215 672 -228 l 728 -264 q 596 -318 663 -318 q 503 -286 538 -318 q 468 -206 468 -254 q 596 -18 468 -106 q 482 104 494 -11 q 267 -19 404 -19 q 131 26 189 -19 q 72 168 72 72 q 128 310 72 257 q 288 378 185 363 q 471 394 363 389 l 471 489 q 433 615 471 578 q 321 653 394 653 q 244 640 279 653 q 193 611 208 628 q 229 533 229 550 q 208 490 229 508 q 154 471 188 471 q 75 543 75 471 q 156 670 75 617 q 340 724 236 724 q 531 668 461 724 q 600 474 600 613 l 600 139 q 728 89 600 53 l 742 36 q 706 10 722 19 q 588 -171 588 -96 q 644 -228 588 -228 m 471 224 l 471 322 q 336 310 411 322 q 237 265 267 300 q 207 183 207 229 q 239 103 207 129 q 319 76 271 76 q 422 112 374 76 q 471 224 471 147 z "},"Ć":{"ha":983,"x_min":82,"x_max":908,"o":"m 418 1044 l 390 1083 l 572 1249 q 626 1281 608 1281 q 669 1260 651 1281 q 686 1214 686 1239 q 628 1136 686 1161 l 418 1044 m 547 -19 q 341 22 432 -19 q 194 135 250 64 q 110 297 139 207 q 82 488 82 386 q 206 856 82 719 q 524 992 329 992 q 754 907 669 992 l 768 994 l 836 994 l 890 671 l 815 654 q 706 844 774 785 q 526 904 638 904 q 305 797 379 904 q 231 489 231 689 q 319 194 231 313 q 561 76 407 76 q 722 115 656 76 q 843 232 789 154 l 908 185 q 766 40 858 100 q 547 -19 674 -19 z "},"ć":{"ha":694,"x_min":65,"x_max":654,"o":"m 319 806 l 286 840 l 436 1039 q 490 1079 468 1079 q 538 1058 519 1079 q 557 1008 557 1036 q 508 935 557 964 l 319 806 m 393 -19 q 150 82 235 -19 q 65 343 65 183 q 160 621 65 518 q 404 724 254 724 q 581 672 510 724 q 653 542 653 621 q 630 477 653 503 q 561 451 607 451 q 479 518 479 451 q 518 613 479 547 q 393 646 465 646 q 258 570 311 646 q 206 372 206 494 q 266 163 206 239 q 428 88 326 88 q 607 160 535 88 l 654 111 q 544 17 613 54 q 393 -19 475 -19 z "},"Ĉ":{"ha":983,"x_min":82,"x_max":908,"o":"m 329 1042 l 296 1076 l 469 1267 q 524 1297 497 1297 q 581 1258 543 1297 l 749 1078 l 714 1042 l 524 1158 l 329 1042 m 547 -19 q 341 22 432 -19 q 194 135 250 64 q 110 297 139 207 q 82 488 82 386 q 206 856 82 719 q 524 992 329 992 q 754 907 669 992 l 768 994 l 836 994 l 890 671 l 815 654 q 706 844 774 785 q 526 904 638 904 q 305 797 379 904 q 231 489 231 689 q 319 194 231 313 q 561 76 407 76 q 722 115 656 76 q 843 232 789 154 l 908 185 q 766 40 858 100 q 547 -19 674 -19 z "},"ĉ":{"ha":694,"x_min":65,"x_max":654,"o":"m 221 806 l 185 840 l 343 1051 q 397 1082 368 1082 q 454 1043 425 1082 l 606 842 l 568 806 l 397 944 l 221 806 m 393 -19 q 150 82 235 -19 q 65 343 65 183 q 160 621 65 518 q 404 724 254 724 q 581 672 510 724 q 653 542 653 621 q 630 477 653 503 q 561 451 607 451 q 479 518 479 451 q 518 613 479 547 q 393 646 465 646 q 258 570 311 646 q 206 372 206 494 q 266 163 206 239 q 428 88 326 88 q 607 160 535 88 l 654 111 q 544 17 613 54 q 393 -19 475 -19 z "},"Ċ":{"ha":983,"x_min":82,"x_max":908,"o":"m 521 1065 q 454 1091 481 1065 q 428 1157 428 1117 q 454 1224 428 1197 q 521 1250 481 1250 q 589 1224 563 1250 q 615 1158 615 1199 q 589 1092 615 1118 q 521 1065 563 1065 m 547 -19 q 341 22 432 -19 q 194 135 250 64 q 110 297 139 207 q 82 488 82 386 q 206 856 82 719 q 524 992 329 992 q 754 907 669 992 l 768 994 l 836 994 l 890 671 l 815 654 q 706 844 774 785 q 526 904 638 904 q 305 797 379 904 q 231 489 231 689 q 319 194 231 313 q 561 76 407 76 q 722 115 656 76 q 843 232 789 154 l 908 185 q 766 40 858 100 q 547 -19 674 -19 z "},"ċ":{"ha":694,"x_min":65,"x_max":654,"o":"m 393 861 q 326 887 353 861 q 300 953 300 913 q 326 1019 300 993 q 393 1046 353 1046 q 461 1020 435 1046 q 488 954 488 994 q 461 888 488 914 q 393 861 435 861 m 393 -19 q 150 82 235 -19 q 65 343 65 183 q 160 621 65 518 q 404 724 254 724 q 581 672 510 724 q 653 542 653 621 q 630 477 653 503 q 561 451 607 451 q 479 518 479 451 q 518 613 479 547 q 393 646 465 646 q 258 570 311 646 q 206 372 206 494 q 266 163 206 239 q 428 88 326 88 q 607 160 535 88 l 654 111 q 544 17 613 54 q 393 -19 475 -19 z "},"Č":{"ha":983,"x_min":82,"x_max":908,"o":"m 521 1044 q 464 1083 501 1044 l 296 1264 l 331 1300 l 521 1183 l 715 1300 l 749 1265 l 575 1075 q 521 1044 547 1044 m 547 -19 q 341 22 432 -19 q 194 135 250 64 q 110 297 139 207 q 82 488 82 386 q 206 856 82 719 q 524 992 329 992 q 754 907 669 992 l 768 994 l 836 994 l 890 671 l 815 654 q 706 844 774 785 q 526 904 638 904 q 305 797 379 904 q 231 489 231 689 q 319 194 231 313 q 561 76 407 76 q 722 115 656 76 q 843 232 789 154 l 908 185 q 766 40 858 100 q 547 -19 674 -19 z "},"č":{"ha":694,"x_min":65,"x_max":654,"o":"m 393 806 q 336 844 365 806 l 185 1046 l 222 1082 l 393 943 l 569 1082 l 606 1047 l 447 836 q 393 806 422 806 m 393 -19 q 150 82 235 -19 q 65 343 65 183 q 160 621 65 518 q 404 724 254 724 q 581 672 510 724 q 653 542 653 621 q 630 477 653 503 q 561 451 607 451 q 479 518 479 451 q 518 613 479 547 q 393 646 465 646 q 258 570 311 646 q 206 372 206 494 q 266 163 206 239 q 428 88 326 88 q 607 160 535 88 l 654 111 q 544 17 613 54 q 393 -19 475 -19 z "},"Ď":{"ha":1076,"x_min":86,"x_max":993,"o":"m 494 1044 q 438 1083 475 1044 l 269 1264 l 304 1300 l 494 1183 l 689 1300 l 722 1265 l 549 1075 q 494 1044 521 1044 m 86 0 l 86 67 l 167 79 q 202 99 194 83 q 210 150 210 115 l 210 828 q 201 875 210 863 q 164 893 193 888 l 86 906 l 86 972 l 485 972 q 857 860 721 972 q 993 517 993 747 q 850 139 993 278 q 446 0 707 0 l 86 0 m 447 76 q 748 181 651 76 q 844 506 844 286 q 750 797 844 697 q 474 897 656 897 l 347 897 l 347 83 q 447 76 386 76 z "},"ď":{"ha":942,"x_min":65,"x_max":935,"o":"m 807 751 l 771 790 q 828 904 828 865 q 806 951 828 928 q 778 1004 778 981 q 799 1051 778 1036 q 850 1067 821 1067 q 914 1039 893 1067 q 935 972 935 1011 q 901 860 935 921 q 807 751 867 799 m 350 -19 q 140 74 214 -19 q 65 331 65 167 q 156 617 65 511 q 404 724 247 724 q 575 678 504 724 l 575 894 q 565 957 575 942 q 515 978 556 972 l 454 988 l 463 1057 l 689 1064 l 704 1049 l 704 136 q 713 91 704 103 q 750 74 721 79 l 818 61 l 818 -4 l 604 -12 l 585 97 l 581 97 q 350 -19 489 -19 m 390 81 q 519 134 464 81 q 575 294 575 188 l 575 574 q 401 631 503 631 q 203 344 203 631 q 248 153 203 225 q 390 81 293 81 z "},"Đ":{"ha":1076,"x_min":57,"x_max":993,"o":"m 485 972 q 857 860 721 972 q 993 517 993 747 q 850 139 993 278 q 446 0 707 0 l 86 0 l 86 67 l 167 79 q 202 99 194 83 q 210 150 210 115 l 210 458 l 57 458 l 68 546 l 210 546 l 210 828 q 201 875 210 863 q 164 893 193 888 l 86 906 l 86 972 l 485 972 m 447 76 q 748 181 651 76 q 844 506 844 286 q 750 797 844 697 q 474 897 656 897 l 347 897 l 347 546 l 613 546 l 613 458 l 347 458 l 347 83 q 447 76 386 76 z "},"đ":{"ha":853,"x_min":65,"x_max":838,"o":"m 65 331 q 156 617 65 511 q 404 724 247 724 q 575 678 504 724 l 575 804 l 371 804 l 382 883 l 575 883 l 575 894 q 565 957 575 942 q 515 978 556 972 l 454 988 l 463 1057 l 689 1064 l 704 1049 l 704 883 l 838 883 l 838 804 l 704 804 l 704 136 q 713 91 704 103 q 750 74 721 79 l 818 61 l 818 -4 l 604 -12 l 585 97 l 581 97 q 350 -19 489 -19 q 140 74 214 -19 q 65 331 65 167 m 203 344 q 248 153 203 225 q 390 81 293 81 q 519 134 464 81 q 575 294 575 188 l 575 574 q 401 631 503 631 q 203 344 203 631 z "},"Ē":{"ha":885,"x_min":86,"x_max":811,"o":"m 254 1104 l 254 1206 l 649 1206 l 649 1104 l 254 1104 m 86 0 l 86 67 l 167 79 q 202 99 194 83 q 210 150 210 115 l 210 828 q 201 875 210 863 q 164 893 193 888 l 86 906 l 86 972 l 729 972 l 781 746 l 708 722 q 625 865 667 832 q 482 897 583 897 l 347 897 l 347 538 l 468 538 q 502 538 489 538 q 528 540 515 538 q 548 543 542 543 q 562 551 554 543 q 572 560 569 560 q 578 576 574 561 q 585 594 583 590 q 591 621 586 599 q 597 651 596 643 l 661 660 l 661 344 l 597 333 q 567 434 585 417 q 468 451 550 451 l 347 451 l 347 75 l 526 75 q 666 109 626 75 q 735 256 706 143 l 811 256 l 778 0 l 86 0 z "},"ē":{"ha":722,"x_min":65,"x_max":669,"o":"m 193 882 l 193 983 l 582 983 l 582 882 l 193 882 m 397 -19 q 152 83 239 -19 q 65 343 65 185 q 160 621 65 518 q 404 724 254 724 q 588 658 515 724 q 660 478 660 592 q 640 342 660 411 l 206 342 q 268 153 210 222 q 429 83 326 83 q 621 167 540 83 l 669 118 q 555 20 626 60 q 397 -19 483 -19 m 206 419 l 525 419 q 529 483 529 446 q 389 650 529 650 q 206 419 226 650 z "},"Ĕ":{"ha":885,"x_min":86,"x_max":811,"o":"m 447 1044 q 294 1109 349 1044 q 231 1272 240 1174 l 286 1289 q 346 1188 306 1219 q 454 1156 386 1156 q 621 1288 586 1156 l 674 1274 q 606 1113 665 1182 q 447 1044 547 1044 m 86 0 l 86 67 l 167 79 q 202 99 194 83 q 210 150 210 115 l 210 828 q 201 875 210 863 q 164 893 193 888 l 86 906 l 86 972 l 729 972 l 781 746 l 708 722 q 625 865 667 832 q 482 897 583 897 l 347 897 l 347 538 l 468 538 q 502 538 489 538 q 528 540 515 538 q 548 543 542 543 q 562 551 554 543 q 572 560 569 560 q 578 576 574 561 q 585 594 583 590 q 591 621 586 599 q 597 651 596 643 l 661 660 l 661 344 l 597 333 q 567 434 585 417 q 468 451 550 451 l 347 451 l 347 75 l 526 75 q 666 109 626 75 q 735 256 706 143 l 811 256 l 778 0 l 86 0 z "},"ĕ":{"ha":722,"x_min":65,"x_max":669,"o":"m 383 815 q 242 883 292 815 q 181 1050 192 950 l 236 1067 q 390 926 276 926 q 543 1065 507 926 l 596 1051 q 532 887 588 958 q 383 815 476 815 m 397 -19 q 152 83 239 -19 q 65 343 65 185 q 160 621 65 518 q 404 724 254 724 q 588 658 515 724 q 660 478 660 592 q 640 342 660 411 l 206 342 q 268 153 210 222 q 429 83 326 83 q 621 167 540 83 l 669 118 q 555 20 626 60 q 397 -19 483 -19 m 206 419 l 525 419 q 529 483 529 446 q 389 650 529 650 q 206 419 226 650 z "},"Ė":{"ha":885,"x_min":86,"x_max":811,"o":"m 450 1065 q 383 1091 410 1065 q 357 1157 357 1117 q 383 1224 357 1197 q 450 1250 410 1250 q 518 1224 492 1250 q 544 1158 544 1199 q 518 1092 544 1118 q 450 1065 492 1065 m 86 0 l 86 67 l 167 79 q 202 99 194 83 q 210 150 210 115 l 210 828 q 201 875 210 863 q 164 893 193 888 l 86 906 l 86 972 l 729 972 l 781 746 l 708 722 q 625 865 667 832 q 482 897 583 897 l 347 897 l 347 538 l 468 538 q 502 538 489 538 q 528 540 515 538 q 548 543 542 543 q 562 551 554 543 q 572 560 569 560 q 578 576 574 561 q 585 594 583 590 q 591 621 586 599 q 597 651 596 643 l 661 660 l 661 344 l 597 333 q 567 434 585 417 q 468 451 550 451 l 347 451 l 347 75 l 526 75 q 666 109 626 75 q 735 256 706 143 l 811 256 l 778 0 l 86 0 z "},"ė":{"ha":722,"x_min":65,"x_max":669,"o":"m 386 861 q 319 887 346 861 q 293 953 293 913 q 319 1019 293 993 q 386 1046 346 1046 q 454 1020 428 1046 q 481 954 481 994 q 454 888 481 914 q 386 861 428 861 m 397 -19 q 152 83 239 -19 q 65 343 65 185 q 160 621 65 518 q 404 724 254 724 q 588 658 515 724 q 660 478 660 592 q 640 342 660 411 l 206 342 q 268 153 210 222 q 429 83 326 83 q 621 167 540 83 l 669 118 q 555 20 626 60 q 397 -19 483 -19 m 206 419 l 525 419 q 529 483 529 446 q 389 650 529 650 q 206 419 226 650 z "},"Ę":{"ha":885,"x_min":86,"x_max":811,"o":"m 778 0 q 675 -69 722 -18 q 628 -171 628 -119 q 685 -228 628 -228 q 753 -215 713 -228 l 768 -264 q 636 -318 703 -318 q 543 -286 578 -318 q 508 -206 508 -254 q 558 -84 508 -136 q 675 0 607 -32 l 86 0 l 86 67 l 167 79 q 202 99 194 83 q 210 150 210 115 l 210 828 q 201 875 210 863 q 164 893 193 888 l 86 906 l 86 972 l 729 972 l 781 746 l 708 722 q 625 865 667 832 q 482 897 583 897 l 347 897 l 347 538 l 468 538 q 502 538 489 538 q 528 540 515 538 q 548 543 542 543 q 562 551 554 543 q 572 560 569 560 q 578 576 574 561 q 585 594 583 590 q 591 621 586 599 q 597 651 596 643 l 661 660 l 661 344 l 597 333 q 567 434 585 417 q 468 451 550 451 l 347 451 l 347 75 l 526 75 q 666 109 626 75 q 735 256 706 143 l 811 256 l 778 0 z "},"ę":{"ha":722,"x_min":65,"x_max":669,"o":"m 574 31 q 426 -171 426 -74 q 483 -228 426 -228 q 551 -215 511 -228 l 567 -264 q 435 -318 501 -318 q 342 -286 376 -318 q 307 -206 307 -254 q 424 -18 307 -110 q 397 -19 415 -19 q 152 83 239 -19 q 65 343 65 185 q 160 621 65 518 q 404 724 254 724 q 588 658 515 724 q 660 478 660 592 q 640 342 660 411 l 206 342 q 268 153 210 222 q 429 83 326 83 q 621 167 540 83 l 669 118 q 574 31 631 67 m 389 650 q 206 419 226 650 l 525 419 q 529 483 529 446 q 389 650 529 650 z "},"Ě":{"ha":885,"x_min":86,"x_max":811,"o":"m 450 1044 q 393 1083 431 1044 l 225 1264 l 260 1300 l 450 1183 l 644 1300 l 678 1265 l 504 1075 q 450 1044 476 1044 m 86 0 l 86 67 l 167 79 q 202 99 194 83 q 210 150 210 115 l 210 828 q 201 875 210 863 q 164 893 193 888 l 86 906 l 86 972 l 729 972 l 781 746 l 708 722 q 625 865 667 832 q 482 897 583 897 l 347 897 l 347 538 l 468 538 q 502 538 489 538 q 528 540 515 538 q 548 543 542 543 q 562 551 554 543 q 572 560 569 560 q 578 576 574 561 q 585 594 583 590 q 591 621 586 599 q 597 651 596 643 l 661 660 l 661 344 l 597 333 q 567 434 585 417 q 468 451 550 451 l 347 451 l 347 75 l 526 75 q 666 109 626 75 q 735 256 706 143 l 811 256 l 778 0 l 86 0 z "},"ě":{"ha":722,"x_min":65,"x_max":669,"o":"m 386 806 q 329 844 358 806 l 178 1046 l 215 1082 l 386 943 l 563 1082 l 599 1047 l 440 836 q 386 806 415 806 m 397 -19 q 152 83 239 -19 q 65 343 65 185 q 160 621 65 518 q 404 724 254 724 q 588 658 515 724 q 660 478 660 592 q 640 342 660 411 l 206 342 q 268 153 210 222 q 429 83 326 83 q 621 167 540 83 l 669 118 q 555 20 626 60 q 397 -19 483 -19 m 206 419 l 525 419 q 529 483 529 446 q 389 650 529 650 q 206 419 226 650 z "},"Ĝ":{"ha":1056,"x_min":82,"x_max":1010,"o":"m 329 1042 l 296 1076 l 469 1267 q 524 1297 497 1297 q 581 1258 543 1297 l 749 1078 l 714 1042 l 524 1158 l 329 1042 m 528 -19 q 327 22 415 -19 q 187 135 239 64 q 108 292 135 206 q 82 472 82 378 q 206 853 82 714 q 524 992 329 992 q 758 907 674 992 l 772 994 l 840 994 l 904 671 l 828 654 q 715 844 786 783 q 532 904 644 904 q 306 794 382 904 q 231 485 231 685 q 311 191 231 310 q 538 72 392 72 q 763 167 692 72 l 763 319 q 754 367 763 354 q 717 385 746 379 l 633 397 l 633 464 l 1010 464 l 1010 397 l 936 385 q 902 365 910 381 q 894 314 894 349 l 894 -4 l 835 -4 l 799 61 q 528 -19 688 -19 z "},"ĝ":{"ha":775,"x_min":35,"x_max":774,"o":"m 194 806 l 158 840 l 317 1051 q 371 1082 342 1082 q 428 1043 399 1082 l 579 842 l 542 806 l 371 944 l 194 806 m 353 -318 q 35 -147 35 -318 q 161 11 35 -47 l 161 17 q 101 61 121 29 q 81 124 81 93 q 101 197 81 164 q 171 282 121 229 l 171 286 q 68 476 68 339 q 147 657 68 590 q 356 724 226 724 q 536 678 461 724 q 681 808 582 808 q 746 789 718 808 q 774 735 774 769 q 749 681 774 704 q 694 657 725 657 q 639 694 658 657 l 625 724 q 585 636 600 686 q 638 483 638 574 q 560 306 638 371 q 357 242 482 242 q 244 256 290 242 q 200 172 200 206 q 224 128 200 140 q 297 115 247 115 l 475 115 q 656 78 590 115 q 721 -64 721 40 q 619 -256 721 -193 q 353 -318 518 -318 m 354 315 q 467 358 428 315 q 506 479 506 401 q 464 607 506 561 q 346 653 422 653 q 200 483 200 653 q 243 360 200 404 q 354 315 286 315 m 364 -231 q 531 -194 472 -231 q 589 -97 589 -158 q 460 -11 589 -11 l 226 -11 q 163 -126 163 -60 q 210 -207 163 -183 q 364 -231 257 -231 z "},"Ğ":{"ha":1056,"x_min":82,"x_max":1010,"o":"m 518 1058 q 365 1123 419 1058 q 301 1286 311 1188 l 357 1303 q 417 1201 376 1233 q 525 1169 457 1169 q 692 1301 657 1169 l 744 1288 q 677 1127 736 1196 q 518 1058 618 1058 m 528 -19 q 327 22 415 -19 q 187 135 239 64 q 108 292 135 206 q 82 472 82 378 q 206 853 82 714 q 524 992 329 992 q 758 907 674 992 l 772 994 l 840 994 l 904 671 l 828 654 q 715 844 786 783 q 532 904 644 904 q 306 794 382 904 q 231 485 231 685 q 311 191 231 310 q 538 72 392 72 q 763 167 692 72 l 763 319 q 754 367 763 354 q 717 385 746 379 l 633 397 l 633 464 l 1010 464 l 1010 397 l 936 385 q 902 365 910 381 q 894 314 894 349 l 894 -4 l 835 -4 l 799 61 q 528 -19 688 -19 z "},"ğ":{"ha":775,"x_min":35,"x_max":774,"o":"m 356 815 q 214 883 264 815 q 153 1050 164 950 l 208 1067 q 363 926 249 926 q 515 1065 479 926 l 568 1051 q 504 887 560 958 q 356 815 449 815 m 353 -318 q 35 -147 35 -318 q 161 11 35 -47 l 161 17 q 101 61 121 29 q 81 124 81 93 q 101 197 81 164 q 171 282 121 229 l 171 286 q 68 476 68 339 q 147 657 68 590 q 356 724 226 724 q 536 678 461 724 q 681 808 582 808 q 746 789 718 808 q 774 735 774 769 q 749 681 774 704 q 694 657 725 657 q 639 694 658 657 l 625 724 q 585 636 600 686 q 638 483 638 574 q 560 306 638 371 q 357 242 482 242 q 244 256 290 242 q 200 172 200 206 q 224 128 200 140 q 297 115 247 115 l 475 115 q 656 78 590 115 q 721 -64 721 40 q 619 -256 721 -193 q 353 -318 518 -318 m 354 315 q 467 358 428 315 q 506 479 506 401 q 464 607 506 561 q 346 653 422 653 q 200 483 200 653 q 243 360 200 404 q 354 315 286 315 m 364 -231 q 531 -194 472 -231 q 589 -97 589 -158 q 460 -11 589 -11 l 226 -11 q 163 -126 163 -60 q 210 -207 163 -183 q 364 -231 257 -231 z "},"Ġ":{"ha":1056,"x_min":82,"x_max":1010,"o":"m 521 1065 q 454 1091 481 1065 q 428 1157 428 1117 q 454 1224 428 1197 q 521 1250 481 1250 q 589 1224 563 1250 q 615 1158 615 1199 q 589 1092 615 1118 q 521 1065 563 1065 m 528 -19 q 327 22 415 -19 q 187 135 239 64 q 108 292 135 206 q 82 472 82 378 q 206 853 82 714 q 524 992 329 992 q 758 907 674 992 l 772 994 l 840 994 l 904 671 l 828 654 q 715 844 786 783 q 532 904 644 904 q 306 794 382 904 q 231 485 231 685 q 311 191 231 310 q 538 72 392 72 q 763 167 692 72 l 763 319 q 754 367 763 354 q 717 385 746 379 l 633 397 l 633 464 l 1010 464 l 1010 397 l 936 385 q 902 365 910 381 q 894 314 894 349 l 894 -4 l 835 -4 l 799 61 q 528 -19 688 -19 z "},"ġ":{"ha":775,"x_min":35,"x_max":774,"o":"m 358 861 q 292 887 318 861 q 265 953 265 913 q 292 1019 265 993 q 358 1046 318 1046 q 426 1020 400 1046 q 453 954 453 994 q 426 888 453 914 q 358 861 400 861 m 353 -318 q 35 -147 35 -318 q 161 11 35 -47 l 161 17 q 101 61 121 29 q 81 124 81 93 q 101 197 81 164 q 171 282 121 229 l 171 286 q 68 476 68 339 q 147 657 68 590 q 356 724 226 724 q 536 678 461 724 q 681 808 582 808 q 746 789 718 808 q 774 735 774 769 q 749 681 774 704 q 694 657 725 657 q 639 694 658 657 l 625 724 q 585 636 600 686 q 638 483 638 574 q 560 306 638 371 q 357 242 482 242 q 244 256 290 242 q 200 172 200 206 q 224 128 200 140 q 297 115 247 115 l 475 115 q 656 78 590 115 q 721 -64 721 40 q 619 -256 721 -193 q 353 -318 518 -318 m 354 315 q 467 358 428 315 q 506 479 506 401 q 464 607 506 561 q 346 653 422 653 q 200 483 200 653 q 243 360 200 404 q 354 315 286 315 m 364 -231 q 531 -194 472 -231 q 589 -97 589 -158 q 460 -11 589 -11 l 226 -11 q 163 -126 163 -60 q 210 -207 163 -183 q 364 -231 257 -231 z "},"Ģ":{"ha":1056,"x_min":82,"x_max":1010,"o":"m 528 -19 q 327 22 415 -19 q 187 135 239 64 q 108 292 135 206 q 82 472 82 378 q 206 853 82 714 q 524 992 329 992 q 758 907 674 992 l 772 994 l 840 994 l 904 671 l 828 654 q 715 844 786 783 q 532 904 644 904 q 306 794 382 904 q 231 485 231 685 q 311 191 231 310 q 538 72 392 72 q 763 167 692 72 l 763 319 q 754 367 763 354 q 717 385 746 379 l 633 397 l 633 464 l 1010 464 l 1010 397 l 936 385 q 902 365 910 381 q 894 314 894 349 l 894 -4 l 835 -4 l 799 61 q 528 -19 688 -19 m 521 -287 q 454 -262 481 -287 q 428 -196 428 -236 q 454 -129 428 -156 q 521 -103 481 -103 q 589 -128 563 -103 q 615 -194 615 -154 q 589 -261 615 -235 q 521 -287 563 -287 z "},"ģ":{"ha":775,"x_min":35,"x_max":774,"o":"m 363 803 q 294 833 318 803 q 269 903 269 863 q 303 1014 269 960 q 396 1097 336 1068 l 426 1057 q 360 942 360 1000 l 371 942 q 442 883 442 942 q 419 826 442 849 q 363 803 397 803 m 353 -318 q 35 -147 35 -318 q 161 11 35 -47 l 161 17 q 101 61 121 29 q 81 124 81 93 q 101 197 81 164 q 171 282 121 229 l 171 286 q 68 476 68 339 q 147 657 68 590 q 356 724 226 724 q 536 678 461 724 q 681 808 582 808 q 746 789 718 808 q 774 735 774 769 q 749 681 774 704 q 694 657 725 657 q 639 694 658 657 l 625 724 q 585 636 600 686 q 638 483 638 574 q 560 306 638 371 q 357 242 482 242 q 244 256 290 242 q 200 172 200 206 q 224 128 200 140 q 297 115 247 115 l 475 115 q 656 78 590 115 q 721 -64 721 40 q 619 -256 721 -193 q 353 -318 518 -318 m 354 315 q 467 358 428 315 q 506 479 506 401 q 464 607 506 561 q 346 653 422 653 q 200 483 200 653 q 243 360 200 404 q 354 315 286 315 m 364 -231 q 531 -194 472 -231 q 589 -97 589 -158 q 460 -11 589 -11 l 226 -11 q 163 -126 163 -60 q 210 -207 163 -183 q 364 -231 257 -231 z "},"Ĥ":{"ha":1167,"x_min":86,"x_max":1079,"o":"m 390 1042 l 357 1076 l 531 1267 q 585 1297 558 1297 q 642 1258 604 1297 l 810 1078 l 775 1042 l 585 1158 l 390 1042 m 86 0 l 86 67 l 167 79 q 202 99 194 83 q 210 150 210 115 l 210 828 q 201 875 210 863 q 164 893 193 888 l 86 906 l 86 972 l 469 972 l 469 906 l 389 893 q 355 873 363 889 q 347 822 347 857 l 347 543 l 819 543 l 819 828 q 811 875 819 863 q 774 893 803 888 l 697 906 l 697 972 l 1079 972 l 1079 906 l 1000 893 q 965 873 972 889 q 957 822 957 857 l 957 144 q 965 97 957 110 q 1003 79 974 85 l 1079 67 l 1079 0 l 697 0 l 697 67 l 776 79 q 812 99 804 83 q 819 150 819 115 l 819 456 l 347 456 l 347 144 q 355 97 347 110 q 392 79 363 85 l 469 67 l 469 0 l 86 0 z "},"ĥ":{"ha":919,"x_min":-25,"x_max":876,"o":"m 8 1111 l -25 1146 l 149 1336 q 203 1367 176 1367 q 260 1328 222 1367 l 428 1147 l 393 1111 l 203 1228 l 8 1111 m 76 0 l 76 65 l 140 78 q 172 97 165 82 q 179 144 179 111 l 179 894 q 169 957 179 942 q 119 978 160 972 l 58 988 l 67 1057 l 293 1064 l 308 1049 l 308 594 q 400 686 338 649 q 540 724 463 724 q 715 658 661 724 q 768 486 768 592 l 768 133 q 776 93 768 104 q 811 76 783 82 l 876 65 l 876 0 l 536 0 l 536 64 l 597 75 q 631 92 624 81 q 639 133 639 103 l 639 446 q 635 516 639 489 q 617 570 631 543 q 575 610 604 597 q 500 624 546 624 q 365 575 421 624 q 308 431 308 526 l 308 139 q 315 96 308 108 q 343 79 321 83 l 417 64 l 417 0 l 76 0 z "},"Ħ":{"ha":1167,"x_min":67,"x_max":1094,"o":"m 1094 683 l 957 683 l 957 144 q 965 97 957 110 q 1003 79 974 85 l 1079 67 l 1079 0 l 697 0 l 697 67 l 776 79 q 812 99 804 83 q 819 150 819 115 l 819 456 l 347 456 l 347 144 q 355 97 347 110 q 392 79 363 85 l 469 67 l 469 0 l 86 0 l 86 67 l 167 79 q 202 99 194 83 q 210 150 210 115 l 210 683 l 67 683 l 78 763 l 210 763 l 210 828 q 201 875 210 863 q 164 893 193 888 l 86 906 l 86 972 l 469 972 l 469 906 l 389 893 q 355 873 363 889 q 347 822 347 857 l 347 763 l 819 763 l 819 828 q 811 875 819 863 q 774 893 803 888 l 697 906 l 697 972 l 1079 972 l 1079 906 l 1000 893 q 965 873 972 889 q 957 822 957 857 l 957 763 l 1094 763 l 1094 683 m 819 543 l 819 683 l 347 683 l 347 543 l 819 543 z "},"ħ":{"ha":919,"x_min":43,"x_max":876,"o":"m 811 76 l 876 65 l 876 0 l 536 0 l 536 64 l 597 75 q 631 92 624 81 q 639 133 639 103 l 639 446 q 635 516 639 489 q 617 570 631 543 q 575 610 604 597 q 500 624 546 624 q 365 575 421 624 q 308 431 308 526 l 308 139 q 315 96 308 108 q 343 79 321 83 l 417 64 l 417 0 l 76 0 l 76 65 l 140 78 q 172 97 165 82 q 179 144 179 111 l 179 804 l 43 804 l 54 883 l 179 883 l 179 894 q 169 957 179 942 q 119 978 160 972 l 58 988 l 67 1057 l 293 1064 l 308 1049 l 308 883 l 507 883 l 507 804 l 308 804 l 308 594 q 400 686 338 649 q 540 724 463 724 q 715 658 661 724 q 768 486 768 592 l 768 133 q 776 93 768 104 q 811 76 783 82 z "},"Ĩ":{"ha":557,"x_min":47,"x_max":510,"o":"m 385 1079 q 257 1113 335 1079 q 156 1146 176 1146 q 124 1137 136 1146 q 90 1096 111 1128 l 47 1122 q 110 1226 83 1200 q 176 1253 136 1253 q 300 1217 213 1253 q 406 1183 381 1183 q 430 1190 419 1183 q 446 1205 440 1197 q 467 1235 451 1213 l 510 1208 q 449 1107 475 1135 q 385 1079 422 1079 m 81 0 l 81 67 l 167 79 q 202 99 194 83 q 210 150 210 115 l 210 828 q 201 875 210 863 q 164 893 193 888 l 81 906 l 81 972 l 476 972 l 476 906 l 389 893 q 355 873 363 889 q 347 822 347 857 l 347 144 q 355 97 347 110 q 392 79 363 85 l 476 67 l 476 0 l 81 0 z "},"ĩ":{"ha":463,"x_min":-17,"x_max":439,"o":"m 314 861 q 189 894 267 861 q 92 929 106 929 q 60 919 74 929 q 26 878 47 910 l -17 904 q 46 1006 19 981 q 113 1031 72 1031 q 232 997 151 1031 q 335 964 313 964 q 359 971 349 964 q 375 985 369 978 q 396 1015 381 993 l 439 989 q 378 889 404 917 q 314 861 353 861 m 56 0 l 56 68 l 135 81 q 165 94 156 83 q 176 115 175 104 q 178 151 178 126 l 178 531 q 169 597 178 581 q 128 618 161 614 l 61 628 l 71 697 l 290 708 l 307 701 l 307 146 q 315 100 307 114 q 351 81 324 86 l 429 67 l 429 0 l 56 0 z "},"Ī":{"ha":557,"x_min":81,"x_max":476,"o":"m 81 1104 l 81 1206 l 475 1206 l 475 1104 l 81 1104 m 81 0 l 81 67 l 167 79 q 202 99 194 83 q 210 150 210 115 l 210 828 q 201 875 210 863 q 164 893 193 888 l 81 906 l 81 972 l 476 972 l 476 906 l 389 893 q 355 873 363 889 q 347 822 347 857 l 347 144 q 355 97 347 110 q 392 79 363 85 l 476 67 l 476 0 l 81 0 z "},"ī":{"ha":463,"x_min":17,"x_max":429,"o":"m 17 882 l 17 983 l 406 983 l 406 882 l 17 882 m 56 0 l 56 68 l 135 81 q 165 94 156 83 q 176 115 175 104 q 178 151 178 126 l 178 531 q 169 597 178 581 q 128 618 161 614 l 61 628 l 71 697 l 290 708 l 307 701 l 307 146 q 315 100 307 114 q 351 81 324 86 l 429 67 l 429 0 l 56 0 z "},"Ĭ":{"ha":557,"x_min":57,"x_max":500,"o":"m 274 1044 q 121 1109 175 1044 q 57 1272 67 1174 l 113 1289 q 172 1188 132 1219 q 281 1156 213 1156 q 447 1288 413 1156 l 500 1274 q 433 1113 492 1182 q 274 1044 374 1044 m 81 0 l 81 67 l 167 79 q 202 99 194 83 q 210 150 210 115 l 210 828 q 201 875 210 863 q 164 893 193 888 l 81 906 l 81 972 l 476 972 l 476 906 l 389 893 q 355 873 363 889 q 347 822 347 857 l 347 144 q 355 97 347 110 q 392 79 363 85 l 476 67 l 476 0 l 81 0 z "},"ĭ":{"ha":463,"x_min":4,"x_max":429,"o":"m 207 815 q 65 883 115 815 q 4 1050 15 950 l 60 1067 q 214 926 100 926 q 367 1065 331 926 l 419 1051 q 356 887 411 958 q 207 815 300 815 m 56 0 l 56 68 l 135 81 q 165 94 156 83 q 176 115 175 104 q 178 151 178 126 l 178 531 q 169 597 178 581 q 128 618 161 614 l 61 628 l 71 697 l 290 708 l 307 701 l 307 146 q 315 100 307 114 q 351 81 324 86 l 429 67 l 429 0 l 56 0 z "},"Į":{"ha":557,"x_min":81,"x_max":476,"o":"m 389 893 q 355 873 363 889 q 347 822 347 857 l 347 144 q 355 97 347 110 q 392 79 363 85 l 476 67 l 476 0 l 367 0 q 254 -171 254 -92 q 311 -228 254 -228 q 379 -215 339 -228 l 394 -264 q 263 -318 329 -318 q 169 -286 204 -318 q 135 -206 135 -254 q 288 0 135 -97 l 81 0 l 81 67 l 167 79 q 202 99 194 83 q 210 150 210 115 l 210 828 q 201 875 210 863 q 164 893 193 888 l 81 906 l 81 972 l 476 972 l 476 906 l 389 893 z "},"į":{"ha":463,"x_min":56,"x_max":429,"o":"m 222 861 q 156 887 182 861 q 129 953 129 913 q 156 1019 129 993 q 222 1046 182 1046 q 290 1020 264 1046 q 317 954 317 994 q 290 888 317 914 q 222 861 264 861 m 338 0 q 225 -171 225 -92 q 282 -228 225 -228 q 350 -215 310 -228 l 365 -264 q 233 -318 300 -318 q 140 -286 175 -318 q 106 -206 106 -254 q 258 0 106 -97 l 56 0 l 56 68 l 135 81 q 165 94 156 83 q 176 115 175 104 q 178 151 178 126 l 178 531 q 169 597 178 581 q 128 618 161 614 l 61 628 l 71 697 l 290 708 l 307 701 l 307 146 q 315 100 307 114 q 351 81 324 86 l 429 67 l 429 0 l 338 0 z "},"İ":{"ha":557,"x_min":81,"x_max":476,"o":"m 276 1065 q 210 1091 236 1065 q 183 1157 183 1117 q 210 1224 183 1197 q 276 1250 236 1250 q 344 1224 318 1250 q 371 1158 371 1199 q 344 1092 371 1118 q 276 1065 318 1065 m 81 0 l 81 67 l 167 79 q 202 99 194 83 q 210 150 210 115 l 210 828 q 201 875 210 863 q 164 893 193 888 l 81 906 l 81 972 l 476 972 l 476 906 l 389 893 q 355 873 363 889 q 347 822 347 857 l 347 144 q 355 97 347 110 q 392 79 363 85 l 476 67 l 476 0 l 81 0 z "},"ı":{"ha":463,"x_min":56,"x_max":429,"o":"m 56 0 l 56 68 l 135 81 q 165 94 156 83 q 176 115 175 104 q 178 151 178 126 l 178 531 q 169 597 178 581 q 128 618 161 614 l 61 628 l 71 697 l 290 708 l 307 701 l 307 146 q 315 100 307 114 q 351 81 324 86 l 429 67 l 429 0 l 56 0 z "},"Ĵ":{"ha":799,"x_min":81,"x_max":781,"o":"m 361 1042 l 328 1076 l 501 1267 q 556 1297 529 1297 q 613 1258 575 1297 l 781 1078 l 746 1042 l 556 1158 l 361 1042 m 329 -19 q 153 26 226 -19 q 81 150 81 71 q 109 231 81 197 q 185 264 138 264 q 250 247 228 264 q 272 201 272 229 q 231 103 272 172 q 338 69 268 69 q 449 122 414 69 q 483 279 483 174 l 483 825 q 475 873 483 860 q 438 890 467 886 l 340 904 l 340 972 l 750 972 l 750 906 l 663 893 q 628 874 636 889 q 621 822 621 858 l 621 311 q 608 197 621 250 q 566 93 596 144 q 476 11 536 42 q 329 -19 415 -19 z "},"ĵ":{"ha":429,"x_min":-15,"x_max":406,"o":"m 21 806 l -15 840 l 143 1051 q 197 1082 168 1082 q 254 1043 225 1082 l 406 842 l 368 806 l 197 944 l 21 806 m 86 -318 l 47 -261 q 141 -137 114 -208 q 168 39 168 -67 l 168 531 q 160 597 168 581 q 118 618 151 614 l 51 628 l 63 697 l 281 708 l 297 701 l 297 132 q 251 -155 297 -57 q 86 -318 206 -253 z "},"Ķ":{"ha":1047,"x_min":86,"x_max":1021,"o":"m 878 -19 q 752 12 803 -19 q 654 118 701 43 l 436 467 l 353 382 l 353 144 q 360 97 353 110 q 397 79 368 85 l 482 67 l 482 0 l 86 0 l 86 67 l 172 79 q 208 99 200 83 q 215 150 215 115 l 215 828 q 207 875 215 863 q 169 893 199 888 l 86 906 l 86 972 l 482 972 l 482 906 l 394 893 q 360 874 368 889 q 353 822 353 858 l 353 486 l 690 824 q 707 869 714 849 q 672 893 700 889 l 606 904 l 619 972 l 949 972 l 949 903 l 896 892 q 853 874 871 886 q 801 828 835 861 l 532 557 l 775 189 q 856 96 822 118 q 944 74 889 74 q 1007 86 969 74 l 1021 36 q 878 -19 968 -19 m 488 -372 l 454 -332 q 521 -219 521 -275 l 507 -219 q 436 -156 436 -219 q 459 -99 436 -121 q 521 -78 482 -78 q 591 -107 568 -78 q 614 -178 614 -136 q 581 -289 614 -235 q 488 -372 547 -343 z "},"ķ":{"ha":847,"x_min":60,"x_max":858,"o":"m 60 0 l 60 67 l 139 79 q 169 92 160 82 q 181 114 179 103 q 182 150 182 125 l 182 894 q 172 957 182 942 q 122 978 163 972 l 61 988 l 68 1057 l 296 1064 l 311 1049 l 311 144 q 318 99 311 113 q 349 79 325 85 l 399 68 l 399 0 l 60 0 m 733 -12 q 638 10 672 -12 q 556 90 604 32 l 321 369 l 321 381 l 542 579 q 560 613 561 597 q 542 631 558 628 l 479 640 l 492 704 l 803 704 l 803 642 l 763 631 q 665 578 710 615 l 458 403 l 689 140 q 790 82 742 82 q 844 93 811 82 l 858 43 q 733 -12 800 -12 m 406 -372 l 372 -332 q 439 -219 439 -275 l 425 -219 q 354 -156 354 -219 q 377 -99 354 -121 q 439 -78 400 -78 q 509 -107 486 -78 q 532 -178 532 -136 q 499 -289 532 -235 q 406 -372 465 -343 z "},"ĸ":{"ha":847,"x_min":60,"x_max":858,"o":"m 60 0 l 60 67 l 139 79 q 169 92 160 82 q 181 114 179 103 q 182 150 182 125 l 182 543 q 172 606 182 590 q 122 626 163 621 l 61 636 l 68 706 l 296 713 l 311 697 l 311 144 q 318 99 311 113 q 349 79 325 85 l 399 68 l 399 0 l 60 0 m 733 -12 q 638 10 672 -12 q 556 90 604 32 l 321 369 l 321 381 l 542 579 q 560 613 561 597 q 542 631 558 628 l 479 640 l 492 704 l 803 704 l 803 642 l 763 631 q 665 578 710 615 l 458 403 l 689 140 q 785 82 739 85 q 844 93 813 82 l 858 43 q 733 -12 800 -12 z "},"Ĺ":{"ha":885,"x_min":86,"x_max":801,"o":"m 175 1044 l 147 1083 l 329 1249 q 383 1281 365 1281 q 426 1260 408 1281 q 443 1214 443 1239 q 385 1136 443 1161 l 175 1044 m 86 0 l 86 67 l 167 79 q 202 99 194 83 q 210 150 210 115 l 210 828 q 201 875 210 863 q 164 893 193 888 l 86 906 l 86 972 l 483 972 l 483 906 l 392 893 q 355 875 363 888 q 347 828 347 863 l 347 76 l 504 76 q 644 121 603 76 q 725 297 685 165 l 801 297 l 767 0 l 86 0 z "},"ĺ":{"ha":463,"x_min":56,"x_max":429,"o":"m 96 1114 l 68 1153 l 250 1318 q 304 1350 286 1350 q 347 1329 329 1350 q 364 1283 364 1308 q 306 1206 364 1231 l 96 1114 m 56 0 l 56 68 l 135 81 q 165 94 156 83 q 176 115 175 104 q 178 151 178 126 l 178 893 q 168 956 178 940 q 118 976 158 971 l 57 986 l 65 1057 l 292 1064 l 307 1049 l 307 146 q 315 100 307 114 q 351 81 324 86 l 429 67 l 429 0 l 56 0 z "},"Ļ":{"ha":885,"x_min":86,"x_max":801,"o":"m 86 0 l 86 67 l 167 79 q 202 99 194 83 q 210 150 210 115 l 210 828 q 201 875 210 863 q 164 893 193 888 l 86 906 l 86 972 l 483 972 l 483 906 l 392 893 q 355 875 363 888 q 347 828 347 863 l 347 76 l 504 76 q 644 121 603 76 q 725 297 685 165 l 801 297 l 767 0 l 86 0 m 415 -372 l 382 -332 q 449 -219 449 -275 l 435 -219 q 364 -156 364 -219 q 387 -99 364 -121 q 449 -78 410 -78 q 519 -107 496 -78 q 542 -178 542 -136 q 508 -289 542 -235 q 415 -372 475 -343 z "},"ļ":{"ha":463,"x_min":56,"x_max":429,"o":"m 56 0 l 56 68 l 135 81 q 165 94 156 83 q 176 115 175 104 q 178 151 178 126 l 178 893 q 168 956 178 940 q 118 976 158 971 l 57 986 l 65 1057 l 292 1064 l 307 1049 l 307 146 q 315 100 307 114 q 351 81 324 86 l 429 67 l 429 0 l 56 0 m 204 -372 l 171 -332 q 238 -219 238 -275 l 224 -219 q 153 -156 153 -219 q 176 -99 153 -121 q 238 -78 199 -78 q 308 -107 285 -78 q 331 -178 331 -136 q 297 -289 331 -235 q 204 -372 264 -343 z "},"Ľ":{"ha":885,"x_min":86,"x_max":801,"o":"m 597 751 l 561 790 q 618 904 618 865 q 596 951 618 928 q 568 1004 568 981 q 590 1051 568 1036 q 640 1067 611 1067 q 704 1039 683 1067 q 725 972 725 1011 q 691 860 725 921 q 597 751 657 799 m 86 0 l 86 67 l 167 79 q 202 99 194 83 q 210 150 210 115 l 210 828 q 201 875 210 863 q 164 893 193 888 l 86 906 l 86 972 l 483 972 l 483 906 l 392 893 q 355 875 363 888 q 347 828 347 863 l 347 76 l 504 76 q 644 121 603 76 q 725 297 685 165 l 801 297 l 767 0 l 86 0 z "},"ľ":{"ha":540,"x_min":56,"x_max":539,"o":"m 411 751 l 375 790 q 432 904 432 865 q 410 951 432 928 q 382 1004 382 981 q 403 1051 382 1036 q 454 1067 425 1067 q 518 1039 497 1067 q 539 972 539 1011 q 505 860 539 921 q 411 751 471 799 m 56 0 l 56 68 l 135 81 q 165 94 156 83 q 176 115 175 104 q 178 151 178 126 l 178 893 q 168 956 178 940 q 118 976 158 971 l 57 986 l 65 1057 l 292 1064 l 307 1049 l 307 146 q 315 100 307 114 q 351 81 324 86 l 429 67 l 429 0 l 56 0 z "},"Ŀ":{"ha":885,"x_min":86,"x_max":801,"o":"m 86 0 l 86 67 l 167 79 q 202 99 194 83 q 210 150 210 115 l 210 828 q 201 875 210 863 q 164 893 193 888 l 86 906 l 86 972 l 483 972 l 483 906 l 392 893 q 355 875 363 888 q 347 828 347 863 l 347 76 l 504 76 q 644 121 603 76 q 725 297 685 165 l 801 297 l 767 0 l 86 0 m 703 442 q 636 467 663 442 q 610 533 610 493 q 636 600 610 574 q 703 626 663 626 q 771 601 744 626 q 797 535 797 575 q 771 468 797 494 q 703 442 744 442 z "},"ŀ":{"ha":549,"x_min":56,"x_max":604,"o":"m 56 0 l 56 68 l 135 81 q 165 94 156 83 q 176 115 175 104 q 178 151 178 126 l 178 893 q 168 956 178 940 q 118 976 158 971 l 57 986 l 65 1057 l 292 1064 l 307 1049 l 307 146 q 315 100 307 114 q 351 81 324 86 l 429 67 l 429 0 l 56 0 m 510 458 q 443 484 469 458 q 417 550 417 510 q 443 617 417 590 q 510 643 469 643 q 578 617 551 643 q 604 551 604 592 q 578 485 604 511 q 510 458 551 458 z "},"Ł":{"ha":885,"x_min":39,"x_max":801,"o":"m 725 297 l 801 297 l 767 0 l 86 0 l 86 67 l 167 79 q 202 99 194 83 q 210 150 210 115 l 210 418 l 39 326 l 39 421 l 210 511 l 210 828 q 201 875 210 863 q 164 893 193 888 l 86 906 l 86 972 l 483 972 l 483 906 l 392 893 q 355 875 363 888 q 347 828 347 863 l 347 571 l 614 714 l 614 621 l 347 478 l 347 76 l 504 76 q 644 121 603 76 q 725 297 685 165 z "},"ł":{"ha":499,"x_min":42,"x_max":464,"o":"m 464 614 l 315 533 l 315 146 q 324 100 315 114 q 360 81 332 86 l 438 67 l 438 0 l 64 0 l 64 68 l 143 81 q 174 94 164 83 q 185 115 183 104 q 186 151 186 126 l 186 478 l 42 399 l 42 499 l 186 576 l 186 893 q 176 956 186 940 q 126 976 167 971 l 65 986 l 74 1057 l 300 1064 l 315 1049 l 315 632 l 464 713 l 464 614 z "},"Ń":{"ha":1144,"x_min":88,"x_max":1075,"o":"m 469 1044 l 442 1083 l 624 1249 q 678 1281 660 1281 q 720 1260 703 1281 q 738 1214 738 1239 q 679 1136 738 1161 l 469 1044 m 88 0 l 88 67 l 168 79 q 202 99 194 83 q 210 150 210 115 l 210 828 q 202 875 210 863 q 165 893 194 888 l 88 906 l 88 972 l 396 972 l 857 179 l 857 828 q 849 875 857 863 q 811 893 840 888 l 735 906 l 735 972 l 1075 972 l 1075 906 l 996 893 q 960 873 968 889 q 953 822 953 857 l 953 0 l 810 0 l 307 846 l 307 144 q 315 97 307 110 q 351 79 322 85 l 429 67 l 429 0 l 88 0 z "},"ń":{"ha":919,"x_min":64,"x_max":876,"o":"m 396 806 l 363 840 l 513 1039 q 567 1079 544 1079 q 615 1058 596 1079 q 633 1008 633 1036 q 585 935 633 964 l 396 806 m 76 0 l 76 65 l 143 78 q 174 96 168 82 q 179 144 179 110 l 179 536 q 171 601 179 585 q 132 622 163 617 l 64 632 l 74 699 l 267 714 l 283 704 l 293 581 l 297 581 q 394 681 331 639 q 540 724 457 724 q 715 658 661 724 q 768 486 768 592 l 768 133 q 776 93 768 104 q 811 76 783 82 l 876 65 l 876 0 l 536 0 l 536 64 l 597 75 q 631 92 624 81 q 639 133 639 103 l 639 446 q 635 516 639 489 q 617 570 631 543 q 575 610 604 597 q 500 624 546 624 q 365 575 421 624 q 308 431 308 526 l 308 139 q 315 96 308 108 q 343 79 321 83 l 417 64 l 417 0 l 76 0 z "},"Ņ":{"ha":1144,"x_min":88,"x_max":1075,"o":"m 88 0 l 88 67 l 168 79 q 202 99 194 83 q 210 150 210 115 l 210 828 q 202 875 210 863 q 165 893 194 888 l 88 906 l 88 972 l 396 972 l 857 179 l 857 828 q 849 875 857 863 q 811 893 840 888 l 735 906 l 735 972 l 1075 972 l 1075 906 l 996 893 q 960 873 968 889 q 953 822 953 857 l 953 0 l 810 0 l 307 846 l 307 144 q 315 97 307 110 q 351 79 322 85 l 429 67 l 429 0 l 88 0 m 533 -372 l 500 -332 q 567 -219 567 -275 l 553 -219 q 482 -156 482 -219 q 505 -99 482 -121 q 567 -78 528 -78 q 637 -107 614 -78 q 660 -178 660 -136 q 626 -289 660 -235 q 533 -372 593 -343 z "},"ņ":{"ha":919,"x_min":64,"x_max":876,"o":"m 76 0 l 76 65 l 143 78 q 174 96 168 82 q 179 144 179 110 l 179 536 q 171 601 179 585 q 132 622 163 617 l 64 632 l 74 699 l 267 714 l 283 704 l 293 581 l 297 581 q 394 681 331 639 q 540 724 457 724 q 715 658 661 724 q 768 486 768 592 l 768 133 q 776 93 768 104 q 811 76 783 82 l 876 65 l 876 0 l 536 0 l 536 64 l 597 75 q 631 92 624 81 q 639 133 639 103 l 639 446 q 635 516 639 489 q 617 570 631 543 q 575 610 604 597 q 500 624 546 624 q 365 575 421 624 q 308 431 308 526 l 308 139 q 315 96 308 108 q 343 79 321 83 l 417 64 l 417 0 l 76 0 m 435 -372 l 401 -332 q 468 -219 468 -275 l 454 -219 q 383 -156 383 -219 q 406 -99 383 -121 q 468 -78 429 -78 q 538 -107 515 -78 q 561 -178 561 -136 q 528 -289 561 -235 q 435 -372 494 -343 z "},"Ň":{"ha":1144,"x_min":88,"x_max":1075,"o":"m 572 1044 q 515 1083 553 1044 l 347 1264 l 382 1300 l 572 1183 l 767 1300 l 800 1265 l 626 1075 q 572 1044 599 1044 m 88 0 l 88 67 l 168 79 q 202 99 194 83 q 210 150 210 115 l 210 828 q 202 875 210 863 q 165 893 194 888 l 88 906 l 88 972 l 396 972 l 857 179 l 857 828 q 849 875 857 863 q 811 893 840 888 l 735 906 l 735 972 l 1075 972 l 1075 906 l 996 893 q 960 873 968 889 q 953 822 953 857 l 953 0 l 810 0 l 307 846 l 307 144 q 315 97 307 110 q 351 79 322 85 l 429 67 l 429 0 l 88 0 z "},"ň":{"ha":919,"x_min":64,"x_max":876,"o":"m 469 806 q 413 844 442 806 l 261 1046 l 299 1082 l 469 943 l 646 1082 l 682 1047 l 524 836 q 469 806 499 806 m 76 0 l 76 65 l 143 78 q 174 96 168 82 q 179 144 179 110 l 179 536 q 171 601 179 585 q 132 622 163 617 l 64 632 l 74 699 l 267 714 l 283 704 l 293 581 l 297 581 q 394 681 331 639 q 540 724 457 724 q 715 658 661 724 q 768 486 768 592 l 768 133 q 776 93 768 104 q 811 76 783 82 l 876 65 l 876 0 l 536 0 l 536 64 l 597 75 q 631 92 624 81 q 639 133 639 103 l 639 446 q 635 516 639 489 q 617 570 631 543 q 575 610 604 597 q 500 624 546 624 q 365 575 421 624 q 308 431 308 526 l 308 139 q 315 96 308 108 q 343 79 321 83 l 417 64 l 417 0 l 76 0 z "},"ŉ":{"ha":996,"x_min":-28,"x_max":953,"o":"m 24 685 l -10 725 q 57 838 57 782 l 43 838 q -28 901 -28 838 q -5 958 -28 936 q 57 979 18 979 q 127 950 104 979 q 150 879 150 921 q 117 768 150 822 q 24 685 83 714 m 153 0 l 153 65 l 219 78 q 250 96 244 82 q 256 144 256 110 l 256 536 q 247 601 256 585 q 208 622 239 617 l 140 632 l 150 699 l 343 714 l 360 704 l 369 581 l 374 581 q 470 681 407 639 q 617 724 533 724 q 791 658 738 724 q 844 486 844 592 l 844 133 q 852 93 844 104 q 888 76 860 82 l 953 65 l 953 0 l 613 0 l 613 64 l 674 75 q 708 92 700 81 q 715 133 715 103 l 715 446 q 711 516 715 489 q 694 570 707 543 q 651 610 681 597 q 576 624 622 624 q 441 575 497 624 q 385 431 385 526 l 385 139 q 391 96 385 108 q 419 79 397 83 l 493 64 l 493 0 l 153 0 z "},"Ŋ":{"ha":1144,"x_min":88,"x_max":1075,"o":"m 1075 972 l 1075 906 l 996 893 q 960 873 968 889 q 953 822 953 857 l 953 132 q 904 -154 953 -56 q 735 -318 856 -253 l 696 -261 q 786 -147 758 -211 q 817 10 814 -83 l 308 846 l 307 846 l 307 144 q 315 97 307 110 q 351 79 322 85 l 429 67 l 429 0 l 88 0 l 88 67 l 168 79 q 202 99 194 83 q 210 150 210 115 l 210 828 q 202 875 210 863 q 165 893 194 888 l 88 906 l 88 972 l 396 972 l 854 201 l 857 201 l 857 828 q 849 875 857 863 q 811 893 840 888 l 735 906 l 735 972 l 1075 972 z "},"ŋ":{"ha":896,"x_min":64,"x_max":768,"o":"m 540 724 q 715 658 661 724 q 768 486 768 592 l 768 132 q 722 -155 768 -57 q 557 -318 676 -253 l 518 -261 q 612 -137 585 -208 q 639 39 639 -67 l 639 446 q 635 516 639 489 q 617 570 631 543 q 575 610 604 597 q 500 624 546 624 q 365 575 421 624 q 308 431 308 526 l 308 139 q 315 96 308 108 q 343 79 321 83 l 417 64 l 417 0 l 76 0 l 76 65 l 143 78 q 174 96 168 82 q 179 144 179 110 l 179 536 q 171 601 179 585 q 132 622 163 617 l 64 632 l 74 699 l 267 714 l 283 704 l 293 581 l 297 581 q 394 681 331 639 q 540 724 457 724 z "},"Ō":{"ha":1082,"x_min":82,"x_max":999,"o":"m 346 1104 l 346 1206 l 740 1206 l 740 1104 l 346 1104 m 538 -19 q 205 117 328 -19 q 82 467 82 253 q 108 665 82 576 q 178 814 133 754 q 283 915 222 874 q 410 974 343 956 q 550 992 476 992 q 870 866 742 992 q 999 511 999 740 q 867 122 999 264 q 538 -19 736 -19 m 554 74 q 770 176 693 74 q 847 485 847 278 q 762 794 847 686 q 532 903 676 903 q 312 803 394 903 q 229 496 229 703 q 317 188 229 301 q 554 74 404 74 z "},"ō":{"ha":815,"x_min":65,"x_max":751,"o":"m 215 882 l 215 983 l 604 983 l 604 882 l 215 882 m 403 -19 q 154 79 243 -19 q 65 336 65 178 q 168 628 65 532 q 422 724 271 724 q 659 632 567 724 q 751 371 751 540 q 654 83 751 186 q 403 -19 557 -19 m 422 67 q 560 136 511 67 q 610 338 610 206 q 553 561 610 481 q 400 642 496 642 q 258 576 310 642 q 206 378 206 511 q 263 151 206 235 q 422 67 319 67 z "},"Ŏ":{"ha":1082,"x_min":82,"x_max":999,"o":"m 539 1044 q 386 1109 440 1044 q 322 1272 332 1174 l 378 1289 q 438 1188 397 1219 q 546 1156 478 1156 q 713 1288 678 1156 l 765 1274 q 698 1113 757 1182 q 539 1044 639 1044 m 538 -19 q 205 117 328 -19 q 82 467 82 253 q 108 665 82 576 q 178 814 133 754 q 283 915 222 874 q 410 974 343 956 q 550 992 476 992 q 870 866 742 992 q 999 511 999 740 q 867 122 999 264 q 538 -19 736 -19 m 554 74 q 770 176 693 74 q 847 485 847 278 q 762 794 847 686 q 532 903 676 903 q 312 803 394 903 q 229 496 229 703 q 317 188 229 301 q 554 74 404 74 z "},"ŏ":{"ha":815,"x_min":65,"x_max":751,"o":"m 406 815 q 264 883 314 815 q 203 1050 214 950 l 258 1067 q 413 926 299 926 q 565 1065 529 926 l 618 1051 q 554 887 610 958 q 406 815 499 815 m 403 -19 q 154 79 243 -19 q 65 336 65 178 q 168 628 65 532 q 422 724 271 724 q 659 632 567 724 q 751 371 751 540 q 654 83 751 186 q 403 -19 557 -19 m 422 67 q 560 136 511 67 q 610 338 610 206 q 553 561 610 481 q 400 642 496 642 q 258 576 310 642 q 206 378 206 511 q 263 151 206 235 q 422 67 319 67 z "},"Ő":{"ha":1082,"x_min":82,"x_max":999,"o":"m 388 1044 l 360 1083 l 522 1254 q 576 1286 558 1286 q 617 1265 601 1286 q 633 1219 633 1244 q 575 1142 633 1167 l 388 1044 m 635 1044 l 607 1083 l 771 1247 q 825 1279 803 1279 q 867 1260 850 1279 q 885 1217 885 1240 q 826 1139 885 1169 l 635 1044 m 538 -19 q 205 117 328 -19 q 82 467 82 253 q 108 665 82 576 q 178 814 133 754 q 283 915 222 874 q 410 974 343 956 q 550 992 476 992 q 870 866 742 992 q 999 511 999 740 q 867 122 999 264 q 538 -19 736 -19 m 554 74 q 770 176 693 74 q 847 485 847 278 q 762 794 847 686 q 532 903 676 903 q 312 803 394 903 q 229 496 229 703 q 317 188 229 301 q 554 74 404 74 z "},"ő":{"ha":815,"x_min":65,"x_max":751,"o":"m 289 806 l 256 840 l 372 1029 q 425 1069 397 1069 q 469 1053 454 1069 q 485 1008 485 1036 q 442 933 485 968 l 289 806 m 485 806 l 451 840 l 581 1025 q 636 1065 610 1065 q 681 1049 665 1065 q 696 1007 696 1032 q 649 928 696 961 l 485 806 m 403 -19 q 154 79 243 -19 q 65 336 65 178 q 168 628 65 532 q 422 724 271 724 q 659 632 567 724 q 751 371 751 540 q 654 83 751 186 q 403 -19 557 -19 m 422 67 q 560 136 511 67 q 610 338 610 206 q 553 561 610 481 q 400 642 496 642 q 258 576 310 642 q 206 378 206 511 q 263 151 206 235 q 422 67 319 67 z "},"Œ":{"ha":1514,"x_min":82,"x_max":1440,"o":"m 538 -19 q 205 117 328 -19 q 82 467 82 253 q 121 707 82 603 q 226 872 160 811 q 373 962 293 932 q 542 992 453 992 q 847 860 733 992 l 847 972 l 1358 972 l 1410 746 l 1338 722 q 1254 865 1296 832 q 1111 897 1213 897 l 976 897 l 976 538 l 1097 538 q 1131 538 1118 538 q 1158 540 1144 538 q 1177 543 1171 543 q 1191 551 1183 543 q 1201 560 1199 560 q 1208 576 1203 561 q 1214 594 1213 590 q 1220 621 1215 599 q 1226 651 1225 643 l 1290 660 l 1290 344 l 1226 333 q 1197 434 1214 417 q 1097 451 1179 451 l 976 451 l 976 75 l 1156 75 q 1295 109 1256 75 q 1364 256 1335 143 l 1440 256 l 1407 0 l 847 0 l 847 124 q 538 -19 729 -19 m 554 74 q 770 176 693 74 q 847 485 847 278 q 762 794 847 686 q 532 903 676 903 q 312 803 394 903 q 229 496 229 703 q 317 188 229 301 q 554 74 404 74 z "},"œ":{"ha":1261,"x_min":65,"x_max":1208,"o":"m 403 -19 q 154 79 243 -19 q 65 336 65 178 q 168 628 65 532 q 422 724 271 724 q 682 596 589 724 q 943 724 774 724 q 1126 658 1054 724 q 1199 478 1199 592 q 1179 342 1199 411 l 744 342 q 807 153 749 222 q 968 83 865 83 q 1160 167 1079 83 l 1208 118 q 1094 20 1165 60 q 936 -19 1022 -19 q 675 117 761 -19 q 403 -19 572 -19 m 751 419 l 1071 419 q 1075 483 1075 446 q 935 650 1075 650 q 751 419 772 650 m 422 67 q 560 136 511 67 q 610 338 610 206 q 553 561 610 481 q 400 642 496 642 q 258 576 310 642 q 206 378 206 511 q 263 151 206 235 q 422 67 319 67 z "},"Ŕ":{"ha":1007,"x_min":86,"x_max":969,"o":"m 361 1044 l 333 1083 l 515 1249 q 569 1281 551 1281 q 612 1260 594 1281 q 629 1214 629 1239 q 571 1136 629 1161 l 361 1044 m 829 -19 q 706 22 749 -19 q 625 158 664 64 l 558 318 q 501 420 526 394 q 410 446 475 446 q 347 442 375 446 l 347 147 q 357 97 347 111 q 399 78 367 82 l 496 67 l 496 0 l 86 0 l 86 67 l 167 79 q 202 99 194 83 q 210 150 210 115 l 210 828 q 201 875 210 863 q 164 893 193 888 l 86 906 l 86 972 l 435 972 q 808 724 808 972 q 783 617 808 665 q 717 539 757 568 q 640 493 678 510 q 567 469 601 476 l 567 465 q 653 421 622 450 q 707 339 685 392 l 756 225 q 783 160 775 178 q 809 116 792 142 q 846 82 826 90 q 893 74 865 74 q 956 86 918 74 l 969 36 q 829 -19 911 -19 m 425 513 q 600 567 540 513 q 660 715 660 622 q 599 858 660 818 q 425 897 539 897 l 347 897 l 347 515 q 425 513 369 513 z "},"ŕ":{"ha":657,"x_min":64,"x_max":647,"o":"m 308 806 l 275 840 l 425 1039 q 479 1079 457 1079 q 527 1058 508 1079 q 546 1008 546 1036 q 497 935 546 964 l 308 806 m 76 0 l 76 67 l 143 79 q 173 98 167 83 q 179 146 179 113 l 179 535 q 171 599 179 583 q 132 621 163 615 l 64 631 l 74 699 l 261 714 l 278 704 l 293 579 l 297 579 q 504 724 381 724 q 607 690 567 724 q 647 590 647 656 q 554 481 647 481 q 493 497 514 481 q 472 542 472 514 q 499 622 472 569 q 372 586 436 654 q 308 425 308 518 l 308 143 q 314 99 308 111 q 343 83 319 88 l 463 65 l 463 0 l 76 0 z "},"Ŗ":{"ha":1007,"x_min":86,"x_max":969,"o":"m 829 -19 q 706 22 749 -19 q 625 158 664 64 l 558 318 q 501 420 526 394 q 410 446 475 446 q 347 442 375 446 l 347 147 q 357 97 347 111 q 399 78 367 82 l 496 67 l 496 0 l 86 0 l 86 67 l 167 79 q 202 99 194 83 q 210 150 210 115 l 210 828 q 201 875 210 863 q 164 893 193 888 l 86 906 l 86 972 l 435 972 q 808 724 808 972 q 783 617 808 665 q 717 539 757 568 q 640 493 678 510 q 567 469 601 476 l 567 465 q 653 421 622 450 q 707 339 685 392 l 756 225 q 783 160 775 178 q 809 116 792 142 q 846 82 826 90 q 893 74 865 74 q 956 86 918 74 l 969 36 q 829 -19 911 -19 m 425 513 q 600 567 540 513 q 660 715 660 622 q 599 858 660 818 q 425 897 539 897 l 347 897 l 347 515 q 425 513 369 513 m 461 -372 l 428 -332 q 494 -219 494 -275 l 481 -219 q 410 -156 410 -219 q 433 -99 410 -121 q 494 -78 456 -78 q 565 -107 542 -78 q 588 -178 588 -136 q 554 -289 588 -235 q 461 -372 521 -343 z "},"ŗ":{"ha":657,"x_min":64,"x_max":647,"o":"m 76 0 l 76 67 l 143 79 q 173 98 167 83 q 179 146 179 113 l 179 535 q 171 599 179 583 q 132 621 163 615 l 64 631 l 74 699 l 261 714 l 278 704 l 293 579 l 297 579 q 504 724 381 724 q 607 690 567 724 q 647 590 647 656 q 554 481 647 481 q 493 497 514 481 q 472 542 472 514 q 499 622 472 569 q 372 586 436 654 q 308 425 308 518 l 308 143 q 314 99 308 111 q 343 83 319 88 l 463 65 l 463 0 l 76 0 m 204 -372 l 171 -332 q 238 -219 238 -275 l 224 -219 q 153 -156 153 -219 q 176 -99 153 -121 q 238 -78 199 -78 q 308 -107 285 -78 q 331 -178 331 -136 q 297 -289 331 -235 q 204 -372 264 -343 z "},"Ř":{"ha":1007,"x_min":86,"x_max":969,"o":"m 443 1044 q 386 1083 424 1044 l 218 1264 l 253 1300 l 443 1183 l 638 1300 l 671 1265 l 497 1075 q 443 1044 469 1044 m 829 -19 q 706 22 749 -19 q 625 158 664 64 l 558 318 q 501 420 526 394 q 410 446 475 446 q 347 442 375 446 l 347 147 q 357 97 347 111 q 399 78 367 82 l 496 67 l 496 0 l 86 0 l 86 67 l 167 79 q 202 99 194 83 q 210 150 210 115 l 210 828 q 201 875 210 863 q 164 893 193 888 l 86 906 l 86 972 l 435 972 q 808 724 808 972 q 783 617 808 665 q 717 539 757 568 q 640 493 678 510 q 567 469 601 476 l 567 465 q 653 421 622 450 q 707 339 685 392 l 756 225 q 783 160 775 178 q 809 116 792 142 q 846 82 826 90 q 893 74 865 74 q 956 86 918 74 l 969 36 q 829 -19 911 -19 m 425 513 q 600 567 540 513 q 660 715 660 622 q 599 858 660 818 q 425 897 539 897 l 347 897 l 347 515 q 425 513 369 513 z "},"ř":{"ha":657,"x_min":64,"x_max":647,"o":"m 379 806 q 322 844 351 806 l 171 1046 l 208 1082 l 379 943 l 556 1082 l 592 1047 l 433 836 q 379 806 408 806 m 76 0 l 76 67 l 143 79 q 173 98 167 83 q 179 146 179 113 l 179 535 q 171 599 179 583 q 132 621 163 615 l 64 631 l 74 699 l 261 714 l 278 704 l 293 579 l 297 579 q 504 724 381 724 q 607 690 567 724 q 647 590 647 656 q 554 481 647 481 q 493 497 514 481 q 472 542 472 514 q 499 622 472 569 q 372 586 436 654 q 308 425 308 518 l 308 143 q 314 99 308 111 q 343 83 319 88 l 463 65 l 463 0 l 76 0 z "},"Ś":{"ha":851,"x_min":92,"x_max":764,"o":"m 324 1044 l 296 1083 l 478 1249 q 532 1281 514 1281 q 574 1260 557 1281 q 592 1214 592 1239 q 533 1136 592 1161 l 324 1044 m 453 -19 q 306 8 371 -19 q 203 74 242 36 l 181 -8 l 119 -8 l 92 292 l 171 299 q 449 69 256 69 q 583 112 536 69 q 629 229 629 154 q 613 310 629 276 q 561 368 597 344 q 494 405 525 392 q 411 436 464 418 q 352 456 365 451 q 297 478 339 461 q 241 507 256 496 q 198 542 226 518 q 158 589 169 565 q 137 647 147 613 q 126 724 126 682 q 203 913 126 835 q 424 992 281 992 q 629 919 544 992 l 647 992 l 713 992 l 743 711 l 665 700 q 570 867 631 819 q 428 915 510 915 q 308 874 354 915 q 261 763 261 832 q 277 689 261 721 q 328 634 293 657 q 393 599 364 611 q 476 568 422 586 q 536 547 519 553 q 592 524 553 540 q 648 494 631 507 q 692 459 665 482 q 732 412 719 436 q 754 353 744 388 q 764 278 764 318 q 684 71 764 161 q 453 -19 604 -19 z "},"ś":{"ha":628,"x_min":68,"x_max":586,"o":"m 253 806 l 219 840 l 369 1039 q 424 1079 401 1079 q 472 1058 453 1079 q 490 1008 490 1036 q 442 935 490 964 l 253 806 m 90 -19 l 68 219 l 146 225 q 340 64 203 64 q 435 94 399 64 q 471 181 471 125 q 442 248 471 221 q 371 286 414 275 q 278 313 328 297 q 185 348 228 329 q 113 410 142 367 q 85 515 85 453 q 148 665 85 607 q 324 724 211 724 q 476 676 419 724 l 488 724 l 549 724 l 567 497 l 488 504 q 428 610 474 572 q 326 649 382 649 q 235 623 268 649 q 201 547 201 597 q 241 474 201 501 q 338 431 281 446 q 451 397 394 417 q 547 332 507 378 q 586 211 586 286 q 521 49 586 117 q 338 -19 456 -19 q 164 28 232 -19 l 149 -19 l 90 -19 z "},"Ŝ":{"ha":851,"x_min":92,"x_max":764,"o":"m 235 1042 l 201 1076 l 375 1267 q 429 1297 403 1297 q 486 1258 449 1297 l 654 1078 l 619 1042 l 429 1158 l 235 1042 m 453 -19 q 306 8 371 -19 q 203 74 242 36 l 181 -8 l 119 -8 l 92 292 l 171 299 q 449 69 256 69 q 583 112 536 69 q 629 229 629 154 q 613 310 629 276 q 561 368 597 344 q 494 405 525 392 q 411 436 464 418 q 352 456 365 451 q 297 478 339 461 q 241 507 256 496 q 198 542 226 518 q 158 589 169 565 q 137 647 147 613 q 126 724 126 682 q 203 913 126 835 q 424 992 281 992 q 629 919 544 992 l 647 992 l 713 992 l 743 711 l 665 700 q 570 867 631 819 q 428 915 510 915 q 308 874 354 915 q 261 763 261 832 q 277 689 261 721 q 328 634 293 657 q 393 599 364 611 q 476 568 422 586 q 536 547 519 553 q 592 524 553 540 q 648 494 631 507 q 692 459 665 482 q 732 412 719 436 q 754 353 744 388 q 764 278 764 318 q 684 71 764 161 q 453 -19 604 -19 z "},"ŝ":{"ha":628,"x_min":68,"x_max":586,"o":"m 161 806 l 125 840 l 283 1051 q 338 1082 308 1082 q 394 1043 365 1082 l 546 842 l 508 806 l 338 944 l 161 806 m 90 -19 l 68 219 l 146 225 q 340 64 203 64 q 435 94 399 64 q 471 181 471 125 q 442 248 471 221 q 371 286 414 275 q 278 313 328 297 q 185 348 228 329 q 113 410 142 367 q 85 515 85 453 q 148 665 85 607 q 324 724 211 724 q 476 676 419 724 l 488 724 l 549 724 l 567 497 l 488 504 q 428 610 474 572 q 326 649 382 649 q 235 623 268 649 q 201 547 201 597 q 241 474 201 501 q 338 431 281 446 q 451 397 394 417 q 547 332 507 378 q 586 211 586 286 q 521 49 586 117 q 338 -19 456 -19 q 164 28 232 -19 l 149 -19 l 90 -19 z "},"Ş":{"ha":851,"x_min":92,"x_max":764,"o":"m 764 278 q 684 71 764 161 q 454 -19 604 -19 l 431 -79 q 538 -99 499 -71 q 578 -185 578 -126 q 538 -282 578 -246 q 418 -318 497 -318 q 339 -299 375 -318 q 286 -262 303 -281 l 319 -211 q 408 -242 360 -242 q 458 -226 438 -242 q 478 -182 478 -211 q 408 -129 478 -129 q 367 -133 386 -129 l 356 -104 l 392 -15 q 203 74 276 3 l 181 -8 l 119 -8 l 92 292 l 171 299 q 449 69 256 69 q 583 112 536 69 q 629 229 629 154 q 613 310 629 276 q 561 368 597 344 q 494 405 525 392 q 411 436 464 418 q 352 456 365 451 q 297 478 339 461 q 241 507 256 496 q 198 542 226 518 q 158 589 169 565 q 137 647 147 613 q 126 724 126 682 q 203 913 126 835 q 424 992 281 992 q 629 919 544 992 l 647 992 l 713 992 l 743 711 l 665 700 q 570 867 631 819 q 428 915 510 915 q 308 874 354 915 q 261 763 261 832 q 277 689 261 721 q 328 634 293 657 q 393 599 364 611 q 476 568 422 586 q 536 547 519 553 q 592 524 553 540 q 648 494 631 507 q 692 459 665 482 q 732 412 719 436 q 754 353 744 388 q 764 278 764 318 z "},"ş":{"ha":628,"x_min":68,"x_max":586,"o":"m 586 211 q 526 53 586 119 q 356 -19 465 -14 l 332 -79 q 440 -99 400 -71 q 479 -185 479 -126 q 439 -282 479 -246 q 319 -318 399 -318 q 240 -299 276 -318 q 188 -262 204 -281 l 221 -211 q 310 -242 261 -242 q 359 -226 339 -242 q 379 -182 379 -211 q 310 -129 379 -129 q 268 -133 286 -129 l 257 -104 l 292 -17 q 164 28 217 -8 l 149 -19 l 90 -19 l 68 219 l 146 225 q 340 64 203 64 q 435 94 399 64 q 471 181 471 125 q 442 248 471 221 q 371 286 414 275 q 278 313 328 297 q 185 348 228 329 q 113 410 142 367 q 85 515 85 453 q 148 665 85 607 q 324 724 211 724 q 476 676 419 724 l 488 724 l 549 724 l 567 497 l 488 504 q 428 610 474 572 q 326 649 382 649 q 235 623 268 649 q 201 547 201 597 q 241 474 201 501 q 338 431 281 446 q 451 397 394 417 q 547 332 507 378 q 586 211 586 286 z "},"Š":{"ha":851,"x_min":92,"x_max":764,"o":"m 426 1044 q 369 1083 407 1044 l 201 1264 l 236 1300 l 426 1183 l 621 1300 l 654 1265 l 481 1075 q 426 1044 453 1044 m 453 -19 q 306 8 371 -19 q 203 74 242 36 l 181 -8 l 119 -8 l 92 292 l 171 299 q 449 69 256 69 q 583 112 536 69 q 629 229 629 154 q 613 310 629 276 q 561 368 597 344 q 494 405 525 392 q 411 436 464 418 q 352 456 365 451 q 297 478 339 461 q 241 507 256 496 q 198 542 226 518 q 158 589 169 565 q 137 647 147 613 q 126 724 126 682 q 203 913 126 835 q 424 992 281 992 q 629 919 544 992 l 647 992 l 713 992 l 743 711 l 665 700 q 570 867 631 819 q 428 915 510 915 q 308 874 354 915 q 261 763 261 832 q 277 689 261 721 q 328 634 293 657 q 393 599 364 611 q 476 568 422 586 q 536 547 519 553 q 592 524 553 540 q 648 494 631 507 q 692 459 665 482 q 732 412 719 436 q 754 353 744 388 q 764 278 764 318 q 684 71 764 161 q 453 -19 604 -19 z "},"š":{"ha":628,"x_min":68,"x_max":586,"o":"m 325 806 q 268 844 297 806 l 117 1046 l 154 1082 l 325 943 l 501 1082 l 538 1047 l 379 836 q 325 806 354 806 m 90 -19 l 68 219 l 146 225 q 340 64 203 64 q 435 94 399 64 q 471 181 471 125 q 442 248 471 221 q 371 286 414 275 q 278 313 328 297 q 185 348 228 329 q 113 410 142 367 q 85 515 85 453 q 148 665 85 607 q 324 724 211 724 q 476 676 419 724 l 488 724 l 549 724 l 567 497 l 488 504 q 428 610 474 572 q 326 649 382 649 q 235 623 268 649 q 201 547 201 597 q 241 474 201 501 q 338 431 281 446 q 451 397 394 417 q 547 332 507 378 q 586 211 586 286 q 521 49 586 117 q 338 -19 456 -19 q 164 28 232 -19 l 149 -19 l 90 -19 z "},"Ţ":{"ha":1025,"x_min":58,"x_max":967,"o":"m 915 972 l 967 694 l 890 676 q 804 855 846 814 q 660 896 763 896 l 582 896 l 582 147 q 591 101 582 114 q 629 83 600 89 l 739 67 l 739 0 l 540 0 l 510 -79 q 617 -99 578 -71 q 657 -185 657 -126 q 617 -282 657 -246 q 497 -318 576 -318 q 418 -299 454 -318 q 365 -262 382 -281 l 399 -211 q 488 -242 439 -242 q 537 -226 517 -242 q 557 -182 557 -211 q 488 -129 557 -129 q 446 -133 464 -129 l 435 -104 l 476 0 l 288 0 l 288 67 l 399 83 q 435 103 426 88 q 444 153 444 118 l 444 896 l 368 896 q 222 855 265 896 q 133 676 179 814 l 58 694 l 113 972 l 915 972 z "},"ţ":{"ha":561,"x_min":51,"x_max":554,"o":"m 554 76 q 365 -18 469 -11 l 342 -79 q 449 -99 410 -71 q 489 -185 489 -126 q 449 -282 489 -246 q 329 -318 408 -318 q 250 -299 286 -318 q 197 -262 214 -281 l 231 -211 q 319 -242 271 -242 q 369 -226 349 -242 q 389 -182 389 -211 q 319 -129 389 -129 q 278 -133 297 -129 l 267 -104 l 301 -17 q 161 188 161 6 l 161 617 l 51 617 l 51 689 q 163 755 129 694 q 206 936 197 815 l 272 944 l 290 936 l 290 704 l 507 704 l 507 617 l 290 617 l 290 197 q 389 82 290 82 q 522 126 457 82 l 554 76 z "},"Ť":{"ha":1025,"x_min":58,"x_max":967,"o":"m 511 1044 q 454 1083 492 1044 l 286 1264 l 321 1300 l 511 1183 l 706 1300 l 739 1265 l 565 1075 q 511 1044 538 1044 m 288 0 l 288 67 l 399 83 q 435 103 426 88 q 444 153 444 118 l 444 896 l 368 896 q 222 855 265 896 q 133 676 179 814 l 58 694 l 113 972 l 915 972 l 967 694 l 890 676 q 804 855 846 814 q 660 896 763 896 l 582 896 l 582 147 q 591 101 582 114 q 629 83 600 89 l 739 67 l 739 0 l 288 0 z "},"ť":{"ha":561,"x_min":51,"x_max":554,"o":"m 426 792 l 390 831 q 447 944 447 906 q 425 992 447 968 q 397 1044 397 1021 q 419 1092 397 1076 q 469 1107 440 1107 q 533 1079 513 1107 q 554 1013 554 1051 q 520 900 554 961 q 426 792 486 839 m 346 -19 q 203 34 246 -19 q 161 188 161 88 l 161 617 l 51 617 l 51 689 q 163 755 129 694 q 206 936 197 815 l 272 944 l 290 936 l 290 704 l 507 704 l 507 617 l 290 617 l 290 197 q 389 82 290 82 q 522 126 457 82 l 554 76 q 346 -19 461 -19 z "},"Ŧ":{"ha":1025,"x_min":58,"x_max":967,"o":"m 915 972 l 967 694 l 890 676 q 804 855 846 814 q 660 896 763 896 l 582 896 l 582 525 l 799 525 l 799 438 l 582 438 l 582 147 q 591 101 582 114 q 629 83 600 89 l 739 67 l 739 0 l 288 0 l 288 67 l 399 83 q 435 103 426 88 q 444 153 444 118 l 444 438 l 229 438 l 240 525 l 444 525 l 444 896 l 368 896 q 222 855 265 896 q 133 676 179 814 l 58 694 l 113 972 l 915 972 z "},"ŧ":{"ha":561,"x_min":44,"x_max":554,"o":"m 522 126 l 554 76 q 346 -19 461 -19 q 203 34 246 -19 q 161 188 161 88 l 161 364 l 44 364 l 56 446 l 161 446 l 161 617 l 51 617 l 51 689 q 163 755 129 694 q 206 936 197 815 l 272 944 l 290 936 l 290 704 l 507 704 l 507 617 l 290 617 l 290 446 l 507 446 l 507 364 l 290 364 l 290 197 q 389 82 290 82 q 522 126 457 82 z "},"Ũ":{"ha":1125,"x_min":68,"x_max":1063,"o":"m 685 1079 q 557 1113 635 1079 q 456 1146 476 1146 q 424 1137 436 1146 q 390 1096 411 1128 l 347 1122 q 410 1226 383 1200 q 476 1253 436 1253 q 600 1217 513 1253 q 706 1183 681 1183 q 730 1190 719 1183 q 746 1205 740 1197 q 767 1235 751 1213 l 810 1208 q 749 1107 775 1135 q 685 1079 722 1079 m 561 -19 q 276 83 360 -19 q 192 368 192 185 l 192 828 q 183 875 192 863 q 146 893 175 888 l 68 906 l 68 972 l 451 972 l 451 906 l 371 893 q 337 873 344 889 q 329 822 329 857 l 329 378 q 387 149 329 221 q 581 78 444 78 q 776 150 710 78 q 843 388 843 222 l 843 828 q 835 875 843 863 q 797 893 826 888 l 721 906 l 721 972 l 1063 972 l 1063 906 l 983 893 q 948 873 956 889 q 940 822 940 857 l 940 404 q 561 -19 940 -19 z "},"ũ":{"ha":881,"x_min":38,"x_max":839,"o":"m 533 861 q 408 894 486 861 q 311 929 325 929 q 280 919 293 929 q 246 878 267 910 l 203 904 q 265 1006 239 981 q 332 1031 292 1031 q 451 997 371 1031 q 554 964 532 964 q 578 971 568 964 q 594 985 589 978 q 615 1015 600 993 l 658 989 q 598 889 624 917 q 533 861 572 861 m 368 -19 q 146 218 146 -19 l 146 536 q 138 601 146 585 q 99 622 129 617 l 38 632 l 49 699 l 258 714 l 275 704 l 275 258 q 278 188 275 213 q 294 134 282 163 q 334 93 306 106 q 408 81 363 81 q 542 128 488 81 q 596 274 596 176 l 596 536 q 588 601 596 585 q 549 622 579 617 l 486 632 l 497 699 l 708 714 l 725 704 l 725 140 q 733 95 725 107 q 769 78 742 83 l 839 65 l 839 0 l 624 -8 l 604 104 l 600 104 q 498 13 551 46 q 368 -19 444 -19 z "},"Ū":{"ha":1125,"x_min":68,"x_max":1063,"o":"m 381 1104 l 381 1206 l 775 1206 l 775 1104 l 381 1104 m 561 -19 q 276 83 360 -19 q 192 368 192 185 l 192 828 q 183 875 192 863 q 146 893 175 888 l 68 906 l 68 972 l 451 972 l 451 906 l 371 893 q 337 873 344 889 q 329 822 329 857 l 329 378 q 387 149 329 221 q 581 78 444 78 q 776 150 710 78 q 843 388 843 222 l 843 828 q 835 875 843 863 q 797 893 826 888 l 721 906 l 721 972 l 1063 972 l 1063 906 l 983 893 q 948 873 956 889 q 940 822 940 857 l 940 404 q 561 -19 940 -19 z "},"ū":{"ha":881,"x_min":38,"x_max":839,"o":"m 236 882 l 236 983 l 625 983 l 625 882 l 236 882 m 368 -19 q 146 218 146 -19 l 146 536 q 138 601 146 585 q 99 622 129 617 l 38 632 l 49 699 l 258 714 l 275 704 l 275 258 q 278 188 275 213 q 294 134 282 163 q 334 93 306 106 q 408 81 363 81 q 542 128 488 81 q 596 274 596 176 l 596 536 q 588 601 596 585 q 549 622 579 617 l 486 632 l 497 699 l 708 714 l 725 704 l 725 140 q 733 95 725 107 q 769 78 742 83 l 839 65 l 839 0 l 624 -8 l 604 104 l 600 104 q 498 13 551 46 q 368 -19 444 -19 z "},"Ŭ":{"ha":1125,"x_min":68,"x_max":1063,"o":"m 574 1044 q 421 1109 475 1044 q 357 1272 367 1174 l 413 1289 q 472 1188 432 1219 q 581 1156 513 1156 q 747 1288 713 1156 l 800 1274 q 733 1113 792 1182 q 574 1044 674 1044 m 561 -19 q 276 83 360 -19 q 192 368 192 185 l 192 828 q 183 875 192 863 q 146 893 175 888 l 68 906 l 68 972 l 451 972 l 451 906 l 371 893 q 337 873 344 889 q 329 822 329 857 l 329 378 q 387 149 329 221 q 581 78 444 78 q 776 150 710 78 q 843 388 843 222 l 843 828 q 835 875 843 863 q 797 893 826 888 l 721 906 l 721 972 l 1063 972 l 1063 906 l 983 893 q 948 873 956 889 q 940 822 940 857 l 940 404 q 561 -19 940 -19 z "},"ŭ":{"ha":881,"x_min":38,"x_max":839,"o":"m 425 815 q 283 883 333 815 q 222 1050 233 950 l 278 1067 q 432 926 318 926 q 585 1065 549 926 l 638 1051 q 574 887 629 958 q 425 815 518 815 m 368 -19 q 146 218 146 -19 l 146 536 q 138 601 146 585 q 99 622 129 617 l 38 632 l 49 699 l 258 714 l 275 704 l 275 258 q 278 188 275 213 q 294 134 282 163 q 334 93 306 106 q 408 81 363 81 q 542 128 488 81 q 596 274 596 176 l 596 536 q 588 601 596 585 q 549 622 579 617 l 486 632 l 497 699 l 708 714 l 725 704 l 725 140 q 733 95 725 107 q 769 78 742 83 l 839 65 l 839 0 l 624 -8 l 604 104 l 600 104 q 498 13 551 46 q 368 -19 444 -19 z "},"Ů":{"ha":1125,"x_min":68,"x_max":1063,"o":"m 576 1031 q 461 1069 499 1031 q 424 1176 424 1108 q 464 1280 424 1239 q 579 1321 504 1321 q 690 1283 651 1321 q 729 1179 729 1244 q 689 1072 729 1113 q 576 1031 649 1031 m 578 1096 q 647 1176 647 1096 q 629 1233 647 1211 q 575 1256 611 1256 q 504 1176 504 1256 q 578 1096 504 1096 m 561 -19 q 276 83 360 -19 q 192 368 192 185 l 192 828 q 183 875 192 863 q 146 893 175 888 l 68 906 l 68 972 l 451 972 l 451 906 l 371 893 q 337 873 344 889 q 329 822 329 857 l 329 378 q 387 149 329 221 q 581 78 444 78 q 776 150 710 78 q 843 388 843 222 l 843 828 q 835 875 843 863 q 797 893 826 888 l 721 906 l 721 972 l 1063 972 l 1063 906 l 983 893 q 948 873 956 889 q 940 822 940 857 l 940 404 q 561 -19 940 -19 z "},"ů":{"ha":881,"x_min":38,"x_max":839,"o":"m 431 808 q 318 847 356 808 q 281 951 281 885 q 320 1053 281 1013 q 433 1093 360 1093 q 542 1056 504 1093 q 581 954 581 1018 q 541 848 581 888 q 431 808 501 808 m 432 874 q 499 951 499 874 q 481 1007 499 985 q 429 1029 464 1029 q 378 1007 394 1029 q 361 951 361 985 q 378 896 361 918 q 432 874 396 874 m 368 -19 q 146 218 146 -19 l 146 536 q 138 601 146 585 q 99 622 129 617 l 38 632 l 49 699 l 258 714 l 275 704 l 275 258 q 278 188 275 213 q 294 134 282 163 q 334 93 306 106 q 408 81 363 81 q 542 128 488 81 q 596 274 596 176 l 596 536 q 588 601 596 585 q 549 622 579 617 l 486 632 l 497 699 l 708 714 l 725 704 l 725 140 q 733 95 725 107 q 769 78 742 83 l 839 65 l 839 0 l 624 -8 l 604 104 l 600 104 q 498 13 551 46 q 368 -19 444 -19 z "},"Ű":{"ha":1125,"x_min":68,"x_max":1063,"o":"m 422 1044 l 394 1083 l 557 1254 q 611 1286 593 1286 q 652 1265 636 1286 q 668 1219 668 1244 q 610 1142 668 1167 l 422 1044 m 669 1044 l 642 1083 l 806 1247 q 860 1279 838 1279 q 902 1260 885 1279 q 919 1217 919 1240 q 861 1139 919 1169 l 669 1044 m 561 -19 q 276 83 360 -19 q 192 368 192 185 l 192 828 q 183 875 192 863 q 146 893 175 888 l 68 906 l 68 972 l 451 972 l 451 906 l 371 893 q 337 873 344 889 q 329 822 329 857 l 329 378 q 387 149 329 221 q 581 78 444 78 q 776 150 710 78 q 843 388 843 222 l 843 828 q 835 875 843 863 q 797 893 826 888 l 721 906 l 721 972 l 1063 972 l 1063 906 l 983 893 q 948 873 956 889 q 940 822 940 857 l 940 404 q 561 -19 940 -19 z "},"ű":{"ha":881,"x_min":38,"x_max":839,"o":"m 310 806 l 276 840 l 393 1029 q 446 1069 418 1069 q 490 1053 475 1069 q 506 1008 506 1036 q 463 933 506 968 l 310 806 m 506 806 l 472 840 l 601 1025 q 657 1065 631 1065 q 701 1049 686 1065 q 717 1007 717 1032 q 669 928 717 961 l 506 806 m 368 -19 q 146 218 146 -19 l 146 536 q 138 601 146 585 q 99 622 129 617 l 38 632 l 49 699 l 258 714 l 275 704 l 275 258 q 278 188 275 213 q 294 134 282 163 q 334 93 306 106 q 408 81 363 81 q 542 128 488 81 q 596 274 596 176 l 596 536 q 588 601 596 585 q 549 622 579 617 l 486 632 l 497 699 l 708 714 l 725 704 l 725 140 q 733 95 725 107 q 769 78 742 83 l 839 65 l 839 0 l 624 -8 l 604 104 l 600 104 q 498 13 551 46 q 368 -19 444 -19 z "},"Ų":{"ha":1125,"x_min":68,"x_max":1063,"o":"m 721 972 l 1063 972 l 1063 906 l 983 893 q 948 873 956 889 q 940 822 940 857 l 940 404 q 722 6 940 83 q 633 -75 671 -26 q 596 -171 596 -124 q 653 -228 596 -228 q 721 -215 681 -228 l 736 -264 q 604 -318 671 -318 q 511 -286 546 -318 q 476 -206 476 -254 q 601 -18 476 -106 q 561 -19 589 -19 q 276 83 360 -19 q 192 368 192 185 l 192 828 q 183 875 192 863 q 146 893 175 888 l 68 906 l 68 972 l 451 972 l 451 906 l 371 893 q 337 873 344 889 q 329 822 329 857 l 329 378 q 387 149 329 221 q 581 78 444 78 q 776 150 710 78 q 843 388 843 222 l 843 828 q 835 875 843 863 q 797 893 826 888 l 721 906 l 721 972 z "},"ų":{"ha":881,"x_min":38,"x_max":839,"o":"m 800 -1 q 689 -171 689 -93 q 746 -228 689 -228 q 814 -215 774 -228 l 829 -264 q 697 -318 764 -318 q 604 -286 639 -318 q 569 -206 569 -254 q 714 -4 569 -100 l 624 -8 l 604 104 l 600 104 q 498 13 551 46 q 368 -19 444 -19 q 146 218 146 -19 l 146 536 q 138 601 146 585 q 99 622 129 617 l 38 632 l 49 699 l 258 714 l 275 704 l 275 258 q 278 188 275 213 q 294 134 282 163 q 334 93 306 106 q 408 81 363 81 q 542 128 488 81 q 596 274 596 176 l 596 536 q 588 601 596 585 q 549 622 579 617 l 486 632 l 497 699 l 708 714 l 725 704 l 725 140 q 733 95 725 107 q 769 78 742 83 l 839 65 l 839 0 l 800 -1 z "},"Ŵ":{"ha":1506,"x_min":25,"x_max":1481,"o":"m 563 1042 l 529 1076 l 703 1267 q 757 1297 731 1297 q 814 1258 776 1297 l 982 1078 l 947 1042 l 757 1158 l 563 1042 m 354 0 l 143 821 q 122 872 133 858 q 81 890 111 885 l 25 901 l 25 972 l 392 972 l 392 906 l 321 896 q 287 878 293 892 q 289 826 281 864 l 451 119 l 458 119 l 682 972 l 833 972 l 1082 126 l 1089 126 l 1253 818 q 1255 870 1261 854 q 1219 892 1249 886 l 1151 907 l 1151 972 l 1481 972 l 1481 906 l 1415 894 q 1374 875 1389 890 q 1350 819 1360 860 l 1140 0 l 983 0 l 742 835 l 738 835 l 521 0 l 354 0 z "},"ŵ":{"ha":1194,"x_min":10,"x_max":1185,"o":"m 446 806 l 410 840 l 568 1051 q 622 1082 593 1082 q 679 1043 650 1082 l 831 842 l 793 806 l 622 944 l 446 806 m 290 0 l 119 554 q 98 605 108 592 q 58 625 88 618 l 10 636 l 24 704 l 350 704 l 350 640 l 283 631 q 251 613 256 626 q 256 561 246 599 l 378 115 l 385 115 l 546 704 l 694 704 l 850 118 l 857 118 l 978 551 q 982 603 989 588 q 946 626 975 619 l 886 640 l 899 704 l 1185 704 l 1185 639 l 1133 628 q 1094 608 1107 622 q 1069 553 1082 594 l 901 0 l 756 0 l 604 572 l 597 572 l 443 0 l 290 0 z "},"Ŷ":{"ha":983,"x_min":25,"x_max":958,"o":"m 322 1042 l 289 1076 l 463 1267 q 517 1297 490 1297 q 574 1258 536 1297 l 742 1078 l 707 1042 l 517 1158 l 322 1042 m 290 0 l 290 67 l 376 79 q 412 99 404 83 q 419 150 419 115 l 419 407 l 160 821 q 122 872 138 857 q 76 892 106 886 l 25 901 l 25 972 l 413 972 l 413 906 l 336 896 q 298 876 306 893 q 310 826 290 858 l 513 497 l 519 497 l 711 821 q 688 892 751 878 l 624 907 l 624 972 l 958 972 l 958 906 l 890 894 q 852 875 867 890 q 811 818 838 860 l 557 406 l 557 144 q 565 97 557 110 q 601 79 572 85 l 686 67 l 686 0 l 290 0 z "},"ŷ":{"ha":800,"x_min":14,"x_max":797,"o":"m 256 806 l 219 840 l 378 1051 q 432 1082 403 1082 q 489 1043 460 1082 l 640 842 l 603 806 l 432 944 l 256 806 m 157 -318 q 49 -286 85 -318 q 14 -207 14 -254 q 40 -140 14 -165 q 104 -114 67 -114 q 178 -164 172 -114 q 172 -243 179 -179 q 247 -207 217 -244 q 324 -69 278 -169 l 358 10 l 129 554 q 120 574 126 561 q 112 592 114 588 q 105 603 110 596 q 96 613 100 611 q 85 619 92 615 q 68 625 78 622 l 19 636 l 33 704 l 364 704 l 364 640 l 297 631 q 263 612 269 626 q 271 561 257 597 l 425 172 l 432 172 l 586 551 q 592 603 599 588 q 554 626 585 619 l 493 640 l 507 704 l 797 704 l 797 639 l 746 628 q 710 609 721 622 q 681 553 700 596 l 413 -75 q 378 -151 390 -125 q 342 -214 365 -176 q 294 -270 318 -251 q 235 -303 271 -289 q 157 -318 200 -318 z "},"Ÿ":{"ha":983,"x_min":25,"x_max":958,"o":"m 372 1071 q 308 1095 333 1071 q 283 1158 283 1119 q 308 1222 283 1197 q 372 1247 333 1247 q 438 1223 413 1247 q 464 1160 464 1199 q 438 1096 464 1121 q 372 1071 413 1071 m 654 1071 q 589 1095 614 1071 q 564 1158 564 1119 q 590 1222 564 1197 q 654 1247 615 1247 q 719 1223 694 1247 q 744 1160 744 1199 q 719 1096 744 1121 q 654 1071 693 1071 m 290 0 l 290 67 l 376 79 q 412 99 404 83 q 419 150 419 115 l 419 407 l 160 821 q 122 872 138 857 q 76 892 106 886 l 25 901 l 25 972 l 413 972 l 413 906 l 336 896 q 298 876 306 893 q 310 826 290 858 l 513 497 l 519 497 l 711 821 q 688 892 751 878 l 624 907 l 624 972 l 958 972 l 958 906 l 890 894 q 852 875 867 890 q 811 818 838 860 l 557 406 l 557 144 q 565 97 557 110 q 601 79 572 85 l 686 67 l 686 0 l 290 0 z "},"Ź":{"ha":913,"x_min":81,"x_max":829,"o":"m 347 1044 l 319 1083 l 501 1249 q 556 1281 538 1281 q 598 1260 581 1281 q 615 1214 615 1239 q 557 1136 615 1161 l 347 1044 m 81 0 l 81 67 l 653 899 l 356 899 q 242 861 274 899 q 175 714 210 824 l 93 707 l 110 972 l 817 972 l 817 903 l 247 76 l 540 76 q 670 118 628 76 q 753 276 713 160 l 829 276 l 803 0 l 81 0 z "},"ź":{"ha":675,"x_min":51,"x_max":638,"o":"m 268 806 l 235 840 l 385 1039 q 439 1079 417 1079 q 487 1058 468 1079 q 506 1008 506 1036 q 457 935 506 964 l 268 806 m 51 0 l 51 61 l 467 631 l 304 631 q 194 603 224 631 q 135 479 164 575 l 56 472 l 72 704 l 618 704 l 618 640 l 204 76 l 368 76 q 445 82 418 76 q 494 110 472 88 q 528 160 515 133 q 563 251 540 188 l 638 251 l 618 0 l 51 0 z "},"Ż":{"ha":913,"x_min":81,"x_max":829,"o":"m 450 1065 q 383 1091 410 1065 q 357 1157 357 1117 q 383 1224 357 1197 q 450 1250 410 1250 q 518 1224 492 1250 q 544 1158 544 1199 q 518 1092 544 1118 q 450 1065 492 1065 m 81 0 l 81 67 l 653 899 l 356 899 q 242 861 274 899 q 175 714 210 824 l 93 707 l 110 972 l 817 972 l 817 903 l 247 76 l 540 76 q 670 118 628 76 q 753 276 713 160 l 829 276 l 803 0 l 81 0 z "},"ż":{"ha":675,"x_min":51,"x_max":638,"o":"m 339 861 q 272 887 299 861 q 246 953 246 913 q 272 1019 246 993 q 339 1046 299 1046 q 407 1020 381 1046 q 433 954 433 994 q 407 888 433 914 q 339 861 381 861 m 51 0 l 51 61 l 467 631 l 304 631 q 194 603 224 631 q 135 479 164 575 l 56 472 l 72 704 l 618 704 l 618 640 l 204 76 l 368 76 q 445 82 418 76 q 494 110 472 88 q 528 160 515 133 q 563 251 540 188 l 638 251 l 618 0 l 51 0 z "},"Ž":{"ha":913,"x_min":81,"x_max":829,"o":"m 450 1044 q 393 1083 431 1044 l 225 1264 l 260 1300 l 450 1183 l 644 1300 l 678 1265 l 504 1075 q 450 1044 476 1044 m 81 0 l 81 67 l 653 899 l 356 899 q 242 861 274 899 q 175 714 210 824 l 93 707 l 110 972 l 817 972 l 817 903 l 247 76 l 540 76 q 670 118 628 76 q 753 276 713 160 l 829 276 l 803 0 l 81 0 z "},"ž":{"ha":675,"x_min":51,"x_max":638,"o":"m 339 806 q 282 844 311 806 l 131 1046 l 168 1082 l 339 943 l 515 1082 l 551 1047 l 393 836 q 339 806 368 806 m 51 0 l 51 61 l 467 631 l 304 631 q 194 603 224 631 q 135 479 164 575 l 56 472 l 72 704 l 618 704 l 618 640 l 204 76 l 368 76 q 445 82 418 76 q 494 110 472 88 q 528 160 515 133 q 563 251 540 188 l 638 251 l 618 0 l 51 0 z "},"Ə":{"ha":974,"x_min":69,"x_max":890,"o":"m 436 -19 q 185 71 286 -19 q 83 314 83 161 q 110 500 83 411 l 742 500 q 647 769 735 667 q 404 872 558 872 q 125 753 257 872 l 69 804 q 226 938 128 883 q 446 992 324 992 q 774 851 657 992 q 890 489 890 710 q 765 116 890 251 q 436 -19 640 -19 m 457 67 q 658 163 585 67 q 742 393 731 258 l 232 393 q 226 307 226 346 q 289 127 226 188 q 457 67 351 67 z "},"ƒ":{"ha":735,"x_min":-128,"x_max":763,"o":"m 54 -268 q -77 -234 -26 -268 q -128 -137 -128 -200 q -102 -71 -128 -99 q -36 -43 -76 -43 q 33 -99 33 -43 q -4 -182 33 -128 q 64 -196 24 -196 q 201 -14 176 -196 l 268 529 l 157 529 l 167 604 l 278 604 l 286 664 q 383 904 306 817 q 576 992 460 992 q 710 956 657 992 q 763 858 763 921 q 737 792 763 819 q 671 764 711 764 q 601 819 601 764 q 639 903 601 849 q 567 919 606 919 q 474 877 508 919 q 425 739 439 835 l 408 607 l 611 607 l 600 529 l 397 529 l 340 63 q 244 -178 321 -89 q 54 -268 167 -268 z "},"Ơ":{"ha":1158,"x_min":82,"x_max":1158,"o":"m 538 -19 q 205 115 328 -19 q 82 464 82 250 q 121 703 82 600 q 227 867 160 807 q 376 958 294 928 q 550 988 457 988 q 794 922 686 988 q 956 733 903 857 q 1069 896 1060 790 l 1057 896 q 971 965 971 896 q 997 1033 971 1007 q 1060 1058 1022 1058 q 1158 936 1158 1058 q 1110 785 1158 867 q 979 664 1063 704 q 999 508 999 590 q 867 121 999 261 q 538 -19 736 -19 m 554 74 q 770 174 693 74 q 847 482 847 275 q 763 791 847 683 q 532 899 678 899 q 312 799 394 899 q 229 493 229 700 q 317 186 229 299 q 554 74 404 74 z "},"ơ":{"ha":856,"x_min":65,"x_max":856,"o":"m 403 -19 q 154 79 243 -19 q 65 336 65 178 q 168 628 65 532 q 422 724 271 724 q 678 611 586 724 q 767 760 760 669 l 754 760 q 668 829 668 760 q 694 897 668 871 q 757 922 719 922 q 856 800 856 922 q 818 668 856 740 q 715 550 781 596 q 751 371 751 475 q 654 83 751 186 q 403 -19 557 -19 m 422 67 q 560 136 511 67 q 610 338 610 206 q 553 561 610 481 q 400 642 496 642 q 258 576 310 642 q 206 378 206 511 q 263 151 206 235 q 422 67 319 67 z "},"Ư":{"ha":1203,"x_min":68,"x_max":1203,"o":"m 561 -19 q 276 83 360 -19 q 192 368 192 185 l 192 828 q 183 875 192 863 q 146 893 175 888 l 68 906 l 68 972 l 451 972 l 451 906 l 371 893 q 337 873 344 889 q 329 822 329 857 l 329 378 q 387 149 329 221 q 581 78 444 78 q 776 150 710 78 q 843 388 843 222 l 843 828 q 835 875 843 863 q 797 893 826 888 l 721 906 l 721 972 l 940 971 l 940 718 q 1114 896 1103 769 l 1101 896 q 1015 965 1015 896 q 1041 1033 1015 1007 q 1104 1058 1067 1058 q 1203 936 1203 1058 q 1177 826 1203 883 q 1089 715 1151 769 q 940 643 1026 661 l 940 404 q 561 -19 940 -19 z "},"ư":{"ha":953,"x_min":38,"x_max":953,"o":"m 368 -19 q 146 218 146 -19 l 146 536 q 138 601 146 585 q 99 622 129 617 l 38 632 l 49 699 l 258 714 l 275 704 l 275 258 q 278 188 275 213 q 294 134 282 163 q 334 93 306 106 q 408 81 363 81 q 542 129 488 81 q 596 275 596 178 l 596 536 q 588 601 596 585 q 549 622 579 617 l 486 632 l 497 699 l 708 714 l 725 704 l 725 585 q 864 760 854 640 l 851 760 q 765 829 765 760 q 791 897 765 871 q 854 922 817 922 q 953 800 953 922 q 891 628 953 718 q 725 508 829 538 l 725 140 q 733 95 725 107 q 769 78 742 83 l 839 65 l 839 0 l 624 -8 l 604 106 l 600 106 q 498 14 551 47 q 368 -19 444 -19 z "},"Ǆ":{"ha":1975,"x_min":86,"x_max":1892,"o":"m 1513 1044 q 1456 1083 1493 1044 l 1288 1264 l 1322 1300 l 1513 1183 l 1707 1300 l 1740 1265 l 1567 1075 q 1513 1044 1539 1044 m 86 0 l 86 67 l 167 79 q 202 99 194 83 q 210 150 210 115 l 210 828 q 201 875 210 863 q 164 893 193 888 l 86 906 l 86 972 l 485 972 q 857 860 721 972 q 993 517 993 747 q 850 139 993 278 q 446 0 707 0 l 86 0 m 1143 0 l 1143 67 l 1715 899 l 1418 899 q 1304 861 1336 899 q 1238 714 1272 824 l 1156 707 l 1172 972 l 1879 972 l 1879 903 l 1310 76 l 1603 76 q 1733 118 1690 76 q 1815 276 1775 160 l 1892 276 l 1865 0 l 1143 0 m 447 76 q 748 181 651 76 q 844 506 844 286 q 750 797 844 697 q 474 897 656 897 l 347 897 l 347 83 q 447 76 386 76 z "},"ǅ":{"ha":1751,"x_min":86,"x_max":1714,"o":"m 1415 806 q 1358 844 1388 806 l 1207 1046 l 1244 1082 l 1415 943 l 1592 1082 l 1628 1047 l 1469 836 q 1415 806 1444 806 m 86 0 l 86 67 l 167 79 q 202 99 194 83 q 210 150 210 115 l 210 828 q 201 875 210 863 q 164 893 193 888 l 86 906 l 86 972 l 485 972 q 857 860 721 972 q 993 517 993 747 q 850 139 993 278 q 446 0 707 0 l 86 0 m 447 76 q 748 181 651 76 q 844 506 844 286 q 750 797 844 697 q 474 897 656 897 l 347 897 l 347 83 q 447 76 386 76 m 1128 0 l 1128 61 l 1543 631 l 1381 631 q 1270 603 1300 631 q 1211 479 1240 575 l 1132 472 l 1149 704 l 1694 704 l 1694 640 l 1281 76 l 1444 76 q 1522 82 1494 76 q 1570 110 1549 88 q 1604 160 1592 133 q 1639 251 1617 188 l 1714 251 l 1694 0 l 1128 0 z "},"ǆ":{"ha":1528,"x_min":65,"x_max":1490,"o":"m 1192 806 q 1135 844 1164 806 l 983 1046 l 1021 1082 l 1192 943 l 1368 1082 l 1404 1047 l 1246 836 q 1192 806 1221 806 m 350 -19 q 140 74 214 -19 q 65 331 65 167 q 156 617 65 511 q 404 724 247 724 q 575 678 504 724 l 575 894 q 565 957 575 942 q 515 978 556 972 l 454 988 l 463 1057 l 689 1064 l 704 1049 l 704 136 q 713 91 704 103 q 750 74 721 79 l 818 61 l 818 -4 l 604 -12 l 585 97 l 581 97 q 350 -19 489 -19 m 904 0 l 904 61 l 1319 631 l 1157 631 q 1047 603 1076 631 q 988 479 1017 575 l 908 472 l 925 704 l 1471 704 l 1471 640 l 1057 76 l 1221 76 q 1298 82 1271 76 q 1347 110 1325 88 q 1381 160 1368 133 q 1415 251 1393 188 l 1490 251 l 1471 0 l 904 0 m 390 81 q 519 134 464 81 q 575 294 575 188 l 575 574 q 401 631 503 631 q 203 344 203 631 q 248 153 203 225 q 390 81 293 81 z "},"Ǉ":{"ha":1669,"x_min":86,"x_max":1621,"o":"m 86 0 l 86 67 l 167 79 q 202 99 194 83 q 210 150 210 115 l 210 828 q 201 875 210 863 q 164 893 193 888 l 86 906 l 86 972 l 483 972 l 483 906 l 392 893 q 355 875 363 888 q 347 828 347 863 l 347 76 l 504 76 q 644 121 603 76 q 725 297 685 165 l 801 297 l 767 0 l 86 0 m 1200 -19 q 1024 26 1097 -19 q 951 150 951 71 q 980 231 951 197 q 1056 264 1008 264 q 1121 247 1099 264 q 1143 201 1143 229 q 1101 103 1143 172 q 1208 69 1139 69 q 1319 122 1285 69 q 1354 279 1354 174 l 1354 825 q 1346 873 1354 860 q 1308 890 1338 886 l 1211 904 l 1211 972 l 1621 972 l 1621 906 l 1533 893 q 1499 874 1507 889 q 1492 822 1492 858 l 1492 311 q 1479 197 1492 250 q 1437 93 1467 144 q 1347 11 1407 42 q 1200 -19 1286 -19 z "},"ǈ":{"ha":1314,"x_min":86,"x_max":1192,"o":"m 1097 861 q 1031 887 1057 861 q 1004 953 1004 913 q 1031 1019 1004 993 q 1097 1046 1057 1046 q 1165 1020 1139 1046 q 1192 954 1192 994 q 1165 888 1192 914 q 1097 861 1139 861 m 86 0 l 86 67 l 167 79 q 202 99 194 83 q 210 150 210 115 l 210 828 q 201 875 210 863 q 164 893 193 888 l 86 906 l 86 972 l 483 972 l 483 906 l 392 893 q 355 875 363 888 q 347 828 347 863 l 347 76 l 504 76 q 644 121 603 76 q 725 297 685 165 l 801 297 l 767 0 l 86 0 m 971 -318 l 932 -261 q 1026 -137 999 -208 q 1053 39 1053 -67 l 1053 531 q 1044 597 1053 581 q 1003 618 1036 614 l 936 628 l 947 697 l 1165 708 l 1182 701 l 1182 132 q 1136 -155 1182 -57 q 971 -318 1090 -253 z "},"ǉ":{"ha":892,"x_min":56,"x_max":769,"o":"m 56 0 l 56 68 l 135 81 q 165 94 156 83 q 176 115 175 104 q 178 151 178 126 l 178 893 q 168 956 178 940 q 118 976 158 971 l 57 986 l 65 1057 l 292 1064 l 307 1049 l 307 146 q 315 100 307 114 q 351 81 324 86 l 429 67 l 429 0 l 56 0 m 675 861 q 608 887 635 861 q 582 953 582 913 q 608 1019 582 993 q 675 1046 635 1046 q 743 1020 717 1046 q 769 954 769 994 q 743 888 769 914 q 675 861 717 861 m 549 -318 l 510 -261 q 603 -137 576 -208 q 631 39 631 -67 l 631 531 q 622 597 631 581 q 581 618 614 614 l 514 628 l 525 697 l 743 708 l 760 701 l 760 132 q 714 -155 760 -57 q 549 -318 668 -253 z "},"Ǌ":{"ha":1915,"x_min":88,"x_max":1867,"o":"m 88 0 l 88 67 l 168 79 q 202 99 194 83 q 210 150 210 115 l 210 828 q 202 875 210 863 q 165 893 194 888 l 88 906 l 88 972 l 396 972 l 857 179 l 857 828 q 849 875 857 863 q 811 893 840 888 l 735 906 l 735 972 l 1075 972 l 1075 906 l 996 893 q 960 873 968 889 q 953 822 953 857 l 953 0 l 810 0 l 307 846 l 307 144 q 315 97 307 110 q 351 79 322 85 l 429 67 l 429 0 l 88 0 m 1446 -19 q 1270 26 1343 -19 q 1197 150 1197 71 q 1226 231 1197 197 q 1301 264 1254 264 q 1367 247 1344 264 q 1389 201 1389 229 q 1347 103 1389 172 q 1454 69 1385 69 q 1565 122 1531 69 q 1600 279 1600 174 l 1600 825 q 1592 873 1600 860 q 1554 890 1583 886 l 1457 904 l 1457 972 l 1867 972 l 1867 906 l 1779 893 q 1745 874 1753 889 q 1738 822 1738 858 l 1738 311 q 1725 197 1738 250 q 1683 93 1713 144 q 1592 11 1653 42 q 1446 -19 1532 -19 z "},"ǋ":{"ha":1574,"x_min":88,"x_max":1451,"o":"m 1357 861 q 1290 887 1317 861 q 1264 953 1264 913 q 1290 1019 1264 993 q 1357 1046 1317 1046 q 1425 1020 1399 1046 q 1451 954 1451 994 q 1425 888 1451 914 q 1357 861 1399 861 m 88 0 l 88 67 l 168 79 q 202 99 194 83 q 210 150 210 115 l 210 828 q 202 875 210 863 q 165 893 194 888 l 88 906 l 88 972 l 396 972 l 857 179 l 857 828 q 849 875 857 863 q 811 893 840 888 l 735 906 l 735 972 l 1075 972 l 1075 906 l 996 893 q 960 873 968 889 q 953 822 953 857 l 953 0 l 810 0 l 307 846 l 307 144 q 315 97 307 110 q 351 79 322 85 l 429 67 l 429 0 l 88 0 m 1231 -318 l 1192 -261 q 1285 -137 1258 -208 q 1313 39 1313 -67 l 1313 531 q 1304 597 1313 581 q 1263 618 1296 614 l 1196 628 l 1207 697 l 1425 708 l 1442 701 l 1442 132 q 1396 -155 1442 -57 q 1231 -318 1350 -253 z "},"ǌ":{"ha":1328,"x_min":64,"x_max":1206,"o":"m 1111 861 q 1044 887 1071 861 q 1018 953 1018 913 q 1044 1019 1018 993 q 1111 1046 1071 1046 q 1179 1020 1153 1046 q 1206 954 1206 994 q 1179 888 1206 914 q 1111 861 1153 861 m 76 0 l 76 65 l 143 78 q 174 96 168 82 q 179 144 179 110 l 179 536 q 171 601 179 585 q 132 622 163 617 l 64 632 l 74 699 l 267 714 l 283 704 l 293 581 l 297 581 q 394 681 331 639 q 540 724 457 724 q 715 658 661 724 q 768 486 768 592 l 768 133 q 776 93 768 104 q 811 76 783 82 l 876 65 l 876 0 l 536 0 l 536 64 l 597 75 q 631 92 624 81 q 639 133 639 103 l 639 446 q 635 516 639 489 q 617 570 631 543 q 575 610 604 597 q 500 624 546 624 q 365 575 421 624 q 308 431 308 526 l 308 139 q 315 96 308 108 q 343 79 321 83 l 417 64 l 417 0 l 76 0 m 985 -318 l 946 -261 q 1040 -137 1013 -208 q 1067 39 1067 -67 l 1067 531 q 1058 597 1067 581 q 1017 618 1050 614 l 950 628 l 961 697 l 1179 708 l 1196 701 l 1196 132 q 1150 -155 1196 -57 q 985 -318 1104 -253 z "},"Ǎ":{"ha":1021,"x_min":21,"x_max":1000,"o":"m 517 1044 q 460 1083 497 1044 l 292 1264 l 326 1300 l 517 1183 l 711 1300 l 744 1265 l 571 1075 q 517 1044 543 1044 m 21 0 l 21 67 l 88 78 q 124 97 113 83 q 151 153 135 111 l 444 972 l 592 972 l 882 151 q 906 99 897 111 q 943 81 915 88 l 1000 69 l 1000 0 l 629 0 l 629 67 l 710 76 q 744 95 738 81 q 736 146 750 110 l 676 321 l 304 321 l 246 151 q 240 99 233 115 q 278 76 247 83 l 357 65 l 357 0 l 21 0 m 332 400 l 650 400 l 496 857 l 490 857 l 332 400 z "},"ǎ":{"ha":749,"x_min":72,"x_max":742,"o":"m 343 806 q 286 844 315 806 l 135 1046 l 172 1082 l 343 943 l 519 1082 l 556 1047 l 397 836 q 343 806 372 806 m 267 -19 q 131 26 189 -19 q 72 168 72 72 q 128 310 72 257 q 288 378 185 363 q 471 394 363 389 l 471 489 q 433 615 471 578 q 321 653 394 653 q 244 640 279 653 q 193 611 208 628 q 229 533 229 550 q 208 490 229 508 q 154 471 188 471 q 75 543 75 471 q 156 670 75 617 q 340 724 236 724 q 531 668 461 724 q 600 474 600 613 l 600 139 q 728 89 600 53 l 742 36 q 614 -19 683 -19 q 482 104 494 -19 q 267 -19 404 -19 m 319 76 q 422 112 374 76 q 471 224 471 147 l 471 322 q 336 310 411 322 q 237 265 267 300 q 207 183 207 229 q 239 103 207 129 q 319 76 271 76 z "},"Ǐ":{"ha":557,"x_min":51,"x_max":504,"o":"m 276 1044 q 219 1083 257 1044 l 51 1264 l 86 1300 l 276 1183 l 471 1300 l 504 1265 l 331 1075 q 276 1044 303 1044 m 81 0 l 81 67 l 167 79 q 202 99 194 83 q 210 150 210 115 l 210 828 q 201 875 210 863 q 164 893 193 888 l 81 906 l 81 972 l 476 972 l 476 906 l 389 893 q 355 873 363 889 q 347 822 347 857 l 347 144 q 355 97 347 110 q 392 79 363 85 l 476 67 l 476 0 l 81 0 z "},"ǐ":{"ha":463,"x_min":1,"x_max":429,"o":"m 210 806 q 153 844 182 806 l 1 1046 l 39 1082 l 210 943 l 386 1082 l 422 1047 l 264 836 q 210 806 239 806 m 56 0 l 56 68 l 135 81 q 165 94 156 83 q 176 115 175 104 q 178 151 178 126 l 178 531 q 169 597 178 581 q 128 618 161 614 l 61 628 l 71 697 l 290 708 l 307 701 l 307 146 q 315 100 307 114 q 351 81 324 86 l 429 67 l 429 0 l 56 0 z "},"Ǒ":{"ha":1082,"x_min":82,"x_max":999,"o":"m 542 1044 q 485 1083 522 1044 l 317 1264 l 351 1300 l 542 1183 l 736 1300 l 769 1265 l 596 1075 q 542 1044 568 1044 m 538 -19 q 205 117 328 -19 q 82 467 82 253 q 108 665 82 576 q 178 814 133 754 q 283 915 222 874 q 410 974 343 956 q 550 992 476 992 q 870 866 742 992 q 999 511 999 740 q 867 122 999 264 q 538 -19 736 -19 m 554 74 q 770 176 693 74 q 847 485 847 278 q 762 794 847 686 q 532 903 676 903 q 312 803 394 903 q 229 496 229 703 q 317 188 229 301 q 554 74 404 74 z "},"ǒ":{"ha":815,"x_min":65,"x_max":751,"o":"m 408 806 q 351 844 381 806 l 200 1046 l 238 1082 l 408 943 l 585 1082 l 621 1047 l 463 836 q 408 806 438 806 m 403 -19 q 154 79 243 -19 q 65 336 65 178 q 168 628 65 532 q 422 724 271 724 q 659 632 567 724 q 751 371 751 540 q 654 83 751 186 q 403 -19 557 -19 m 422 67 q 560 136 511 67 q 610 338 610 206 q 553 561 610 481 q 400 642 496 642 q 258 576 310 642 q 206 378 206 511 q 263 151 206 235 q 422 67 319 67 z "},"Ǔ":{"ha":1125,"x_min":68,"x_max":1063,"o":"m 576 1044 q 519 1083 557 1044 l 351 1264 l 386 1300 l 576 1183 l 771 1300 l 804 1265 l 631 1075 q 576 1044 603 1044 m 561 -19 q 276 83 360 -19 q 192 368 192 185 l 192 828 q 183 875 192 863 q 146 893 175 888 l 68 906 l 68 972 l 451 972 l 451 906 l 371 893 q 337 873 344 889 q 329 822 329 857 l 329 378 q 387 149 329 221 q 581 78 444 78 q 776 150 710 78 q 843 388 843 222 l 843 828 q 835 875 843 863 q 797 893 826 888 l 721 906 l 721 972 l 1063 972 l 1063 906 l 983 893 q 948 873 956 889 q 940 822 940 857 l 940 404 q 561 -19 940 -19 z "},"ǔ":{"ha":881,"x_min":38,"x_max":839,"o":"m 429 806 q 372 844 401 806 l 221 1046 l 258 1082 l 429 943 l 606 1082 l 642 1047 l 483 836 q 429 806 458 806 m 368 -19 q 146 218 146 -19 l 146 536 q 138 601 146 585 q 99 622 129 617 l 38 632 l 49 699 l 258 714 l 275 704 l 275 258 q 278 188 275 213 q 294 134 282 163 q 334 93 306 106 q 408 81 363 81 q 542 128 488 81 q 596 274 596 176 l 596 536 q 588 601 596 585 q 549 622 579 617 l 486 632 l 497 699 l 708 714 l 725 704 l 725 140 q 733 95 725 107 q 769 78 742 83 l 839 65 l 839 0 l 624 -8 l 604 104 l 600 104 q 498 13 551 46 q 368 -19 444 -19 z "},"Ǖ":{"ha":1125,"x_min":68,"x_max":1063,"o":"m 381 1346 l 381 1447 l 775 1447 l 775 1346 l 381 1346 m 435 1071 q 371 1095 396 1071 q 346 1158 346 1119 q 371 1222 346 1197 q 435 1247 396 1247 q 501 1223 475 1247 q 526 1160 526 1199 q 501 1096 526 1121 q 435 1071 475 1071 m 717 1071 q 651 1095 676 1071 q 626 1158 626 1119 q 652 1222 626 1197 q 717 1247 678 1247 q 782 1223 757 1247 q 807 1160 807 1199 q 781 1096 807 1121 q 717 1071 756 1071 m 561 -19 q 276 83 360 -19 q 192 368 192 185 l 192 828 q 183 875 192 863 q 146 893 175 888 l 68 906 l 68 972 l 451 972 l 451 906 l 371 893 q 337 873 344 889 q 329 822 329 857 l 329 378 q 387 149 329 221 q 581 78 444 78 q 776 150 710 78 q 843 388 843 222 l 843 828 q 835 875 843 863 q 797 893 826 888 l 721 906 l 721 972 l 1063 972 l 1063 906 l 983 893 q 948 873 956 889 q 940 822 940 857 l 940 404 q 561 -19 940 -19 z "},"ǖ":{"ha":881,"x_min":38,"x_max":839,"o":"m 233 1140 l 233 1242 l 628 1242 l 628 1140 l 233 1140 m 290 861 q 228 885 253 861 q 203 947 203 910 q 228 1010 203 985 q 290 1035 253 1035 q 355 1010 329 1035 q 381 949 381 986 q 355 886 381 911 q 290 861 329 861 m 631 886 q 618 874 631 886 q 567 861 606 861 q 503 885 528 861 q 478 947 478 910 q 503 1010 478 985 q 567 1035 528 1035 q 631 1010 606 1035 q 656 949 656 986 q 631 886 656 911 m 368 -19 q 146 218 146 -19 l 146 536 q 138 601 146 585 q 99 622 129 617 l 38 632 l 49 699 l 258 714 l 275 704 l 275 258 q 278 188 275 213 q 294 134 282 163 q 334 93 306 106 q 408 81 363 81 q 542 128 488 81 q 596 274 596 176 l 596 536 q 588 601 596 585 q 549 622 579 617 l 486 632 l 497 699 l 708 714 l 725 704 l 725 140 q 733 95 725 107 q 769 78 742 83 l 839 65 l 839 0 l 624 -8 l 604 104 l 600 104 q 498 13 551 46 q 368 -19 444 -19 z "},"Ǘ":{"ha":1125,"x_min":68,"x_max":1063,"o":"m 474 1308 l 446 1347 l 628 1513 q 682 1544 664 1544 q 724 1524 707 1544 q 742 1478 742 1503 q 683 1400 742 1425 l 474 1308 m 435 1071 q 371 1095 396 1071 q 346 1158 346 1119 q 371 1222 346 1197 q 435 1247 396 1247 q 501 1223 475 1247 q 526 1160 526 1199 q 501 1096 526 1121 q 435 1071 475 1071 m 717 1071 q 651 1095 676 1071 q 626 1158 626 1119 q 652 1222 626 1197 q 717 1247 678 1247 q 782 1223 757 1247 q 807 1160 807 1199 q 781 1096 807 1121 q 717 1071 756 1071 m 561 -19 q 276 83 360 -19 q 192 368 192 185 l 192 828 q 183 875 192 863 q 146 893 175 888 l 68 906 l 68 972 l 451 972 l 451 906 l 371 893 q 337 873 344 889 q 329 822 329 857 l 329 378 q 387 149 329 221 q 581 78 444 78 q 776 150 710 78 q 843 388 843 222 l 843 828 q 835 875 843 863 q 797 893 826 888 l 721 906 l 721 972 l 1063 972 l 1063 906 l 983 893 q 948 873 956 889 q 940 822 940 857 l 940 404 q 561 -19 940 -19 z "},"ǘ":{"ha":881,"x_min":38,"x_max":839,"o":"m 326 1108 l 299 1147 l 481 1313 q 535 1344 517 1344 q 577 1324 560 1344 q 594 1278 594 1303 q 536 1200 594 1225 l 326 1108 m 290 861 q 228 885 253 861 q 203 947 203 910 q 228 1010 203 985 q 290 1035 253 1035 q 355 1010 329 1035 q 381 949 381 986 q 355 886 381 911 q 290 861 329 861 m 631 886 q 618 874 631 886 q 567 861 606 861 q 503 885 528 861 q 478 947 478 910 q 503 1010 478 985 q 567 1035 528 1035 q 631 1010 606 1035 q 656 949 656 986 q 631 886 656 911 m 368 -19 q 146 218 146 -19 l 146 536 q 138 601 146 585 q 99 622 129 617 l 38 632 l 49 699 l 258 714 l 275 704 l 275 258 q 278 188 275 213 q 294 134 282 163 q 334 93 306 106 q 408 81 363 81 q 542 128 488 81 q 596 274 596 176 l 596 536 q 588 601 596 585 q 549 622 579 617 l 486 632 l 497 699 l 708 714 l 725 704 l 725 140 q 733 95 725 107 q 769 78 742 83 l 839 65 l 839 0 l 624 -8 l 604 104 l 600 104 q 498 13 551 46 q 368 -19 444 -19 z "},"Ǚ":{"ha":1125,"x_min":68,"x_max":1063,"o":"m 576 1306 q 519 1344 557 1306 l 351 1525 l 386 1561 l 576 1444 l 771 1561 l 804 1526 l 631 1336 q 576 1306 603 1306 m 435 1071 q 371 1095 396 1071 q 346 1158 346 1119 q 371 1222 346 1197 q 435 1247 396 1247 q 501 1223 475 1247 q 526 1160 526 1199 q 501 1096 526 1121 q 435 1071 475 1071 m 717 1071 q 651 1095 676 1071 q 626 1158 626 1119 q 652 1222 626 1197 q 717 1247 678 1247 q 782 1223 757 1247 q 807 1160 807 1199 q 781 1096 807 1121 q 717 1071 756 1071 m 561 -19 q 276 83 360 -19 q 192 368 192 185 l 192 828 q 183 875 192 863 q 146 893 175 888 l 68 906 l 68 972 l 451 972 l 451 906 l 371 893 q 337 873 344 889 q 329 822 329 857 l 329 378 q 387 149 329 221 q 581 78 444 78 q 776 150 710 78 q 843 388 843 222 l 843 828 q 835 875 843 863 q 797 893 826 888 l 721 906 l 721 972 l 1063 972 l 1063 906 l 983 893 q 948 873 956 889 q 940 822 940 857 l 940 404 q 561 -19 940 -19 z "},"ǚ":{"ha":881,"x_min":38,"x_max":839,"o":"m 429 1111 q 372 1150 410 1111 l 204 1331 l 239 1367 l 429 1250 l 624 1367 l 657 1332 l 483 1142 q 429 1111 456 1111 m 290 861 q 228 885 253 861 q 203 947 203 910 q 228 1010 203 985 q 290 1035 253 1035 q 355 1010 329 1035 q 381 949 381 986 q 355 886 381 911 q 290 861 329 861 m 631 886 q 618 874 631 886 q 567 861 606 861 q 503 885 528 861 q 478 947 478 910 q 503 1010 478 985 q 567 1035 528 1035 q 631 1010 606 1035 q 656 949 656 986 q 631 886 656 911 m 368 -19 q 146 218 146 -19 l 146 536 q 138 601 146 585 q 99 622 129 617 l 38 632 l 49 699 l 258 714 l 275 704 l 275 258 q 278 188 275 213 q 294 134 282 163 q 334 93 306 106 q 408 81 363 81 q 542 128 488 81 q 596 274 596 176 l 596 536 q 588 601 596 585 q 549 622 579 617 l 486 632 l 497 699 l 708 714 l 725 704 l 725 140 q 733 95 725 107 q 769 78 742 83 l 839 65 l 839 0 l 624 -8 l 604 104 l 600 104 q 498 13 551 46 q 368 -19 444 -19 z "},"Ǜ":{"ha":1125,"x_min":68,"x_max":1063,"o":"m 682 1306 l 472 1397 q 414 1475 414 1422 q 431 1521 414 1500 q 474 1542 449 1542 q 528 1510 492 1542 l 710 1344 l 682 1306 m 435 1071 q 371 1095 396 1071 q 346 1158 346 1119 q 371 1222 346 1197 q 435 1247 396 1247 q 501 1223 475 1247 q 526 1160 526 1199 q 501 1096 526 1121 q 435 1071 475 1071 m 717 1071 q 651 1095 676 1071 q 626 1158 626 1119 q 652 1222 626 1197 q 717 1247 678 1247 q 782 1223 757 1247 q 807 1160 807 1199 q 781 1096 807 1121 q 717 1071 756 1071 m 561 -19 q 276 83 360 -19 q 192 368 192 185 l 192 828 q 183 875 192 863 q 146 893 175 888 l 68 906 l 68 972 l 451 972 l 451 906 l 371 893 q 337 873 344 889 q 329 822 329 857 l 329 378 q 387 149 329 221 q 581 78 444 78 q 776 150 710 78 q 843 388 843 222 l 843 828 q 835 875 843 863 q 797 893 826 888 l 721 906 l 721 972 l 1063 972 l 1063 906 l 983 893 q 948 873 956 889 q 940 822 940 857 l 940 404 q 561 -19 940 -19 z "},"ǜ":{"ha":881,"x_min":38,"x_max":839,"o":"m 535 1111 l 325 1203 q 267 1281 267 1228 q 284 1326 267 1306 q 326 1347 301 1347 q 381 1315 344 1347 l 563 1150 l 535 1111 m 290 861 q 228 885 253 861 q 203 947 203 910 q 228 1010 203 985 q 290 1035 253 1035 q 355 1010 329 1035 q 381 949 381 986 q 355 886 381 911 q 290 861 329 861 m 631 886 q 618 874 631 886 q 567 861 606 861 q 503 885 528 861 q 478 947 478 910 q 503 1010 478 985 q 567 1035 528 1035 q 631 1010 606 1035 q 656 949 656 986 q 631 886 656 911 m 368 -19 q 146 218 146 -19 l 146 536 q 138 601 146 585 q 99 622 129 617 l 38 632 l 49 699 l 258 714 l 275 704 l 275 258 q 278 188 275 213 q 294 134 282 163 q 334 93 306 106 q 408 81 363 81 q 542 128 488 81 q 596 274 596 176 l 596 536 q 588 601 596 585 q 549 622 579 617 l 486 632 l 497 699 l 708 714 l 725 704 l 725 140 q 733 95 725 107 q 769 78 742 83 l 839 65 l 839 0 l 624 -8 l 604 104 l 600 104 q 498 13 551 46 q 368 -19 444 -19 z "},"Ǧ":{"ha":1056,"x_min":82,"x_max":1010,"o":"m 521 1044 q 464 1083 501 1044 l 296 1264 l 331 1300 l 521 1183 l 715 1300 l 749 1265 l 575 1075 q 521 1044 547 1044 m 528 -19 q 327 22 415 -19 q 187 135 239 64 q 108 292 135 206 q 82 472 82 378 q 206 853 82 714 q 524 992 329 992 q 758 907 674 992 l 772 994 l 840 994 l 904 671 l 828 654 q 715 844 786 783 q 532 904 644 904 q 306 794 382 904 q 231 485 231 685 q 311 191 231 310 q 538 72 392 72 q 763 167 692 72 l 763 319 q 754 367 763 354 q 717 385 746 379 l 633 397 l 633 464 l 1010 464 l 1010 397 l 936 385 q 902 365 910 381 q 894 314 894 349 l 894 -4 l 835 -4 l 799 61 q 528 -19 688 -19 z "},"ǧ":{"ha":775,"x_min":35,"x_max":774,"o":"m 358 806 q 301 844 331 806 l 150 1046 l 188 1082 l 358 943 l 535 1082 l 571 1047 l 413 836 q 358 806 388 806 m 353 -318 q 35 -147 35 -318 q 161 11 35 -47 l 161 17 q 101 61 121 29 q 81 124 81 93 q 101 197 81 164 q 171 282 121 229 l 171 286 q 68 476 68 339 q 147 657 68 590 q 356 724 226 724 q 536 678 461 724 q 681 808 582 808 q 746 789 718 808 q 774 735 774 769 q 749 681 774 704 q 694 657 725 657 q 639 694 658 657 l 625 724 q 585 636 600 686 q 638 483 638 574 q 560 306 638 371 q 357 242 482 242 q 244 256 290 242 q 200 172 200 206 q 224 128 200 140 q 297 115 247 115 l 475 115 q 656 78 590 115 q 721 -64 721 40 q 619 -256 721 -193 q 353 -318 518 -318 m 354 315 q 467 358 428 315 q 506 479 506 401 q 464 607 506 561 q 346 653 422 653 q 200 483 200 653 q 243 360 200 404 q 354 315 286 315 m 364 -231 q 531 -194 472 -231 q 589 -97 589 -158 q 460 -11 589 -11 l 226 -11 q 163 -126 163 -60 q 210 -207 163 -183 q 364 -231 257 -231 z "},"Ǫ":{"ha":1082,"x_min":82,"x_max":999,"o":"m 678 1 q 564 -171 564 -94 q 621 -228 564 -228 q 689 -215 649 -228 l 704 -264 q 572 -318 639 -318 q 479 -286 514 -318 q 444 -206 444 -254 q 569 -18 444 -106 q 538 -19 558 -19 q 205 117 328 -19 q 82 467 82 253 q 108 665 82 576 q 178 814 133 754 q 283 915 222 874 q 410 974 343 956 q 550 992 476 992 q 870 866 742 992 q 999 511 999 740 q 910 178 999 311 q 678 1 822 46 m 229 496 q 317 188 229 301 q 554 74 404 74 q 770 176 693 74 q 847 485 847 278 q 762 794 847 686 q 532 903 676 903 q 312 803 394 903 q 229 496 229 703 z "},"ǫ":{"ha":833,"x_min":65,"x_max":751,"o":"m 543 7 q 422 -171 422 -93 q 479 -228 422 -228 q 547 -215 507 -228 l 563 -264 q 431 -318 497 -318 q 338 -286 372 -318 q 303 -206 303 -254 q 428 -18 303 -104 q 403 -19 419 -19 q 154 79 243 -19 q 65 336 65 178 q 168 628 65 532 q 422 724 271 724 q 659 632 567 724 q 751 371 751 540 q 696 140 751 233 q 543 7 640 46 m 206 378 q 263 151 206 235 q 422 67 319 67 q 560 136 511 67 q 610 338 610 206 q 553 561 610 481 q 400 642 496 642 q 258 576 310 642 q 206 378 206 511 z "},"Ǻ":{"ha":1021,"x_min":21,"x_max":1000,"o":"m 624 1321 l 414 1229 l 386 1268 l 568 1433 q 622 1465 604 1465 q 665 1444 647 1465 q 682 1399 682 1424 q 624 1321 682 1346 m 943 81 l 1000 69 l 1000 0 l 629 0 l 629 67 l 710 76 q 744 95 738 81 q 736 146 750 110 l 676 321 l 304 321 l 246 151 q 240 99 233 115 q 278 76 247 83 l 357 65 l 357 0 l 21 0 l 21 67 l 88 78 q 124 97 113 83 q 151 153 135 111 l 429 931 q 372 1049 372 965 q 410 1147 372 1108 q 521 1186 449 1186 q 627 1150 590 1186 q 664 1051 664 1114 q 606 932 664 969 l 882 151 q 906 99 897 111 q 943 81 915 88 m 567 1102 q 559 1113 567 1102 q 517 1124 550 1124 q 467 1102 483 1124 q 450 1049 450 1081 q 467 995 450 1017 q 519 974 483 974 q 585 1049 585 974 q 567 1102 585 1081 m 332 400 l 650 400 l 496 857 l 490 857 l 332 400 z "},"ǻ":{"ha":749,"x_min":72,"x_max":742,"o":"m 240 1140 l 213 1179 l 394 1344 q 449 1376 431 1376 q 491 1356 474 1376 q 508 1310 508 1335 q 450 1232 508 1257 l 240 1140 m 344 808 q 235 845 271 808 q 199 947 199 882 q 237 1046 199 1007 q 347 1085 275 1085 q 453 1049 417 1085 q 490 950 490 1013 q 452 847 490 886 q 344 808 414 808 m 346 872 q 411 947 411 872 q 394 1001 411 979 q 343 1022 376 1022 q 293 1001 310 1022 q 276 947 276 979 q 293 894 276 915 q 346 872 310 872 m 267 -19 q 131 26 189 -19 q 72 168 72 72 q 128 310 72 257 q 288 378 185 363 q 471 394 363 389 l 471 489 q 433 615 471 578 q 321 653 394 653 q 244 640 279 653 q 193 611 208 628 q 229 533 229 550 q 208 490 229 508 q 154 471 188 471 q 75 543 75 471 q 156 670 75 617 q 340 724 236 724 q 531 668 461 724 q 600 474 600 613 l 600 139 q 728 89 600 53 l 742 36 q 614 -19 683 -19 q 482 104 494 -19 q 267 -19 404 -19 m 319 76 q 422 112 374 76 q 471 224 471 147 l 471 322 q 336 310 411 322 q 237 265 267 300 q 207 183 207 229 q 239 103 207 129 q 319 76 271 76 z "},"Ǽ":{"ha":1385,"x_min":21,"x_max":1311,"o":"m 806 1044 l 778 1083 l 960 1249 q 1014 1281 996 1281 q 1056 1260 1039 1281 q 1074 1214 1074 1239 q 1015 1136 1074 1161 l 806 1044 m 21 0 l 21 67 l 88 78 q 123 97 110 82 q 157 153 136 111 l 522 893 l 433 906 l 433 972 l 1229 972 l 1281 746 l 1208 722 q 1125 865 1167 832 q 982 897 1083 897 l 847 897 l 847 517 l 968 517 q 1002 517 989 517 q 1028 519 1015 517 q 1048 522 1042 522 q 1062 531 1054 522 q 1072 540 1069 539 q 1078 555 1074 540 q 1085 574 1083 569 q 1091 600 1086 578 q 1097 631 1096 622 l 1161 639 l 1161 331 l 1097 319 q 1067 420 1085 403 q 968 438 1050 438 l 847 438 l 847 75 l 1026 75 q 1166 109 1126 75 q 1235 256 1206 143 l 1311 256 l 1278 0 l 586 0 l 586 67 l 667 79 q 702 99 694 83 q 710 150 710 115 l 710 438 l 396 438 l 258 151 q 282 76 226 85 l 361 65 l 361 0 l 21 0 m 435 517 l 710 517 l 711 897 l 618 897 l 435 517 z "},"ǽ":{"ha":1124,"x_min":72,"x_max":1064,"o":"m 535 806 l 501 840 l 651 1039 q 706 1079 683 1079 q 753 1058 735 1079 q 772 1008 772 1036 q 724 935 772 964 l 535 806 m 267 -19 q 131 26 189 -19 q 72 168 72 72 q 128 310 72 257 q 288 378 185 363 q 471 394 363 389 l 471 489 q 433 615 471 578 q 321 653 394 653 q 244 640 279 653 q 193 611 208 628 q 229 533 229 550 q 208 490 229 508 q 154 471 188 471 q 75 543 75 471 q 156 670 75 617 q 340 724 236 724 q 561 631 501 724 q 799 724 654 724 q 982 658 910 724 q 1054 478 1054 592 q 1035 342 1054 411 l 600 342 q 663 153 604 222 q 824 83 721 83 q 1015 167 935 83 l 1064 118 q 949 20 1021 60 q 792 -19 878 -19 q 518 122 607 -19 q 267 -19 442 -19 m 600 419 l 919 419 q 924 483 924 446 q 783 650 924 650 q 600 419 621 650 m 319 76 q 422 114 372 76 q 471 228 471 151 l 471 322 q 336 310 411 322 q 237 265 267 300 q 207 183 207 229 q 239 103 207 129 q 319 76 271 76 z "},"Ǿ":{"ha":1082,"x_min":50,"x_max":1003,"o":"m 649 1136 l 439 1044 l 411 1083 l 593 1249 q 647 1281 629 1281 q 690 1260 672 1281 q 707 1214 707 1239 q 649 1136 707 1161 m 1003 992 l 885 850 q 999 511 999 722 q 867 122 999 264 q 538 -19 736 -19 q 243 79 364 -19 l 161 -19 l 50 -19 l 183 142 q 82 467 82 274 q 108 665 82 576 q 178 814 133 754 q 283 915 222 874 q 410 974 343 956 q 550 992 476 992 q 822 908 708 992 l 892 992 l 1003 992 m 229 496 q 276 253 229 356 l 744 815 q 532 903 663 903 q 312 803 394 903 q 229 496 229 703 m 847 485 q 794 742 847 643 l 325 178 q 554 74 411 74 q 770 176 693 74 q 847 485 847 278 z "},"ǿ":{"ha":815,"x_min":7,"x_max":796,"o":"m 526 935 l 338 806 l 304 840 l 454 1039 q 508 1079 486 1079 q 556 1058 538 1079 q 575 1008 575 1036 q 526 935 575 964 m 796 724 l 685 601 q 751 371 751 510 q 654 83 751 186 q 403 -19 557 -19 q 182 53 269 -19 l 117 -19 l 7 -19 l 128 113 q 65 336 65 203 q 168 628 65 532 q 422 724 271 724 q 628 660 543 724 l 686 724 l 796 724 m 206 378 q 228 222 206 288 l 546 571 q 400 642 490 642 q 258 576 310 642 q 206 378 206 511 m 610 338 q 586 494 610 428 l 267 144 q 422 67 322 67 q 560 136 511 67 q 610 338 610 206 z "},"Ȁ":{"ha":1021,"x_min":21,"x_max":1000,"o":"m 635 1056 l 482 1183 q 439 1258 439 1218 q 454 1303 439 1286 q 499 1319 469 1319 q 551 1279 526 1319 l 668 1090 l 635 1056 m 439 1056 l 275 1178 q 228 1257 228 1211 q 243 1299 228 1282 q 288 1315 258 1315 q 343 1275 314 1315 l 472 1090 l 439 1056 m 21 0 l 21 67 l 88 78 q 124 97 113 83 q 151 153 135 111 l 444 972 l 592 972 l 882 151 q 906 99 897 111 q 943 81 915 88 l 1000 69 l 1000 0 l 629 0 l 629 67 l 710 76 q 744 95 738 81 q 736 146 750 110 l 676 321 l 304 321 l 246 151 q 240 99 233 115 q 278 76 247 83 l 357 65 l 357 0 l 21 0 m 332 400 l 650 400 l 496 857 l 490 857 l 332 400 z "},"ȁ":{"ha":749,"x_min":54,"x_max":742,"o":"m 461 806 l 308 933 q 265 1008 265 968 q 281 1053 265 1036 q 325 1069 296 1069 q 378 1029 353 1069 l 494 840 l 461 806 m 265 806 l 101 928 q 54 1007 54 961 q 69 1049 54 1032 q 114 1065 85 1065 q 169 1025 140 1065 l 299 840 l 265 806 m 267 -19 q 131 26 189 -19 q 72 168 72 72 q 128 310 72 257 q 288 378 185 363 q 471 394 363 389 l 471 489 q 433 615 471 578 q 321 653 394 653 q 244 640 279 653 q 193 611 208 628 q 229 533 229 550 q 208 490 229 508 q 154 471 188 471 q 75 543 75 471 q 156 670 75 617 q 340 724 236 724 q 531 668 461 724 q 600 474 600 613 l 600 139 q 728 89 600 53 l 742 36 q 614 -19 683 -19 q 482 104 494 -19 q 267 -19 404 -19 m 319 76 q 422 112 374 76 q 471 224 471 147 l 471 322 q 336 310 411 322 q 237 265 267 300 q 207 183 207 229 q 239 103 207 129 q 319 76 271 76 z "},"Ȃ":{"ha":1021,"x_min":21,"x_max":1000,"o":"m 524 1279 q 676 1215 622 1279 q 740 1051 731 1150 l 685 1035 q 625 1136 665 1104 q 517 1168 585 1168 q 350 1036 385 1168 l 297 1050 q 365 1210 306 1142 q 524 1279 424 1279 m 21 0 l 21 67 l 88 78 q 124 97 113 83 q 151 153 135 111 l 444 972 l 592 972 l 882 151 q 906 99 897 111 q 943 81 915 88 l 1000 69 l 1000 0 l 629 0 l 629 67 l 710 76 q 744 95 738 81 q 736 146 750 110 l 676 321 l 304 321 l 246 151 q 240 99 233 115 q 278 76 247 83 l 357 65 l 357 0 l 21 0 m 332 400 l 650 400 l 496 857 l 490 857 l 332 400 z "},"ȃ":{"ha":749,"x_min":72,"x_max":742,"o":"m 358 1053 q 500 985 450 1053 q 561 818 550 918 l 506 801 q 351 942 465 942 q 199 803 235 942 l 146 817 q 210 981 154 910 q 358 1053 265 1053 m 267 -19 q 131 26 189 -19 q 72 168 72 72 q 128 310 72 257 q 288 378 185 363 q 471 394 363 389 l 471 489 q 433 615 471 578 q 321 653 394 653 q 244 640 279 653 q 193 611 208 628 q 229 533 229 550 q 208 490 229 508 q 154 471 188 471 q 75 543 75 471 q 156 670 75 617 q 340 724 236 724 q 531 668 461 724 q 600 474 600 613 l 600 139 q 728 89 600 53 l 742 36 q 614 -19 683 -19 q 482 104 494 -19 q 267 -19 404 -19 m 319 76 q 422 112 374 76 q 471 224 471 147 l 471 322 q 336 310 411 322 q 237 265 267 300 q 207 183 207 229 q 239 103 207 129 q 319 76 271 76 z "}}}
